<svg width="1920" height="236" viewBox="0 0 1920 236" fill="none" xmlns="http://www.w3.org/2000/svg">
<g clip-path="url(#clip0_211_2)">
<mask id="mask0_211_2" style="mask-type:luminance" maskUnits="userSpaceOnUse" x="0" y="0" width="1920" height="236">
<path d="M1920 0H0V236H1920V0Z" fill="white"/>
</mask>
<g mask="url(#mask0_211_2)">
<path d="M1920 0H0V236H1920V0Z" fill="#4A6BDE"/>
<path d="M1800 0H120V236H1800V0Z" fill="#4261D0"/>
<path d="M150.5 -18.5L222.809 113.603C226.318 120.014 233.044 124 240.353 124H339.874C345.258 124 350.282 126.708 353.241 131.206L361 143" stroke="#8DEFD3" stroke-width="2" stroke-linecap="round"/>
<path d="M162.912 15.1021L135.481 31.6385C131.879 33.8101 129.676 37.7092 129.676 41.9155V107.662C129.676 109.629 128.712 111.471 127.096 112.592L-9 207" stroke="#7290FA"/>
<path d="M239.269 120C240.374 120 241.269 119.105 241.269 118C241.269 116.895 240.374 116 239.269 116C238.164 116 237.269 116.895 237.269 118C237.269 119.105 238.164 120 239.269 120Z" fill="#7CFFBF"/>
<path d="M246.269 120C247.374 120 248.269 119.105 248.269 118C248.269 116.895 247.374 116 246.269 116C245.164 116 244.269 116.895 244.269 118C244.269 119.105 245.164 120 246.269 120Z" fill="#7289DA"/>
<path d="M253.269 120C254.374 120 255.269 119.105 255.269 118C255.269 116.895 254.374 116 253.269 116C252.164 116 251.269 116.895 251.269 118C251.269 119.105 252.164 120 253.269 120Z" fill="#7289DA"/>
<path d="M173.939 10.634L172.439 8.03595C172.163 7.55765 171.551 7.39378 171.073 7.66992C170.595 7.94606 170.431 8.55765 170.707 9.03595L172.207 11.634C172.483 12.1123 173.095 12.2762 173.573 12C174.051 11.7239 174.215 11.1123 173.939 10.634Z" fill="#C6D2FF"/>
<path d="M164.413 16.1338L162.913 13.5357C162.637 13.0574 162.025 12.8935 161.547 13.1697C161.069 13.4458 160.905 14.0574 161.181 14.5357L162.681 17.1338C162.957 17.6121 163.569 17.7759 164.047 17.4998C164.525 17.2237 164.689 16.6121 164.413 16.1338Z" fill="#C6D2FF"/>
<path d="M1766.92 254.323L1694.61 122.22C1691.1 115.809 1684.37 111.823 1677.07 111.823H1577.54C1572.16 111.823 1567.14 109.115 1564.18 104.617L1556.42 92.8228" stroke="#8DEFD3" stroke-width="2" stroke-linecap="round"/>
<path d="M1754.51 220.721L1781.94 204.184C1785.54 202.013 1787.74 198.114 1787.74 193.907V128.207C1787.74 126.215 1788.73 124.352 1790.38 123.236L1930.5 28.5" stroke="#7290FA"/>
<path d="M1678.15 115.823C1677.05 115.823 1676.15 116.718 1676.15 117.823C1676.15 118.927 1677.05 119.823 1678.15 119.823C1679.25 119.823 1680.15 118.927 1680.15 117.823C1680.15 116.718 1679.25 115.823 1678.15 115.823Z" fill="#7CFFBF"/>
<path d="M1671.15 115.823C1670.05 115.823 1669.15 116.718 1669.15 117.823C1669.15 118.927 1670.05 119.823 1671.15 119.823C1672.25 119.823 1673.15 118.927 1673.15 117.823C1673.15 116.718 1672.25 115.823 1671.15 115.823Z" fill="#7289DA"/>
<path d="M1664.15 115.823C1663.05 115.823 1662.15 116.718 1662.15 117.823C1662.15 118.927 1663.05 119.823 1664.15 119.823C1665.25 119.823 1666.15 118.927 1666.15 117.823C1666.15 116.718 1665.25 115.823 1664.15 115.823Z" fill="#7289DA"/>
<path d="M1743.48 225.188L1744.98 227.786C1745.26 228.264 1745.87 228.428 1746.35 228.152C1746.82 227.876 1746.99 227.264 1746.71 226.786L1745.21 224.188C1744.94 223.709 1744.32 223.546 1743.85 223.822C1743.37 224.098 1743.2 224.709 1743.48 225.188Z" fill="#C6D2FF"/>
<path d="M1753.01 219.688L1754.51 222.286C1754.79 222.764 1755.4 222.928 1755.88 222.652C1756.35 222.376 1756.52 221.764 1756.24 221.286L1754.74 218.688C1754.47 218.209 1753.85 218.046 1753.38 218.322C1752.9 218.598 1752.73 219.209 1753.01 219.688Z" fill="#C6D2FF"/>
<path d="M1439.31 79.3226L1285.48 -168.474H1715.4V93.4998H1464.8C1454.42 93.4998 1444.78 88.1381 1439.31 79.3226Z" fill="url(#paint0_linear_211_2)"/>
<path d="M502.354 156.177L656.186 403.974H226.259V142H476.866C487.242 142 496.882 147.362 502.354 156.177Z" fill="url(#paint1_linear_211_2)"/>
<path d="M235.824 228.042H484.026C486.689 228.042 489.277 227.156 491.381 225.524L506.753 213.601C508.857 211.969 511.444 211.083 514.107 211.083H551.129C553.121 211.083 554.983 212.072 556.099 213.722L558.941 217.924" stroke="#7290FA"/>
<path d="M564.285 226.13L570.802 236.323" stroke="#7290FA"/>
<path d="M558.23 219.582L560.681 217.852C561.132 217.533 561.24 216.909 560.921 216.458C560.603 216.007 559.979 215.899 559.528 216.218L557.077 217.948C556.626 218.267 556.518 218.891 556.837 219.342C557.155 219.793 557.779 219.9 558.23 219.582Z" fill="#C6D2FF"/>
<path d="M563.349 227.247L565.8 225.517C566.251 225.198 566.359 224.574 566.04 224.123C565.722 223.672 565.098 223.564 564.647 223.883L562.196 225.613C561.745 225.932 561.637 226.556 561.956 227.007C562.274 227.458 562.898 227.565 563.349 227.247Z" fill="#C6D2FF"/>
<path d="M1681.59 7.78125H1433.39C1430.73 7.78125 1428.14 8.66707 1426.04 10.2992L1410.67 22.2221C1408.56 23.8542 1405.97 24.74 1403.31 24.74H1366.29C1364.3 24.74 1362.44 23.7514 1361.32 22.1012L1358.48 17.8989" stroke="#7290FA"/>
<path d="M1353.13 9.69332L1346.62 -0.499512" stroke="#7290FA"/>
<path d="M1359.19 16.2409L1356.74 17.9711C1356.29 18.2896 1356.18 18.9136 1356.5 19.3648C1356.82 19.816 1357.44 19.9235 1357.89 19.605L1360.34 17.8747C1360.79 17.5562 1360.9 16.9322 1360.58 16.4811C1360.26 16.0299 1359.64 15.9224 1359.19 16.2409Z" fill="#C6D2FF"/>
<path d="M1354.07 8.5756L1351.62 10.3058C1351.17 10.6244 1351.06 11.2483 1351.38 11.6995C1351.7 12.1507 1352.32 12.2582 1352.77 11.9397L1355.22 10.2094C1355.67 9.89092 1355.78 9.26695 1355.46 8.81578C1355.14 8.3646 1354.52 8.25707 1354.07 8.5756Z" fill="#C6D2FF"/>
<path d="M205.601 -6.57481C203.727 -9.74118 199.64 -10.7882 196.473 -8.91329C193.307 -7.03843 192.26 -2.9517 194.135 0.214677L213.802 33.4297C215.677 36.5961 219.764 37.6431 222.93 35.7682C226.097 33.8933 227.143 29.8066 225.269 26.6402L205.601 -6.57481Z" fill="url(#paint2_linear_211_2)"/>
<path d="M219.759 33.1742C221.617 33.1054 223.068 31.5429 223 29.6842C222.931 27.8255 221.368 26.3745 219.51 26.4433C217.651 26.5121 216.2 28.0746 216.269 29.9333C216.337 31.792 217.9 33.243 219.759 33.1742Z" stroke="#8DEFD3"/>
<path d="M220.007 31.3565L220.633 28.6209C220.713 28.271 220.494 27.9224 220.144 27.8424C219.794 27.7624 219.446 27.9812 219.366 28.3312L218.74 31.0667C218.66 31.4166 218.879 31.7652 219.229 31.8452C219.579 31.9252 219.927 31.7064 220.007 31.3565Z" fill="#C6D2FF"/>
<path d="M215.798 11.1652L220.63 7.85081C221.629 7.16561 222.812 6.79889 224.024 6.79889H276.373C278.029 6.79889 279.612 6.1141 280.746 4.90675L286.589 -1.31396" stroke="#7290FA" stroke-linecap="round" stroke-linejoin="round"/>
<path d="M1714.48 242.635C1716.35 245.802 1720.44 246.849 1723.61 244.974C1726.77 243.099 1727.82 239.012 1725.95 235.846L1706.28 202.631C1704.4 199.464 1700.32 198.418 1697.15 200.292C1693.98 202.167 1692.94 206.254 1694.81 209.42L1714.48 242.635Z" fill="url(#paint3_linear_211_2)"/>
<path d="M1700.32 202.886C1698.46 202.955 1697.01 204.518 1697.07 206.376C1697.14 208.235 1698.71 209.686 1700.56 209.617C1702.42 209.548 1703.87 207.986 1703.81 206.127C1703.74 204.268 1702.17 202.817 1700.32 202.886Z" stroke="#90A7FA"/>
<path d="M1700.07 204.704L1699.44 207.439C1699.36 207.789 1699.58 208.138 1699.93 208.218C1700.28 208.298 1700.63 208.079 1700.71 207.729L1701.34 204.993C1701.42 204.643 1701.2 204.295 1700.85 204.215C1700.5 204.135 1700.15 204.354 1700.07 204.704Z" fill="#C6D2FF"/>
<path d="M1704.28 224.895L1699.45 228.21C1698.45 228.895 1697.26 229.262 1696.05 229.262H1643.7C1642.05 229.262 1640.46 229.946 1639.33 231.154L1633.49 237.375" stroke="#7290FA" stroke-linecap="round" stroke-linejoin="round"/>
</g>
</g>
<defs>
<linearGradient id="paint0_linear_211_2" x1="1363.81" y1="-31.1324" x2="1702.56" y2="32.3835" gradientUnits="userSpaceOnUse">
<stop stop-color="#7289DA"/>
<stop offset="1" stop-color="#57E6A0" stop-opacity="0"/>
</linearGradient>
<linearGradient id="paint1_linear_211_2" x1="577.851" y1="266.632" x2="239.1" y2="203.116" gradientUnits="userSpaceOnUse">
<stop stop-color="#7289DA"/>
<stop offset="1" stop-color="#57E6A0" stop-opacity="0"/>
</linearGradient>
<linearGradient id="paint2_linear_211_2" x1="196.474" y1="-8.91335" x2="222.93" y2="35.7681" gradientUnits="userSpaceOnUse">
<stop stop-color="#4FE79C" stop-opacity="0"/>
<stop offset="1" stop-color="#7289DA"/>
</linearGradient>
<linearGradient id="paint3_linear_211_2" x1="1723.61" y1="244.972" x2="1697.15" y2="200.291" gradientUnits="userSpaceOnUse">
<stop stop-color="#5376F0" stop-opacity="0"/>
<stop offset="1" stop-color="#4FE79C"/>
</linearGradient>
<clipPath id="clip0_211_2">
<rect width="1920" height="236" fill="white"/>
</clipPath>
</defs>
</svg>