<svg width="120" height="120" viewBox="0 0 120 120" fill="none" xmlns="http://www.w3.org/2000/svg">
<path d="M90.8651 91.4341C92.5878 92.4287 92.5967 94.045 90.8828 95.0396L63.2827 111.077C61.5688 112.072 58.7804 112.072 57.0576 111.077L29.2977 95.0396C27.5749 94.045 27.566 92.4376 29.2799 91.443L56.8711 75.4051C58.585 74.4105 61.3735 74.4105 63.0962 75.4051L90.8739 91.443L90.8651 91.4341Z" fill="#121212"/>
<path d="M57.2201 55.4123C58.9057 56.379 60.2698 58.718 60.2611 60.6427L60.1395 102.926C60.1395 104.851 58.7667 105.636 57.081 104.661L20.0411 83.42C18.3555 82.4533 16.9914 80.1057 17 78.181L17.1217 35.8976C17.1217 33.9729 18.4945 33.1961 20.1801 34.1627L57.2201 55.4037V55.4123Z" fill="white" stroke="#121212" stroke-width="0.7" stroke-miterlimit="10"/>
<path d="M100.09 30.6669L63.0501 9.41729C62.1986 8.93395 61.434 8.88217 60.8779 9.20152L18.0078 33.9553C18.5639 33.6359 19.3285 33.6791 20.18 34.1711L57.22 55.412C58.9056 56.3787 60.2697 58.7177 60.261 60.6424L60.1394 102.926C60.1394 103.884 59.8005 104.557 59.2444 104.876L102.115 80.1313C102.662 79.8119 103.001 79.1387 103.01 78.1807L103.131 35.8973C103.131 33.9726 101.776 31.6335 100.09 30.6669Z" fill="white" stroke="#121212" stroke-width="0.7" stroke-miterlimit="10"/>
<mask id="mask0_204_59" style="mask-type:alpha" maskUnits="userSpaceOnUse" x="18" y="9" width="86" height="96">
<path d="M100.09 30.6669L63.0501 9.41729C62.1986 8.93395 61.434 8.88217 60.8779 9.20152L18.0078 33.9553C18.5639 33.6359 19.3285 33.6791 20.18 34.1711L57.22 55.412C58.9056 56.3787 60.2697 58.7177 60.261 60.6424L60.1394 102.926C60.1394 103.884 59.8005 104.557 59.2444 104.876L102.115 80.1313C102.662 79.8119 103.001 79.1387 103.01 78.1807L103.131 35.8973C103.131 33.9726 101.776 31.6335 100.09 30.6669Z" fill="white"/>
</mask>
<g mask="url(#mask0_204_59)">
<path d="M106.39 32.9707L57.2407 61.0957V113.971L107.52 89.2207L106.39 32.9707Z" fill="#EBE9E9"/>
<path d="M106.39 29.9707L57.2407 58.0957V110.971L107.52 86.2207L106.39 29.9707Z" stroke="#EBE9E9" stroke-width="0.7"/>
<path d="M100.09 30.6669L63.0501 9.41729C62.1986 8.93395 61.434 8.88217 60.8779 9.20152L18.0078 33.9553C18.5639 33.6359 19.3285 33.6791 20.18 34.1711L57.22 55.412C58.9056 56.3787 60.2697 58.7177 60.261 60.6424L60.1394 102.926C60.1394 103.884 59.8005 104.557 59.2444 104.876L102.115 80.1313C102.662 79.8119 103.001 79.1387 103.01 78.1807L103.131 35.8973C103.131 33.9726 101.776 31.6335 100.09 30.6669Z" stroke="#121212" stroke-width="0.7" stroke-miterlimit="10"/>
<path d="M70.6157 79.8589L95.1882 66.021C95.6877 65.7394 96 65.2218 96 64.6585V57.0545C96 56.2477 95.1024 55.7377 94.3843 56.1411L69.8117 69.979C69.3122 70.2606 69 70.7782 69 71.3415V78.9455C69 79.7523 69.8976 80.2623 70.6157 79.8589Z" fill="#121212" stroke="#121212" stroke-width="0.7" stroke-linecap="round" stroke-linejoin="round"/>
<path d="M84.6218 67.2598L74.2988 73.221" stroke="white" stroke-width="0.7" stroke-linecap="round" stroke-linejoin="round"/>
<path d="M91.2663 63.4209L87.8018 65.4262" stroke="white" stroke-width="0.7" stroke-linecap="round" stroke-linejoin="round"/>
</g>
<path d="M50.4102 60.6903C52.045 61.6278 53.368 63.9047 53.368 65.7714L53.2837 90.1061C53.2837 91.9728 51.9438 92.7178 50.309 91.7802L25.4411 78.1393C23.8063 77.2018 22.4833 74.9333 22.4917 73.0666L22.576 48.7319C22.576 46.8652 23.9074 46.1035 25.5422 47.0494L50.4102 60.6987V60.6903Z" fill="#496DEA" stroke="#121212" stroke-width="0.7" stroke-miterlimit="10"/>
<path d="M25.9781 68.8445C23.9032 63.9892 24.4565 59.1062 27.2139 57.938C29.9713 56.7698 33.8887 59.7587 35.9636 64.614C38.0385 69.4693 37.4852 74.3524 34.7278 75.5207C31.9704 76.6889 28.053 73.6999 25.9781 68.8445Z" fill="white" stroke="#121212" stroke-width="0.7" stroke-linecap="round" stroke-linejoin="round"/>
<path d="M30.9488 66.762L27.6167 62.6738" stroke="#121212" stroke-width="0.7" stroke-linecap="square" stroke-linejoin="round"/>
<path d="M50.2537 74.0653L44.1907 70.5817L41.1592 68.8398" stroke="#121212" stroke-width="0.7" stroke-linecap="round" stroke-linejoin="round"/>
<path d="M50.2539 80.1344L47.0801 78.3111L45.4932 77.3994" stroke="#121212" stroke-width="0.7" stroke-linecap="round" stroke-linejoin="round"/>
</svg>
