<svg width="120" height="120" viewBox="0 0 120 120" fill="none" xmlns="http://www.w3.org/2000/svg">
<path d="M91.0042 90.4341C92.7269 91.4287 92.7358 93.045 91.0219 94.0396L63.4218 110.077C61.7079 111.072 58.9195 111.072 57.1967 110.077L29.4368 94.0396C27.714 93.045 27.7051 91.4376 29.419 90.443L57.0102 74.4051C58.7241 73.4105 61.5126 73.4105 63.2353 74.4051L91.013 90.443L91.0042 90.4341Z" fill="#121212" stroke="#121212" stroke-width="0.7" stroke-miterlimit="10"/>
<mask id="mask0_204_2" style="mask-type:alpha" maskUnits="userSpaceOnUse" x="20" y="38" width="81" height="67">
<path d="M98.7882 40.1616L63.5849 60.6186C61.9806 61.5496 59.3704 61.5496 57.7578 60.6186L22.3134 40.1616C21.4988 39.6961 21.0998 39.0809 21.0998 38.4658L21 80.9755C21 81.5906 21.399 82.2057 22.2137 82.6712L57.6498 103.128C59.2624 104.059 61.8725 104.059 63.4768 103.128L98.6802 82.6712C99.4782 82.2057 99.8772 81.6072 99.8772 81.0004L99.9769 38.4908C99.9769 39.0976 99.5779 39.7044 98.7799 40.1616H98.7882Z" fill="white" stroke="black" stroke-width="0.7" stroke-miterlimit="10"/>
</mask>
<g mask="url(#mask0_204_2)">
<path d="M98.763 79.2785C100.376 80.2095 100.384 81.7141 98.7797 82.6451L63.5763 103.102C61.972 104.033 59.3619 104.033 57.7493 103.102L22.3132 82.6534C20.7005 81.7224 20.7005 80.2095 22.2965 79.2785L57.5082 58.8215C59.1125 57.8905 61.7143 57.8905 63.3269 58.8215L98.763 79.2785Z" fill="#EBE9E9"/>
<mask id="mask1_204_2" style="mask-type:alpha" maskUnits="userSpaceOnUse" x="44" y="53" width="33" height="35">
<path d="M71.1282 55.6087L71.8966 56.3236L71.8847 56.337L72.1583 56.5686C74.8932 58.8829 76.3451 62.7752 75.7426 67.6055C75.1796 72.1193 72.9295 76.5676 69.7345 80.1042C66.5391 83.6414 62.4204 86.2427 58.1459 87.0929C54.0195 87.9137 50.5234 86.9512 48.1387 84.7645L48.1085 84.7368L48.104 84.7326L48.1013 84.7301C48.0532 84.6855 48.0054 84.6403 47.9581 84.5946L47.9555 84.5921L46.3473 83.0702L46.6615 83.0862L46.3294 82.5253C45.0031 80.285 44.4161 77.361 44.8381 73.9776C45.4012 69.4637 47.6513 65.0154 50.8462 61.4788C54.0416 57.9417 58.1604 55.3404 62.4348 54.4901C65.5336 53.8738 68.2759 54.2639 70.4561 55.4185L71.1845 55.8042L71.1282 55.6087Z" fill="#D9D9D9" stroke="black" stroke-width="0.7"/>
</mask>
<g mask="url(#mask1_204_2)">
<path d="M71.1282 55.6087L71.8966 56.3236L71.8847 56.337L72.1583 56.5686C74.8932 58.8829 76.3451 62.7752 75.7426 67.6055C75.1796 72.1193 72.9295 76.5676 69.7345 80.1042C66.5391 83.6414 62.4204 86.2427 58.1459 87.0929C54.0195 87.9137 50.5234 86.9512 48.1387 84.7645L48.1085 84.7368L48.104 84.7326L48.1013 84.7301C48.0532 84.6855 48.0054 84.6403 47.9581 84.5946L47.9555 84.5921L46.3473 83.0702L46.6615 83.0862L46.3294 82.5253C45.0031 80.285 44.4161 77.361 44.8381 73.9776C45.4012 69.4637 47.6513 65.0154 50.8462 61.4788C54.0416 57.9417 58.1604 55.3404 62.4348 54.4901C65.5336 53.8738 68.2759 54.2639 70.4561 55.4185L71.1845 55.8042L71.1282 55.6087Z" fill="#EBE9E9" stroke="#121212" stroke-width="0.7"/>
<path d="M61.9876 79.8027L67.1039 84.7006L51.321 90.2641L43.4863 80.9534L61.9876 79.8027Z" fill="#121212"/>
<path d="M64.8008 78.9308L68.4812 82.6759L70.3141 81.0377L66.4839 76.9492L64.8008 78.9308Z" fill="#121212"/>
<path d="M71.1282 55.6087L71.8966 56.3236L71.8847 56.337L72.1583 56.5686C74.8932 58.8829 76.3451 62.7752 75.7426 67.6055C75.1796 72.1193 72.9295 76.5676 69.7345 80.1042C66.5391 83.6414 62.4204 86.2427 58.1459 87.0929C54.0195 87.9137 50.5234 86.9512 48.1387 84.7645L48.1085 84.7368L48.104 84.7326L48.1013 84.7301C48.0532 84.6855 48.0054 84.6403 47.9581 84.5946L47.9555 84.5921L46.3473 83.0702L46.6615 83.0862L46.3294 82.5253C45.0031 80.285 44.4161 77.361 44.8381 73.9776C45.4012 69.4637 47.6513 65.0154 50.8462 61.4788C54.0416 57.9417 58.1604 55.3404 62.4348 54.4901C65.5336 53.8738 68.2759 54.2639 70.4561 55.4185L71.1845 55.8042L71.1282 55.6087Z" stroke="#121212" stroke-width="0.7"/>
</g>
<path d="M72.9245 65.0712C71.8001 74.0854 63.9587 82.7476 55.4354 84.443C46.912 86.1384 40.8876 80.2342 42.0119 71.22C43.1363 62.2059 50.9777 53.5436 59.5011 51.8483C68.0244 50.1529 74.0489 56.0571 72.9245 65.0712Z" fill="white" stroke="#121212" stroke-width="0.7"/>
<mask id="mask2_204_2" style="mask-type:alpha" maskUnits="userSpaceOnUse" x="45" y="55" width="25" height="26">
<path d="M68.6676 65.8696C67.846 72.4565 62.1178 78.7796 55.8985 80.0166C49.6792 81.2537 45.277 76.9457 46.0986 70.3588C46.9203 63.7719 52.6485 57.4489 58.8678 56.2118C65.0871 54.9747 69.4892 59.2827 68.6676 65.8696Z" fill="#66DD8C" stroke="black" stroke-width="0.7"/>
</mask>
<g mask="url(#mask2_204_2)">
<path d="M68.6676 65.8696C67.846 72.4565 62.1178 78.7796 55.8985 80.0166C49.6792 81.2537 45.277 76.9457 46.0986 70.3588C46.9203 63.7719 52.6485 57.4489 58.8678 56.2118C65.0871 54.9747 69.4892 59.2827 68.6676 65.8696Z" fill="#496DEA" stroke="#121212" stroke-width="0.7"/>
<path d="M69.4467 66.5641C68.6597 72.873 63.1735 78.9281 57.2181 80.1127C51.2627 81.2973 47.0463 77.1721 47.8333 70.8632C48.6202 64.5543 54.1064 58.4992 60.0618 57.3146C66.0173 56.13 70.2336 60.2552 69.4467 66.5641Z" stroke="white" stroke-width="0.7"/>
<path d="M68.6676 65.8696C67.846 72.4565 62.1178 78.7796 55.8985 80.0166C49.6792 81.2537 45.277 76.9457 46.0986 70.3588C46.9203 63.7719 52.6485 57.4489 58.8678 56.2118C65.0871 54.9747 69.4892 59.2827 68.6676 65.8696Z" stroke="#121212" stroke-width="0.7"/>
</g>
<path d="M106.767 36.0073H60.6641V109.256H106.767V36.0073Z" fill="white" fill-opacity="0.4" stroke="#121212" stroke-width="0.7"/>
<path d="M60.9001 36.0073H14.7974V109.256H60.9001V36.0073Z" fill="white" fill-opacity="0.4" stroke="#121212" stroke-width="0.7"/>
</g>
<path d="M98.7882 40.1606L63.5848 60.6176C61.9805 61.5486 59.3704 61.5486 57.7578 60.6176L22.3134 40.1606C21.4987 39.6951 21.0997 39.08 21.0997 38.4648L21 80.9745C21 81.5896 21.399 82.2047 22.2136 82.6702L57.6497 103.127C59.2623 104.058 61.8724 104.058 63.4768 103.127L98.6801 82.6702C99.4781 82.2047 99.8771 81.6062 99.8771 80.9994L99.9768 38.4898C99.9768 39.0966 99.5779 39.7034 98.7799 40.1606H98.7882Z" stroke="#121212" stroke-width="0.7" stroke-miterlimit="10"/>
<path d="M98.763 37.1553C100.376 38.0863 100.384 39.5908 98.7797 40.5218L63.5763 60.9788C61.972 61.9098 59.3619 61.9098 57.7493 60.9788L22.3132 40.5301C20.7005 39.5991 20.7005 38.0863 22.2965 37.1553L57.5082 16.6982C59.1125 15.7673 61.7143 15.7673 63.3269 16.6982L98.763 37.1553Z" fill="white" stroke="#121212" stroke-width="0.7" stroke-miterlimit="10"/>
<path d="M86.8482 36.9418C88.312 37.7865 88.3195 39.1591 86.8633 40.0038L63.4123 53.6244C61.956 54.4691 59.5868 54.4691 58.123 53.6244L34.5362 40.0038C33.0724 39.1591 33.0648 37.7941 34.5211 36.9494L57.9645 23.3288C59.4208 22.4841 61.79 22.4841 63.2538 23.3288L86.8557 36.9494L86.8482 36.9418Z" fill="#496DEA" stroke="#121212" stroke-width="0.7" stroke-miterlimit="10"/>
<path d="M56.4897 44.6939C56.4897 44.6939 51.1171 42.7043 49.2634 39.1823C47.4097 35.6603 50.8918 33.0199 52.8743 32.2998C54.8567 31.5797 58.794 30.9104 62.2484 31.5797C65.4268 32.1936 67.9199 33.1999 69.4286 34.4463C70.9373 35.6926 71.1581 37.2528 69.3872 37.9268C67.6163 38.6007 65.551 38.1853 63.8951 37.2621C62.2393 36.3389 59.3277 35.2633 57.3958 36.5927C55.3305 38.0145 57.8695 40.0455 60.2384 41.0103C62.644 41.9889 66.1215 42.9213 70.735 42.4874" stroke="#121212" stroke-width="0.7" stroke-linecap="round" stroke-linejoin="round"/>
<path d="M61.1704 38.3809C61.1704 38.3809 67.1623 42.1441 72.6477 39.1138" stroke="#121212" stroke-width="0.7" stroke-linecap="round" stroke-linejoin="round"/>
<path d="M65.5414 44.9802C65.5414 44.9802 62.1578 44.7932 58.3942 42.7455C54.3311 40.5348 53.4595 38.5062 53.5221 37.0915C53.6204 34.9384 56.4722 33.7395 58.7518 33.5524C61.5231 33.3223 63.9055 33.869 66.9092 35.7344" stroke="#121212" stroke-width="0.7" stroke-linecap="round" stroke-linejoin="round"/>
</svg>
