<svg width="1532" height="1346" viewBox="0 0 1532 1346" fill="none" xmlns="http://www.w3.org/2000/svg">
<path opacity="0.77" fill-rule="evenodd" clip-rule="evenodd" d="M1196 854C1195.17 898.498 1194.67 943.165 1194.5 988C1193.89 989.65 1193.39 991.32 1193 993C1192.33 992.67 1191.67 992.33 1191 992C1191.65 990.41 1192.15 988.747 1192.5 987C1193 949.001 1193.17 911.001 1193 873C1193.67 865.007 1194 856.84 1194 848.5C1193.94 839.506 1193.28 830.672 1192 822C1194.98 811.289 1192.32 802.289 1184 795C1180.85 792.257 1177.51 789.757 1174 787.5C1135.26 765.712 1096.76 743.546 1058.5 721C1059.53 726.291 1060.7 731.624 1062 737C1062.24 738.291 1061.9 739.291 1061 740C991.2 504.168 920.696 268.501 849.5 33C840.831 19.8304 828.497 13.4971 812.5 14C806.443 13.8073 800.61 14.8073 795 17C794.349 16.4094 793.682 15.7427 793 15C792.393 15.1236 792.06 15.4569 792 16C787.211 16.1243 782.545 16.9577 778 18.5C698 55.5 618 92.5 538 129.5C525.309 138.726 516.976 150.893 513 166C511.537 168.703 510.704 171.703 510.5 175C509.833 181.667 509.833 188.333 510.5 195C537.108 283.988 563.608 372.988 590 462C589.333 462 589 462.333 589 463C588.09 461.481 587.257 459.815 586.5 458C586 514.666 585.833 571.332 586 628C585.333 610.333 584.667 592.667 584 575C584 574.667 584 574.333 584 574C584.167 532.332 584 490.665 583.5 449C558.298 365.06 533.298 281.06 508.5 197C504.713 167.67 514.546 144.17 538 126.5C616.786 90.353 695.453 54.0193 774 17.5C778.842 15.5524 783.842 14.219 789 13.5C797.197 12.9596 805.364 12.1263 813.5 11C834.672 11.8636 848.672 22.197 855.5 42C922.5 266.667 989.5 491.333 1056.5 716C1058.02 717.848 1059.85 719.348 1062 720.5C1102.5 743.581 1142.83 766.914 1183 790.5C1188.45 794.899 1192.28 800.399 1194.5 807C1195.92 822.617 1196.42 838.284 1196 854Z" fill="#191919"/>
<path fill-rule="evenodd" clip-rule="evenodd" d="M1061 740C1066.09 767.51 1058.09 790.343 1037 808.5C961.667 852.167 886.333 895.833 811 939.5C799.394 946.657 787.061 948.491 774 945C764.381 940.213 757.214 932.879 752.5 923C679.685 679.412 607.018 435.745 534.5 192C532.01 164.489 541.843 142.656 564 126.5C641.091 89.9519 718.091 53.452 795 16.9999C800.61 14.8072 806.443 13.8072 812.5 13.9999C828.497 13.497 840.831 19.8303 849.5 32.9999C920.696 268.501 991.2 504.168 1061 740Z" fill="#F9F9F9"/>
<path fill-rule="evenodd" clip-rule="evenodd" d="M792 16C715.515 52.7413 638.848 89.2413 562 125.5C547.863 135.583 538.53 149.083 534 166C526.832 166.861 519.832 166.861 513 166C516.976 150.893 525.309 138.726 538 129.5C618 92.5 698 55.5 778 18.5C782.545 16.9577 787.211 16.1243 792 16Z" fill="#F4F4F4"/>
<path fill-rule="evenodd" clip-rule="evenodd" d="M804 29.0001C822.38 26.4376 835.547 33.4376 843.5 50.0001C912.83 281.317 982.163 512.65 1051.5 744C1054.71 765.379 1048.54 783.546 1033 798.5C957.667 842.167 882.333 885.833 807 929.5C783.482 940.548 767.648 933.714 759.5 909C688.471 670.214 617.138 431.547 545.5 193C542.264 170.329 549.431 151.829 567 137.5C646.121 101.268 725.121 65.101 804 29.0001Z" fill="#131313"/>
<path fill-rule="evenodd" clip-rule="evenodd" d="M824.5 57.5C830.193 57.8511 832.026 60.5178 830 65.5C825.193 68.9885 820.026 71.4885 814.5 73C811.632 70.2906 810.965 67.124 812.5 63.5C816.592 61.4541 820.592 59.4541 824.5 57.5Z" fill="#4B4C4C"/>
<path fill-rule="evenodd" clip-rule="evenodd" d="M824.5 59.5C825.5 59.5 826.5 59.5 827.5 59.5C827.92 61.674 827.92 63.674 827.5 65.5C823.842 67.5793 820.008 69.246 816 70.5C815.228 70.3552 814.561 70.0219 814 69.5C813.202 67.7412 813.369 66.0745 814.5 64.5C817.937 62.8138 821.271 61.1472 824.5 59.5Z" fill="#E8E9E9"/>
<path fill-rule="evenodd" clip-rule="evenodd" d="M800.5 73.5C799.425 74.5624 798.425 74.5624 797.5 73.5C800.068 69.0463 803.734 67.7129 808.5 69.5C806.577 70.3078 804.577 70.8078 802.5 71C801.244 71.4169 800.577 72.2502 800.5 73.5Z" fill="#BDBEBF"/>
<path fill-rule="evenodd" clip-rule="evenodd" d="M800.5 73.4999C802.383 71.8639 804.383 71.5306 806.5 72.4999C805.624 73.2507 804.624 73.7507 803.5 73.9999C805.645 74.743 805.811 75.5764 804 76.4999C802.05 76.2925 800.884 75.2925 800.5 73.4999Z" fill="#B7B7B8"/>
<path fill-rule="evenodd" clip-rule="evenodd" d="M787.5 77.5C790.306 78.707 790.972 80.707 789.5 83.5C788.232 81.6957 787.565 79.6957 787.5 77.5Z" fill="#E5E5E6"/>
<path fill-rule="evenodd" clip-rule="evenodd" d="M790.5 74.5C791.496 74.4142 792.329 74.7476 793 75.5C794.632 77.9597 794.632 80.293 793 82.5C791.659 79.978 790.826 77.3113 790.5 74.5Z" fill="#D8D8D9"/>
<path fill-rule="evenodd" clip-rule="evenodd" d="M784.5 80.5C787.423 81.1634 788.09 82.8301 786.5 85.5C785.05 84.1502 784.383 82.4835 784.5 80.5Z" fill="#D7D8D9"/>
<path fill-rule="evenodd" clip-rule="evenodd" d="M781.5 83.5C785.31 84.7542 785.31 85.7542 781.5 86.5C781.5 85.5 781.5 84.5 781.5 83.5Z" fill="#DCDCDD"/>
<path fill-rule="evenodd" clip-rule="evenodd" d="M702 135C703.89 134.797 705.39 135.463 706.5 137C706.716 138.884 707.383 140.551 708.5 142C709.167 144.667 709.167 147.333 708.5 150C697.923 155.039 687.423 160.205 677 165.5C676 166.167 675 166.167 674 165.5C671.373 160.63 670.207 155.464 670.5 150C681.043 144.886 691.543 139.886 702 135Z" fill="#142218"/>
<path fill-rule="evenodd" clip-rule="evenodd" d="M588 150C589.086 150.12 589.753 150.787 590 152C590.896 154.301 591.062 156.634 590.5 159C589.718 156.424 588.218 154.424 586 153C586.693 151.982 587.359 150.982 588 150Z" fill="#C1C1C1"/>
<path fill-rule="evenodd" clip-rule="evenodd" d="M582 153C583.793 153.384 584.793 154.55 585 156.5C586.106 158.382 586.106 160.216 585 162C583.667 160.667 582.333 160.667 581 162C579.564 158.732 579.897 155.732 582 153Z" fill="#9C9D9E"/>
<path fill-rule="evenodd" clip-rule="evenodd" d="M577 163C578.837 163.139 579.17 163.806 578 165C577.202 164.543 576.869 163.876 577 163Z" fill="#B0B2B3"/>
<path fill-rule="evenodd" clip-rule="evenodd" d="M647 163C655.129 162.794 657.129 166.294 653 173.5C650.821 175.487 648.988 175.32 647.5 173C646.666 170.328 645.832 167.661 645 165C645.743 164.318 646.409 163.651 647 163Z" fill="#DADADA"/>
<path fill-rule="evenodd" clip-rule="evenodd" d="M648 165C652.3 165.315 653.967 167.649 653 172C651.678 172.17 650.511 171.837 649.5 171C648.687 169.064 648.187 167.064 648 165Z" fill="#1E1F1F"/>
<path fill-rule="evenodd" clip-rule="evenodd" d="M659 157C660.373 156.843 661.707 157.01 663 157.5C661.772 158.279 660.772 159.279 660 160.5C661.725 163.593 662.058 166.76 661 170C659.519 167.093 658.185 164.093 657 161C655.891 162.09 654.891 162.09 654 161C655.515 159.418 657.181 158.084 659 157Z" fill="#D0D0D1"/>
<path fill-rule="evenodd" clip-rule="evenodd" d="M513 166C519.832 166.861 526.832 166.861 534 166C532.221 173.237 531.721 180.57 532.5 188C533.87 196.814 535.87 205.48 538.5 214C608.475 447.23 678.141 680.564 747.5 914C750.555 929.16 759.055 939.827 773 946C773.973 946.487 774.973 946.987 776 947.5C753.254 952.21 737.087 944.044 727.5 923C681.964 769.226 636.13 615.559 590 462C563.608 372.988 537.108 283.988 510.5 195C509.833 188.333 509.833 181.667 510.5 175C510.704 171.703 511.537 168.703 513 166Z" fill="#BFC5CC"/>
<path fill-rule="evenodd" clip-rule="evenodd" d="M570 158C574.284 158.885 575.784 161.551 574.5 166C572.945 168.015 571.111 168.348 569 167C570.333 166.333 571.667 165.667 573 165C566.502 165.547 565.502 163.214 570 158Z" fill="#B1B2B2"/>
<path fill-rule="evenodd" clip-rule="evenodd" d="M570 160C571.548 160.321 572.215 161.321 572 163C569.252 163.098 568.586 162.098 570 160Z" fill="#1F2020"/>
<path fill-rule="evenodd" clip-rule="evenodd" d="M748 165C750.412 164.744 752.079 165.744 753 168C751.561 170.053 749.561 171.053 747 171C747.017 168.935 747.35 166.935 748 165Z" fill="#2EAA56"/>
<path fill-rule="evenodd" clip-rule="evenodd" d="M639 166C640.333 166 641.667 166 643 166C643 167 643 168 643 169C641.071 168.731 639.405 169.231 638 170.5C640.123 171.694 642.457 172.36 645 172.5C646.824 176.522 645.491 178.688 641 179C639.433 179.023 638.1 178.523 637 177.5C637.525 176.808 638.192 176.308 639 176C640.236 176.746 641.57 177.079 643 177C643 176 643 175 643 174C635.441 174.426 634.108 171.759 639 166Z" fill="#D5D5D6"/>
<path fill-rule="evenodd" clip-rule="evenodd" d="M631 170C632 170 633 170 634 170C634.852 173.655 635.352 177.321 635.5 181C633.133 184.432 630.466 184.765 627.5 182C626.369 179.775 625.536 177.442 625 175C625.233 173.568 625.9 173.068 627 173.5C628.214 175.851 629.048 178.351 629.5 181C632.145 182.208 633.312 181.208 633 178C632.325 175.322 631.658 172.656 631 170Z" fill="#CDCDCE"/>
<path fill-rule="evenodd" clip-rule="evenodd" d="M622 175C623.305 176.897 623.971 179.231 624 182C623.667 184.333 623.333 186.667 623 189C622.007 184.38 621.673 179.714 622 175Z" fill="#A7A8AA"/>
<path fill-rule="evenodd" clip-rule="evenodd" d="M756 183C757.149 183.291 757.816 184.124 758 185.5C756.824 189.772 754.824 190.106 752 186.5C753.186 185.088 754.519 183.921 756 183Z" fill="#D95D4B"/>
<path fill-rule="evenodd" clip-rule="evenodd" d="M606 182C606.876 181.869 607.543 182.202 608 183C607.237 184.219 606.237 185.219 605 186C606.08 188.832 607.08 191.665 608 194.5C607.475 195.192 606.808 195.692 606 196C604.604 193.528 603.77 190.862 603.5 188C601.991 187.41 600.491 186.744 599 186C601.55 184.896 603.883 183.563 606 182Z" fill="#D1D1D2"/>
<path fill-rule="evenodd" clip-rule="evenodd" d="M613 178C615.522 177.628 617.522 178.461 619 180.5C618.475 181.192 617.808 181.692 617 182C611.854 181.03 610.687 183.03 613.5 188C616.517 189.521 618.35 188.521 619 185C620.323 188.886 618.823 191.219 614.5 192C609.301 187.81 608.801 183.143 613 178Z" fill="#CFCFCF"/>
<path fill-rule="evenodd" clip-rule="evenodd" d="M669 189C670.644 188.786 672.144 189.12 673.5 190C676.101 198.303 678.601 206.637 681 215C680.971 216.529 680.304 217.696 679 218.5C648.333 233.167 617.667 247.833 587 262.5C585.241 263.298 583.574 263.131 582 262C579.335 253.672 576.669 245.339 574 237C574.029 235.471 574.696 234.304 576 233.5C607.122 218.603 638.122 203.77 669 189Z" fill="#1A1A1A"/>
<path fill-rule="evenodd" clip-rule="evenodd" d="M593 188C597.893 187.886 600.227 190.386 600 195.5C599.241 199.225 596.907 201.058 593 201C591.782 197.98 590.782 194.814 590 191.5C590.571 189.901 591.571 188.734 593 188Z" fill="#D8D8D9"/>
<path fill-rule="evenodd" clip-rule="evenodd" d="M594 195C595.478 194.738 596.811 195.071 598 196C597.18 197.611 595.846 198.278 594 198C594 197 594 196 594 195Z" fill="#292929"/>
<path fill-rule="evenodd" clip-rule="evenodd" d="M594 190C595.548 190.321 596.215 191.321 596 193C593.252 193.098 592.586 192.098 594 190Z" fill="#222222"/>
<path fill-rule="evenodd" clip-rule="evenodd" d="M573 198C573.997 197.97 574.664 198.47 575 199.5C574.471 201.059 573.804 202.559 573 204C574.105 205.392 575.439 206.559 577 207.5C574.933 208.036 573.099 207.536 571.5 206C571.653 203.326 572.153 200.66 573 198Z" fill="#AEAFB0"/>
<path fill-rule="evenodd" clip-rule="evenodd" d="M784 223C787.628 223.521 787.794 224.855 784.5 227C781.448 225.921 781.282 224.588 784 223Z" fill="#78797B"/>
<path fill-rule="evenodd" clip-rule="evenodd" d="M654 236C656.738 235.465 658.572 236.465 659.5 239C660 241 660.5 243 661 245C660.971 246.529 660.304 247.696 659 248.5C636.236 259.882 613.236 270.716 590 281C589.058 280.892 588.225 280.559 587.5 280C585.025 276.072 584.858 272.239 587 268.5C609.394 257.636 631.727 246.802 654 236Z" fill="#1A1A1A"/>
<path fill-rule="evenodd" clip-rule="evenodd" d="M766 236C765.331 231.824 766.831 230.491 770.5 232C770.749 230.876 771.249 229.876 772 229C773.141 230.921 773.308 232.921 772.5 235C772.167 234.667 771.833 234.333 771.5 234C770.454 236.959 768.621 237.626 766 236Z" fill="#404041"/>
<path fill-rule="evenodd" clip-rule="evenodd" d="M766 236C766.131 236.876 765.798 237.543 765 238C764.249 237.124 763.749 236.124 763.5 235C762.641 237.809 761.307 239.809 759.5 241C758.569 239.041 757.736 237.041 757 235C757.5 234.667 758 234.333 758.5 234C759.721 234.772 760.721 235.772 761.5 237C761.67 234.785 762.337 232.785 763.5 231C763.874 232.991 764.707 234.658 766 236Z" fill="#535455"/>
<path fill-rule="evenodd" clip-rule="evenodd" d="M731 247C732.364 248.72 733.364 250.72 734 253C730.1 255.947 728.6 254.947 729.5 250C729.749 251.124 730.249 252.124 731 253C731.333 252.5 731.667 252 732 251.5C731.352 250.06 731.019 248.56 731 247Z" fill="#545455"/>
<path fill-rule="evenodd" clip-rule="evenodd" d="M697 256C699.165 255.616 700.832 256.283 702 258C703.923 262.91 705.089 267.91 705.5 273C699.399 277.97 692.566 281.137 685 282.5C681.682 277.54 680.182 272.04 680.5 266C680.874 265.084 681.374 264.25 682 263.5C687.235 261.268 692.235 258.768 697 256Z" fill="#252525"/>
<path fill-rule="evenodd" clip-rule="evenodd" d="M753 266C756.35 266.151 758.016 267.985 758 271.5C757.857 273.651 756.857 275.318 755 276.5C742.575 282.212 730.242 288.212 718 294.5C716.556 295.281 715.223 295.114 714 294C712.141 290.932 712.141 288.098 714 285.5C727.309 279.512 740.309 273.012 753 266Z" fill="#241A2E"/>
<path fill-rule="evenodd" clip-rule="evenodd" d="M692 265C693.25 265.077 694.083 265.744 694.5 267C695.683 265.769 696.849 265.769 698 267C699.145 268.391 699.145 269.724 698 271C696.217 267.097 695.05 267.43 694.5 272C693.653 269.646 692.82 267.312 692 265Z" fill="#A5A5A6"/>
<path fill-rule="evenodd" clip-rule="evenodd" d="M689 267C691.792 267.892 693.125 269.892 693 273C691.212 273.285 689.545 272.952 688 272C688.809 270.429 689.143 268.762 689 267Z" fill="#AAAAAB"/>
<path fill-rule="evenodd" clip-rule="evenodd" d="M822 275C823.249 276.278 824.749 277.278 826.5 278C827.371 282.484 828.704 286.817 830.5 291C831.805 295.324 830.305 297.658 826 298C824.726 292.074 823.059 286.24 821 280.5C821.733 278.734 822.067 276.901 822 275Z" fill="#E96250"/>
<path fill-rule="evenodd" clip-rule="evenodd" d="M888 286C887.204 282.944 886.204 279.944 885 277C880.487 279.596 875.82 281.596 871 283C875.823 279.591 881.156 277.257 887 276C887.071 278.811 887.738 281.478 889 284C888.957 284.916 888.624 285.583 888 286Z" fill="#5B5B5B"/>
<path fill-rule="evenodd" clip-rule="evenodd" d="M888 286C879.5 290.97 870.833 295.803 862 300.5C859.89 301.054 857.89 301.888 856 303C853.722 302.719 852.555 301.385 852.5 299C850.695 300.82 848.528 301.986 846 302.5C846.556 302.883 846.889 303.383 847 304C845.321 304.215 844.321 303.548 844 302C846.552 300.807 849.052 299.473 851.5 298C851.181 295.757 851.348 293.59 852 291.5C858.163 288.386 864.497 285.552 871 283C875.82 281.596 880.487 279.596 885 277C886.204 279.944 887.204 282.944 888 286Z" fill="#262626"/>
<path fill-rule="evenodd" clip-rule="evenodd" d="M655 289C654.961 285.409 656.794 283.409 660.5 283C662.819 283.909 663.486 285.575 662.5 288C662.132 286.59 661.299 285.59 660 285C659.62 286.521 659.454 288.187 659.5 290C657.689 284.758 656.689 285.092 656.5 291C656.222 290.084 655.722 289.418 655 289Z" fill="#49494A"/>
<path fill-rule="evenodd" clip-rule="evenodd" d="M827 303C825.667 303 824.333 303 823 303C820.862 297.113 819.362 291.113 818.5 285C820.319 289.94 821.986 294.94 823.5 300C824.485 301.314 825.652 302.314 827 303Z" fill="#7A3930"/>
<path fill-rule="evenodd" clip-rule="evenodd" d="M655 289C655.324 292.18 653.99 293.347 651 292.5C652.905 291.674 653.239 290.507 652 289C650.367 290.244 649.367 289.744 649 287.5C649.871 285.731 651.204 285.064 653 285.5C650.726 287.508 651.393 288.675 655 289Z" fill="#4E4E4F"/>
<path fill-rule="evenodd" clip-rule="evenodd" d="M698 293C702.15 292.675 704.15 294.675 704 299C703.971 300.529 703.304 301.696 702 302.5C688.333 309 674.667 315.5 661 322C657.639 319.154 656.972 315.988 659 312.5C672.092 305.954 685.092 299.454 698 293Z" fill="#2A1725"/>
<path fill-rule="evenodd" clip-rule="evenodd" d="M823 303C824.333 303 825.667 303 827 303C827.039 304.083 827.373 305.083 828 306C826.647 307.024 825.98 308.357 826 310C825.667 310 825.333 310 825 310C824.291 309.096 823.291 308.763 822 309C822.079 307.57 821.746 306.236 821 305C821.743 304.318 822.409 303.651 823 303Z" fill="#D75C4B"/>
<path fill-rule="evenodd" clip-rule="evenodd" d="M839 303C839.806 304.497 840.472 306.164 841 308C840.152 309.909 839.818 311.909 840 314C839.124 314.131 838.457 313.798 838 313C836.687 310.095 836.187 307.095 836.5 304C837.171 303.248 838.004 302.914 839 303Z" fill="#31B060"/>
<path fill-rule="evenodd" clip-rule="evenodd" d="M844 302C844.321 303.548 845.321 304.215 847 304C848.662 309.321 850.329 314.654 852 320C851.189 320.716 850.522 321.55 850 322.5C850.648 323.94 850.981 325.44 851 327C849.707 325.658 848.874 323.991 848.5 322C848.167 322.333 847.833 322.667 847.5 323C846.026 319.744 844.86 316.411 844 313C843 313 842 313 841 313C841.592 310.373 841.925 307.706 842 305C842.667 304 843.333 303 844 302Z" fill="#37A554"/>
<path fill-rule="evenodd" clip-rule="evenodd" d="M825 310C825.333 310 825.667 310 826 310C826.734 311.378 827.401 312.878 828 314.5C826.322 314.388 824.655 313.888 823 313C822.333 313.333 821.667 313.667 821 314C821.876 314.751 822.876 315.251 824 315.5C822.527 316.21 821.86 317.376 822 319C819.41 318.449 818.744 317.116 820 315C818.45 312.225 816.117 311.059 813 311.5C813.88 312.856 814.214 314.356 814 316C813.109 314.209 812.109 312.376 811 310.5C813.269 309.742 815.436 309.909 817.5 311C817.808 310.192 818.308 309.525 819 309C820.103 310.604 821.603 311.604 823.5 312C824.53 311.664 825.03 310.997 825 310Z" fill="#6F3D27"/>
<path fill-rule="evenodd" clip-rule="evenodd" d="M555 314C557.579 313.894 559.912 314.561 562 316C566.791 333.041 571.791 350.041 577 367C576.892 367.942 576.559 368.775 576 369.5C572.334 370.771 569.834 369.604 568.5 366C563.463 349.891 558.63 333.724 554 317.5C554.148 316.244 554.482 315.077 555 314Z" fill="#BFC5CC"/>
<path fill-rule="evenodd" clip-rule="evenodd" d="M555 314C556.446 312.887 558.113 312.72 560 313.5C561.256 313.917 561.923 314.75 562 316C559.912 314.561 557.579 313.894 555 314Z" fill="#424344"/>
<path fill-rule="evenodd" clip-rule="evenodd" d="M555 314C554.482 315.077 554.148 316.244 554 317.5C558.63 333.724 563.463 349.891 568.5 366C569.834 369.604 572.334 370.771 576 369.5C576.559 368.775 576.892 367.942 577 367C571.791 350.041 566.791 333.041 562 316C567.753 331.634 572.92 347.634 577.5 364C579.039 368.24 577.706 370.907 573.5 372C571.518 371.51 569.851 370.51 568.5 369C562.557 352.226 557.39 335.226 553 318C553.085 316.167 553.752 314.834 555 314Z" fill="#4A4A4C"/>
<path fill-rule="evenodd" clip-rule="evenodd" d="M645 319C645.996 318.914 646.829 319.248 647.5 320C649.568 323.2 649.402 326.2 647 329C635.008 334.937 623.008 340.77 611 346.5C609.716 347.184 608.549 347.017 607.5 346C607.078 344.145 606.578 342.311 606 340.5C606.259 339.239 606.926 338.239 608 337.5C620.425 331.287 632.759 325.121 645 319Z" fill="#2D240F"/>
<path fill-rule="evenodd" clip-rule="evenodd" d="M814 316C814.904 316.709 815.237 317.709 815 319C816.322 318.83 817.489 319.163 818.5 320C825.072 340.782 831.572 361.616 838 382.5C837.55 383.785 836.883 384.952 836 386C836.928 387.268 837.095 388.601 836.5 390C835.826 387.983 834.659 386.317 833 385C829.214 373.13 825.214 361.464 821 350C820.943 348.891 820.61 347.891 820 347C817.991 338.479 815.658 329.979 813 321.5C813.733 319.734 814.067 317.901 814 316Z" fill="#E26151"/>
<path fill-rule="evenodd" clip-rule="evenodd" d="M822 319C825.024 324.608 826.858 330.608 827.5 337C824.963 331.222 823.13 325.222 822 319Z" fill="#73362E"/>
<path fill-rule="evenodd" clip-rule="evenodd" d="M842 305C841.925 307.706 841.592 310.373 841 313C841.31 327.343 841.477 341.343 841.5 355C840.112 356.054 838.612 356.22 837 355.5C834.934 353.804 833.434 351.971 832.5 350C834.809 351.475 836.976 353.142 839 355C840.165 346.353 840.332 337.686 839.5 329C838.892 330.566 838.058 331.9 837 333C839.377 326.916 840.377 320.582 840 314C839.818 311.909 840.152 309.909 841 308C840.472 306.164 839.806 304.497 839 303C838.677 299.274 839.011 295.607 840 292C841.61 296.392 842.277 300.725 842 305Z" fill="#223958"/>
<path fill-rule="evenodd" clip-rule="evenodd" d="M837 333C836.202 337.56 834.702 341.894 832.5 346C832.928 341.285 834.428 336.952 837 333Z" fill="#3A234F"/>
<path fill-rule="evenodd" clip-rule="evenodd" d="M807 351C807.823 352.955 807.99 354.955 807.5 357C806.201 356.534 804.701 356.534 803 357C802.667 357 802.333 357 802 357C801.152 350.786 799.485 344.786 797 339C798.439 336.947 800.439 335.947 803 336C804.333 341 805.667 346 807 351Z" fill="#30B05C"/>
<path fill-rule="evenodd" clip-rule="evenodd" d="M851 327C855.317 336.971 858.484 347.304 860.5 358C856.562 347.918 853.395 337.585 851 327Z" fill="#278244"/>
<path fill-rule="evenodd" clip-rule="evenodd" d="M820 347C820.61 347.891 820.943 348.891 821 350C819.893 352.469 817.893 353.469 815 353C815 354 815 355 815 356C810.377 357.092 808.544 355.425 809.5 351C809.922 349.074 811.089 348.074 813 348C813.984 353.3 814.984 353.3 816 348C817.236 347.254 818.57 346.921 820 347Z" fill="#30B059"/>
<path fill-rule="evenodd" clip-rule="evenodd" d="M793 364C792.096 364.709 791.763 365.709 792 367C791.667 367 791.333 367 791 367C787.065 367.564 785.732 369.564 787 373C787 373.667 787 374.333 787 375C783.432 375.259 782.099 377.259 783 381C780.733 375.953 779.066 370.62 778 365C776.376 365.14 775.21 364.473 774.5 363C773.915 364.629 773.081 366.129 772 367.5C773.109 369.547 773.776 371.713 774 374C771.495 375.241 769.995 374.241 769.5 371C768.905 372.399 769.072 373.732 770 375C767.963 376.102 766.63 375.435 766 373C765.222 372.344 764.556 371.511 764 370.5C765.513 368.621 766.179 366.454 766 364C772.229 362.513 778.563 361.346 785 360.5C787.406 358.878 789.239 356.711 790.5 354C791.852 357.22 792.686 360.553 793 364Z" fill="#181616"/>
<path fill-rule="evenodd" clip-rule="evenodd" d="M813 348C811.089 348.074 809.922 349.074 809.5 351C808.544 355.425 810.377 357.092 815 356C816.257 357.123 815.924 357.789 814 358C810.851 357.469 807.184 357.469 803 358C803 357.667 803 357.333 803 357C804.701 356.534 806.201 356.534 807.5 357C807.99 354.955 807.823 352.955 807 351C807.891 350.239 808.558 349.239 809 348C810.458 346.718 811.792 346.718 813 348Z" fill="#438171"/>
<path fill-rule="evenodd" clip-rule="evenodd" d="M814 358C814.131 358.739 813.964 359.406 813.5 360C812.317 358.769 811.151 358.769 810 360C813.028 364.431 813.195 368.764 810.5 373C809.489 372.163 808.322 371.83 807 372C806.37 368.452 805.37 365.119 804 362C803.667 360.667 803.333 359.333 803 358C807.184 357.469 810.851 357.469 814 358Z" fill="#30AF5B"/>
<path fill-rule="evenodd" clip-rule="evenodd" d="M819 358C819.802 356.615 820.469 356.782 821 358.5C822.361 361.23 822.861 364.063 822.5 367C821.473 363.838 820.306 360.838 819 358Z" fill="#226236"/>
<path fill-rule="evenodd" clip-rule="evenodd" d="M748 372C746.558 373.32 745.892 374.986 746 377C747.175 378.474 748.175 380.14 749 382C751.737 381.431 753.237 379.764 753.5 377C754.239 379.602 755.905 381.269 758.5 382C758.998 379.956 760.165 378.622 762 378C762.844 382.374 763.844 386.707 765 391C766.716 390.871 768.383 390.538 770 390C768.819 391.567 767.153 392.401 765 392.5C766.167 393.667 767.333 394.833 768.5 396C769.188 396.832 769.021 397.498 768 398C764.69 393.522 761.19 389.189 757.5 385C750.762 387.575 743.762 389.575 736.5 391C734.967 390.727 733.467 390.394 732 390C733.729 389.264 734.729 387.93 735 386C735.992 386.172 736.658 385.838 737 385C740.763 384.262 741.763 382.262 740 379C737.946 378.865 736.279 379.532 735 381C734.099 381.79 733.432 382.79 733 384C730.432 384.094 728.932 385.428 728.5 388C728.078 386.074 726.911 385.074 725 385C723.7 381.404 722.7 377.737 722 374C722.631 369.696 723.131 365.363 723.5 361C723.868 359.59 724.701 358.59 726 358C733.362 362.677 740.695 367.344 748 372Z" fill="#1B1C20"/>
<path fill-rule="evenodd" clip-rule="evenodd" d="M797 363C795.541 362.933 794.208 363.266 793 364C792.686 360.553 791.852 357.22 790.5 354C789.239 356.711 787.406 358.878 785 360.5C778.563 361.346 772.229 362.513 766 364C766.077 362.75 766.744 361.917 768 361.5C774.138 361.148 780.138 360.148 786 358.5C788.94 354.356 789.773 349.856 788.5 345C789.544 346.123 790.21 347.456 790.5 349C791.5 347.333 792.5 345.667 793.5 344C793.7 346.784 792.866 349.284 791 351.5C792.311 354.931 793.311 358.431 794 362C795.291 361.763 796.291 362.096 797 363Z" fill="#603C1F"/>
<path fill-rule="evenodd" clip-rule="evenodd" d="M802 357C802.333 357 802.667 357 803 357C803 357.333 803 357.667 803 358C803.333 359.333 803.667 360.667 804 362C803.141 365.614 803.141 369.281 804 373C802.573 371.352 801.74 369.352 801.5 367C800.75 366.374 799.916 365.874 799 365.5C800.017 364.451 800.184 363.284 799.5 362C798.846 363.196 798.346 363.196 798 362C798.654 360.385 799.154 358.718 799.5 357C800.205 359.486 801.038 359.486 802 357Z" fill="#573740"/>
<path fill-rule="evenodd" clip-rule="evenodd" d="M797 363C798.328 367.672 796.661 369.339 792 368C792 367.667 792 367.333 792 367C791.763 365.709 792.096 364.709 793 364C794.208 363.266 795.541 362.933 797 363Z" fill="#D45C58"/>
<path fill-rule="evenodd" clip-rule="evenodd" d="M766 364C766.179 366.454 765.513 368.621 764 370.5C764.556 371.511 765.222 372.344 766 373C764.301 372.973 762.967 372.306 762 371C761.562 371.065 761.228 370.899 761 370.5C763.039 368.574 764.706 366.407 766 364Z" fill="#50351B"/>
<path fill-rule="evenodd" clip-rule="evenodd" d="M791 367C791.125 370.108 789.792 372.108 787 373C785.732 369.564 787.065 367.564 791 367Z" fill="#30AD59"/>
<path fill-rule="evenodd" clip-rule="evenodd" d="M721 374C719.412 372.865 719.079 371.531 720 370C720.929 371.189 721.262 372.522 721 374Z" fill="#267C41"/>
<path fill-rule="evenodd" clip-rule="evenodd" d="M804 373C806.091 376.69 807.257 380.69 807.5 385C805.71 381.173 804.544 377.173 804 373Z" fill="#77372F"/>
<path fill-rule="evenodd" clip-rule="evenodd" d="M640 393C637.725 388.284 635.892 383.284 634.5 378C633.833 376.667 633.833 375.333 634.5 374C637.253 380.091 639.087 386.424 640 393Z" fill="#AB4B3E"/>
<path fill-rule="evenodd" clip-rule="evenodd" d="M787 375C787.057 376.109 787.39 377.109 788 378C788 378.667 788 379.333 788 380C788.469 382.893 787.469 384.893 785 386C784.476 384.194 783.809 382.528 783 381C782.099 377.259 783.432 375.259 787 375Z" fill="#30B159"/>
<path fill-rule="evenodd" clip-rule="evenodd" d="M762 371C762.967 372.306 764.301 372.973 766 373C766.63 375.435 767.963 376.102 770 375C769.072 373.732 768.905 372.399 769.5 371C769.995 374.241 771.495 375.241 774 374C775.275 376.108 775.775 378.442 775.5 381C774.5 377.86 772.333 376.527 769 377C769.003 382.092 768.17 382.092 766.5 377C765.144 377.88 763.644 378.214 762 378C760.165 378.622 758.998 379.956 758.5 382C755.905 381.269 754.239 379.602 753.5 377C753.237 379.764 751.737 381.431 749 382C748.175 380.14 747.175 378.474 746 377C745.892 374.986 746.558 373.32 748 372C751.566 372.159 755.233 371.492 759 370C758.722 371.846 759.389 373.18 761 374C761.886 373.175 762.219 372.175 762 371Z" fill="#CF5D5C"/>
<path fill-rule="evenodd" clip-rule="evenodd" d="M783 381C783.262 382.478 782.929 383.811 782 385C780.003 385.486 778.669 386.653 778 388.5C781.533 396.128 782.699 403.961 781.5 412C780.491 410.475 779.991 408.808 780 407C778.667 407 777.333 407 776 407C775.574 400.628 773.908 394.628 771 389C770.393 389.124 770.06 389.457 770 390C768.383 390.538 766.716 390.871 765 391C763.844 386.707 762.844 382.374 762 378C763.644 378.214 765.144 377.88 766.5 377C768.17 382.092 769.003 382.092 769 377C772.333 376.527 774.5 377.86 775.5 381C775.775 378.442 775.275 376.108 774 374C773.776 371.713 773.109 369.547 772 367.5C773.081 366.129 773.915 364.629 774.5 363C775.21 364.473 776.376 365.14 778 365C779.066 370.62 780.733 375.953 783 381Z" fill="#E3604F"/>
<path fill-rule="evenodd" clip-rule="evenodd" d="M746 377C745.767 378.562 745.1 379.895 744 381C740.365 380.844 740.032 379.678 743 377.5C743.948 377.017 744.948 376.851 746 377Z" fill="#2F9E54"/>
<path fill-rule="evenodd" clip-rule="evenodd" d="M582 381C586.531 398.123 591.531 415.123 597 432C595.778 434.478 593.778 435.478 591 435C590.378 433.873 589.545 432.873 588.5 432C582.564 414.586 577.731 396.919 574 379C577.013 378.607 579.68 379.274 582 381Z" fill="#BFC5CC"/>
<path fill-rule="evenodd" clip-rule="evenodd" d="M737 385C735.324 384.317 734.657 382.983 735 381C736.279 379.532 737.946 378.865 740 379C741.763 382.262 740.763 384.262 737 385Z" fill="#30AC58"/>
<path fill-rule="evenodd" clip-rule="evenodd" d="M721 374C721.333 374 721.667 374 722 374C722.7 377.737 723.7 381.404 725 385C724.333 385.333 723.667 385.667 723 386C722.124 382.038 721.458 378.038 721 374Z" fill="#23613C"/>
<path fill-rule="evenodd" clip-rule="evenodd" d="M788 380C788.839 381.141 789.506 382.474 790 384C788.184 385.529 787.517 387.196 788 389C787.667 389 787.333 389 787 389C786.718 387.722 786.051 386.722 785 386C787.469 384.893 788.469 382.893 788 380Z" fill="#2B8F67"/>
<path fill-rule="evenodd" clip-rule="evenodd" d="M582 381C579.68 379.274 577.013 378.607 574 379C577.731 396.919 582.564 414.586 588.5 432C589.545 432.873 590.378 433.873 591 435C589.483 434.989 588.316 434.323 587.5 433C582.232 416.03 577.066 399.03 572 382C573.454 377.048 576.454 375.881 581 378.5C581.752 379.171 582.086 380.004 582 381Z" fill="#4D4E50"/>
<path fill-rule="evenodd" clip-rule="evenodd" d="M582 381C587.997 397.497 593.33 414.33 598 431.5C597.107 435.765 594.774 436.932 591 435C593.778 435.478 595.778 434.478 597 432C591.531 415.123 586.531 398.123 582 381Z" fill="#494A4B"/>
<path fill-rule="evenodd" clip-rule="evenodd" d="M735 381C734.657 382.983 735.324 384.317 737 385C736.658 385.838 735.992 386.172 735 386C734.333 385.333 733.667 384.667 733 384C733.432 382.79 734.099 381.79 735 381Z" fill="#1F5831"/>
<path fill-rule="evenodd" clip-rule="evenodd" d="M744 381C745.271 382.609 746.271 384.442 747 386.5C746.667 386.667 746.333 386.833 746 387C744.732 385.196 744.065 383.196 744 381Z" fill="#25723F"/>
<path fill-rule="evenodd" clip-rule="evenodd" d="M617 380C620.957 382.428 623.457 385.762 624.5 390C621.252 387.143 618.752 383.81 617 380Z" fill="#4F3719"/>
<path fill-rule="evenodd" clip-rule="evenodd" d="M791 367C791.333 367 791.667 367 792 367C792 367.333 792 367.667 792 368C792.559 370.179 793.226 372.346 794 374.5C793.333 375.5 792.667 376.5 792 377.5C795.341 386.177 797.841 395.01 799.5 404C796.449 396.181 793.782 388.181 791.5 380C790.79 378.527 789.624 377.86 788 378C787.39 377.109 787.057 376.109 787 375C787 374.333 787 373.667 787 373C789.792 372.108 791.125 370.108 791 367Z" fill="#2C8A52"/>
<path fill-rule="evenodd" clip-rule="evenodd" d="M718 402C717.989 403.517 717.323 404.684 716 405.5C716.854 407.285 716.187 408.451 714 409C713.411 404.342 712.078 400.009 710 396C709.046 390.303 707.379 384.803 705 379.5C705.522 378.55 706.189 377.716 707 377C705.897 370.425 706.397 370.425 708.5 377C709.656 375.507 710.49 375.674 711 377.5C713.26 385.708 715.593 393.875 718 402Z" fill="#E56151"/>
<path fill-rule="evenodd" clip-rule="evenodd" d="M632 414C631.333 413.333 630.667 412.667 630 412C629.686 408.553 628.852 405.22 627.5 402C626.79 400.527 625.624 399.86 624 400C624.079 398.57 623.746 397.236 623 396C624.816 394.059 626.816 393.392 629 394C630.47 395.982 630.136 397.648 628 399C629.805 403.889 631.139 408.889 632 414Z" fill="#35A555"/>
<path fill-rule="evenodd" clip-rule="evenodd" d="M733 384C733.667 384.667 734.333 385.333 735 386C734.729 387.93 733.729 389.264 732 390C731.004 390.086 730.171 389.752 729.5 389C728.833 390.667 728.833 392.333 729.5 394C734.212 405.304 738.046 416.971 741 429C740.254 432.687 738.254 433.687 735 432C733.516 425.072 731.516 418.405 729 412C726.775 404.157 724.442 396.323 722 388.5C722.243 387.598 722.577 386.765 723 386C723.667 385.667 724.333 385.333 725 385C726.911 385.074 728.078 386.074 728.5 388C728.932 385.428 730.432 384.094 733 384Z" fill="#34AF59"/>
<path fill-rule="evenodd" clip-rule="evenodd" d="M787 389C787.333 389 787.667 389 788 389C786.609 396.341 785.109 403.674 783.5 411C783.328 403.357 784.495 396.024 787 389Z" fill="#102F46"/>
<path fill-rule="evenodd" clip-rule="evenodd" d="M710 396C708.989 397.872 708.155 399.872 707.5 402C706.79 400.527 705.624 399.86 704 400C704.622 396.724 706.622 395.391 710 396Z" fill="#418843"/>
<path fill-rule="evenodd" clip-rule="evenodd" d="M795 17C718.091 53.4521 641.091 89.952 564 126.5C541.843 142.656 532.01 164.489 534.5 192C607.018 435.745 679.685 679.412 752.5 923C757.214 932.879 764.381 940.213 774 945C773.333 945 773 945.333 773 946C759.055 939.827 750.555 929.16 747.5 914C678.141 680.564 608.475 447.23 538.5 214C535.87 205.48 533.87 196.814 532.5 188C531.721 180.57 532.221 173.237 534 166C538.53 149.083 547.863 135.583 562 125.5C638.848 89.2413 715.515 52.7413 792 16C792.06 15.4569 792.393 15.1236 793 15C793.682 15.7427 794.349 16.4094 795 17Z" fill="#272728"/>
<path fill-rule="evenodd" clip-rule="evenodd" d="M698 399C698 400 698 401 698 402C679.381 399.665 679.381 398.665 698 399Z" fill="#4A3A19"/>
<path fill-rule="evenodd" clip-rule="evenodd" d="M683 404C681.6 404.6 680.6 405.6 680 407C679.333 407.333 678.667 407.667 678 408C676.814 404.246 675.814 400.413 675 396.5C675.456 393.392 675.622 390.225 675.5 387C676.313 388.936 676.813 390.936 677 393C678.322 392.83 679.489 393.163 680.5 394C681.443 397.324 682.276 400.657 683 404Z" fill="#E05F4E"/>
<path fill-rule="evenodd" clip-rule="evenodd" d="M704 400C703.469 403.279 701.469 404.613 698 404C698 403.333 698 402.667 698 402C698 401 698 400 698 399C700.331 397.505 702.331 397.838 704 400Z" fill="#4AA44F"/>
<path fill-rule="evenodd" clip-rule="evenodd" d="M683 404C683.904 404.709 684.237 405.709 684 407C682.667 407 681.333 407 680 407C680.6 405.6 681.6 404.6 683 404Z" fill="#A5656E"/>
<path fill-rule="evenodd" clip-rule="evenodd" d="M698 404C698.224 406.287 698.891 408.453 700 410.5C699.15 414.651 697.317 415.485 694.5 413C693.765 410.629 692.932 408.295 692 406C693.843 404.04 695.843 403.373 698 404Z" fill="#2FAC57"/>
<path fill-rule="evenodd" clip-rule="evenodd" d="M640 393C641.1 394.777 641.934 396.777 642.5 399C643.171 398.248 644.004 397.914 645 398C645.019 399.56 645.352 401.06 646 402.5C644.21 404.234 642.21 405.734 640 407C641.145 408.391 641.145 409.724 640 411C635.87 412.691 634.037 411.358 634.5 407C636.326 405.426 638.493 404.593 641 404.5C640.333 403.5 639.667 402.5 639 401.5C640.074 400.761 640.741 399.761 641 398.5C640.267 396.734 639.933 394.901 640 393Z" fill="#D85D4D"/>
<path fill-rule="evenodd" clip-rule="evenodd" d="M680 407C681.333 407 682.667 407 684 407C685.731 411.194 687.064 415.527 688 420C684.774 423.885 682.607 423.552 681.5 419C680.855 420.146 680.022 421.146 679 422C680.208 425.622 681.208 429.289 682 433C682 433.667 681.667 434 681 434C680.146 429.917 678.979 425.917 677.5 422C676.829 422.752 675.996 423.086 675 423C675 422.667 675 422.333 675 422C675.592 418.809 676.759 415.809 678.5 413C678.971 414.746 679.638 416.413 680.5 418C681.037 415.313 680.537 412.813 679 410.5C679.837 409.489 680.17 408.322 680 407Z" fill="#E15F4E"/>
<path fill-rule="evenodd" clip-rule="evenodd" d="M720 407C721.145 409.573 721.645 412.239 721.5 415C718.942 417.862 717.109 417.529 716 414C715.96 411.075 716.793 408.409 718.5 406C718.883 406.556 719.383 406.889 720 407Z" fill="#EC6351"/>
<path fill-rule="evenodd" clip-rule="evenodd" d="M680 407C680.17 408.322 679.837 409.489 679 410.5C680.537 412.813 681.037 415.313 680.5 418C679.638 416.413 678.971 414.746 678.5 413C676.759 415.809 675.592 418.809 675 422C673.576 419.985 672.91 417.652 673 415C673.768 415.763 674.268 416.763 674.5 418C675.385 415.5 676.552 413.167 678 411C676.692 409.874 675.358 409.874 674 411C674.948 409.522 676.281 408.522 678 408C678.667 407.667 679.333 407.333 680 407Z" fill="#613E43"/>
<path fill-rule="evenodd" clip-rule="evenodd" d="M729 412C731.516 418.405 733.516 425.072 735 432C737.547 438.748 738.88 445.581 739 452.5C738.667 452.667 738.333 452.833 738 453C736.925 450.598 735.758 448.264 734.5 446C734.086 446.457 733.586 446.791 733 447C729.936 436.642 726.77 426.309 723.5 416C723.622 412.775 723.456 409.608 723 406.5C723.111 404.778 723.611 404.612 724.5 406C724.983 406.948 725.149 407.948 725 409C726 409 727 409 728 409C727.763 410.291 728.096 411.291 729 412Z" fill="#DD5E4D"/>
<path fill-rule="evenodd" clip-rule="evenodd" d="M673 415C672.732 413.401 673.066 412.068 674 411C675.358 409.874 676.692 409.874 678 411C676.552 413.167 675.385 415.5 674.5 418C674.268 416.763 673.768 415.763 673 415Z" fill="#E56151"/>
<path fill-rule="evenodd" clip-rule="evenodd" d="M718 402C719.037 403.43 719.704 405.097 720 407C719.383 406.889 718.883 406.556 718.5 406C716.793 408.409 715.96 411.075 716 414C715.191 412.472 714.524 410.806 714 409C716.187 408.451 716.854 407.285 716 405.5C717.323 404.684 717.989 403.517 718 402Z" fill="#A9626D"/>
<path fill-rule="evenodd" clip-rule="evenodd" d="M651 415C653.669 417.499 656.502 419.832 659.5 422C659.622 420.331 659.288 418.665 658.5 417C658.167 417.667 657.833 418.333 657.5 419C655.13 416.461 652.63 414.128 650 412C648.626 407.137 646.96 402.471 645 398C645.892 395.208 647.892 393.875 651 394C652.976 401.368 655.142 408.701 657.5 416C658.657 413.006 660.824 411.34 664 411C663.962 414.307 664.628 417.474 666 420.5C664.556 422.534 662.556 423.368 660 423C661.602 426.202 661.268 429.202 659 432C657.764 431.254 656.43 430.921 655 431C653.981 425.589 652.647 420.256 651 415Z" fill="#32AE58"/>
<path fill-rule="evenodd" clip-rule="evenodd" d="M650 412C652.63 414.128 655.13 416.461 657.5 419C657.833 418.333 658.167 417.667 658.5 417C659.288 418.665 659.622 420.331 659.5 422C656.502 419.832 653.669 417.499 651 415C650.39 414.109 650.057 413.109 650 412Z" fill="#289374"/>
<path fill-rule="evenodd" clip-rule="evenodd" d="M696 424C694.722 424.282 693.722 424.949 693 426C689.344 422.697 688.511 418.697 690.5 414C694.651 415.963 696.485 419.297 696 424Z" fill="#E3614F"/>
<path fill-rule="evenodd" clip-rule="evenodd" d="M673 415C672.91 417.652 673.576 419.985 675 422C675 422.333 675 422.667 675 423C674.779 424.235 674.112 425.235 673 426C673.209 426.586 673.543 427.086 674 427.5C672.756 427.956 671.923 427.456 671.5 426C671.086 426.457 670.586 426.791 670 427C669.063 423.82 668.063 420.653 667 417.5C668.444 415.466 670.444 414.632 673 415Z" fill="#30AB5B"/>
<path fill-rule="evenodd" clip-rule="evenodd" d="M630 412C630.667 412.667 631.333 413.333 632 414C635.909 421.759 640.076 429.426 644.5 437C647.057 438.689 649.891 439.856 653 440.5C650.197 441.255 647.53 440.922 645 439.5C639.833 431 634.667 422.5 629.5 414C628.808 413.063 628.975 412.397 630 412Z" fill="#412758"/>
<path fill-rule="evenodd" clip-rule="evenodd" d="M720 418C723.134 423.572 724.968 429.572 725.5 436C722.736 430.275 720.902 424.275 720 418Z" fill="#A3483C"/>
<path fill-rule="evenodd" clip-rule="evenodd" d="M884 432C885.322 431.83 886.489 432.163 887.5 433C888.179 436.05 889.012 439.05 890 442C888.467 444.138 886.634 444.805 884.5 444C883.511 441.044 882.678 438.044 882 435C882.442 433.761 883.109 432.761 884 432Z" fill="#206034"/>
<path fill-rule="evenodd" clip-rule="evenodd" d="M682 435C682.333 435 682.667 435 683 435C685.971 441.739 687.804 448.739 688.5 456C685.867 449.132 683.7 442.132 682 435Z" fill="#9E463A"/>
<path fill-rule="evenodd" clip-rule="evenodd" d="M877 443C877.538 444.617 877.871 446.284 878 448C874.87 450.174 871.537 452.174 868 454C867.317 453.637 866.65 453.304 866 453C865.492 450.324 865.325 447.657 865.5 445C866.5 444.333 867.5 443.667 868.5 443C867.958 438.555 869.791 436.388 874 436.5C875.231 438.666 876.231 440.833 877 443Z" fill="#77372F"/>
<path fill-rule="evenodd" clip-rule="evenodd" d="M866 453C866 454 866 455 866 456C864.04 456.638 862.207 456.638 860.5 456C860.017 456.948 859.851 457.948 860 459C857.888 459.775 855.888 459.775 854 459C853.266 457.792 852.933 456.459 853 455C851.535 449.939 849.868 444.939 848 440C849.501 438.748 851.168 437.748 853 437C854.464 439.503 855.631 442.17 856.5 445C857.256 441.708 859.089 440.708 862 442C862.593 446.037 863.926 449.704 866 453Z" fill="#7B3930"/>
<path fill-rule="evenodd" clip-rule="evenodd" d="M683 435C682.667 435 682.333 435 682 435C677.695 437.823 673.362 440.656 669 443.5C663.843 444.03 658.843 443.363 654 441.5C658.711 441.515 663.378 441.848 668 442.5C672.216 439.444 676.549 436.611 681 434C681.667 434 682 433.667 682 433C685.939 431.054 689.606 428.721 693 426C693.722 424.949 694.722 424.282 696 424C699.464 421.038 702.797 417.871 706 414.5C706.667 413.833 707.333 413.833 708 414.5C700.739 422.776 692.405 429.61 683 435Z" fill="#3D2552"/>
<path fill-rule="evenodd" clip-rule="evenodd" d="M878 448C877.871 446.284 877.538 444.617 877 443C877.246 440.03 878.912 438.697 882 439C882.949 441.708 882.949 444.374 882 447C880.764 447.746 879.43 448.079 878 448Z" fill="#206035"/>
<path fill-rule="evenodd" clip-rule="evenodd" d="M853 455C852.933 456.459 853.266 457.792 854 459C854.042 461.349 852.875 462.682 850.5 463C848.729 462.153 847.563 460.82 847 459C847.418 455.131 849.418 453.798 853 455Z" fill="#205D33"/>
<path fill-rule="evenodd" clip-rule="evenodd" d="M589 463C624.869 585.479 661.203 707.812 698 830C697.667 830.333 697.333 830.667 697 831C692.307 828.653 687.64 826.32 683 824C659.464 811.399 635.797 799.065 612 787C608.727 784.356 605.06 782.189 601 780.5C593.567 775.453 588.733 768.62 586.5 760C586 716.001 585.833 672.001 586 628C585.833 571.332 586 514.666 586.5 458C587.257 459.815 588.09 461.481 589 463Z" fill="#C1C7CE"/>
<path fill-rule="evenodd" clip-rule="evenodd" d="M847 459C846.857 460.762 847.191 462.429 848 464C844.435 466.96 840.435 468.96 836 470C836 469.333 836 468.667 836 468C835.914 467.004 836.248 466.171 837 465.5C838.721 464.761 840.387 463.927 842 463C840.309 459.76 841.309 457.76 845 457C845.682 457.743 846.349 458.409 847 459Z" fill="#205D33"/>
<path fill-rule="evenodd" clip-rule="evenodd" d="M836 468C836 468.667 836 469.333 836 470C834.652 471.101 833.152 472.101 831.5 473C830.258 469.536 829.091 466.036 828 462.5C829.138 460.455 830.805 459.788 833 460.5C834.087 463.067 835.087 465.567 836 468Z" fill="#7E3931"/>
<path fill-rule="evenodd" clip-rule="evenodd" d="M811 477C811.538 478.617 811.871 480.284 812 482C809.072 484.903 805.572 487.236 801.5 489C798.952 480.903 796.119 472.903 793 465C794.501 463.748 796.168 462.748 798 462C800.052 464.988 801.219 468.321 801.5 472C801.833 472.333 802.167 472.667 802.5 473C803.941 471.63 805.608 470.63 807.5 470C808.521 472.47 809.688 474.804 811 477Z" fill="#7A3830"/>
<path fill-rule="evenodd" clip-rule="evenodd" d="M812 482C811.871 480.284 811.538 478.617 811 477C811.585 474.578 813.085 472.911 815.5 472C813.586 466.838 815.419 464.172 821 464C821.982 467.977 822.982 471.977 824 476C820.721 479.323 816.721 481.323 812 482Z" fill="#205D33"/>
<path fill-rule="evenodd" clip-rule="evenodd" d="M825 469C826.333 469 827.667 469 829 469C828.921 470.43 829.254 471.764 830 473C824.919 476.944 823.253 475.611 825 469Z" fill="#7C3931"/>
<path fill-rule="evenodd" clip-rule="evenodd" d="M794 483C795.333 483 796.667 483 798 483C798.086 485.177 798.753 487.177 800 489C798.586 490.124 797.086 491.124 795.5 492C793.569 489.103 793.069 486.103 794 483Z" fill="#7D3931"/>
<path fill-rule="evenodd" clip-rule="evenodd" d="M782 498C782 497.667 782 497.333 782 497C781.338 494.352 780.671 491.685 780 489C783.249 484.789 785.416 485.456 786.5 491C786.861 488.063 786.361 485.23 785 482.5C786.236 480.252 787.903 479.752 790 481C791.302 484.072 792.302 487.238 793 490.5C793.061 492.211 792.394 493.544 791 494.5C787.938 495.705 784.938 496.872 782 498Z" fill="#7D3931"/>
<path fill-rule="evenodd" clip-rule="evenodd" d="M744 498C744.996 497.914 745.829 498.248 746.5 499C747.904 504.708 749.404 510.375 751 516C749.57 515.921 748.236 516.254 747 517C744.616 512.188 742.616 507.188 741 502C741.287 500.057 742.287 498.723 744 498Z" fill="#7D3931"/>
<path fill-rule="evenodd" clip-rule="evenodd" d="M879 498C883.568 497.583 885.068 499.583 883.5 504C880.647 506.667 878.813 506 878 502C878.123 500.575 878.457 499.242 879 498Z" fill="#424343"/>
<path fill-rule="evenodd" clip-rule="evenodd" d="M953 499C954.613 499.444 955.78 500.444 956.5 502C958.361 506.891 959.361 511.891 959.5 517C946.157 525.173 932.49 532.84 918.5 540C914.691 534.239 912.691 527.906 912.5 521C926.142 513.765 939.642 506.432 953 499Z" fill="#1A1A1A"/>
<path fill-rule="evenodd" clip-rule="evenodd" d="M874 498C874.739 497.869 875.406 498.036 876 498.5C876.071 501.643 876.071 504.809 876 508C875.147 505.565 874.147 503.231 873 501C873.185 499.916 873.518 498.916 874 498Z" fill="#575859"/>
<path fill-rule="evenodd" clip-rule="evenodd" d="M782 497C782 497.333 782 497.667 782 498C776.768 502.205 770.934 505.538 764.5 508C764.222 507.084 763.722 506.418 763 506C762.377 501.54 764.043 499.874 768 501C768.5 502 769 503 769.5 504C772.773 501.601 775.94 499.101 779 496.5C780.077 496.03 781.077 496.197 782 497Z" fill="#1E532F"/>
<path fill-rule="evenodd" clip-rule="evenodd" d="M757 508C757 508.333 757 508.667 757 509C757.184 511.821 755.851 513.488 753 514C751.474 511.749 750.474 509.249 750 506.5C750.5 504.667 751.667 503.5 753.5 503C755.123 504.421 756.29 506.088 757 508Z" fill="#7A3830"/>
<path fill-rule="evenodd" clip-rule="evenodd" d="M869 505C869.755 503.034 870.921 502.7 872.5 504C873.705 506.034 873.872 508.034 873 510C872.219 508.771 871.719 507.438 871.5 506C870.829 505.248 869.996 504.914 869 505Z" fill="#535354"/>
<path fill-rule="evenodd" clip-rule="evenodd" d="M763 506C763.184 508.821 761.851 510.488 759 511C758.318 510.257 757.651 509.591 757 509C757 508.667 757 508.333 757 508C757.882 506.116 759.382 504.783 761.5 504C761.778 504.916 762.278 505.582 763 506Z" fill="#205E34"/>
<path fill-rule="evenodd" clip-rule="evenodd" d="M718 522C718.459 525.377 719.126 528.711 720 532C718.169 532.552 716.503 532.552 715 532C713.068 526.704 711.235 521.371 709.5 516C710.12 521.383 711.287 526.716 713 532C712.947 535.206 711.28 536.873 708 537C708 536.667 708 536.333 708 536C705.316 525.937 702.316 515.937 699 506C700.982 502.925 703.149 502.591 705.5 505C706.313 506.936 706.813 508.936 707 511C709.327 511.253 711.327 510.586 713 509C713.333 509.333 713.667 509.667 714 510C714.764 514.293 716.097 518.293 718 522Z" fill="#7E3A31"/>
<path fill-rule="evenodd" clip-rule="evenodd" d="M739 510C740.322 509.83 741.489 510.163 742.5 511C743.235 513.371 744.068 515.705 745 518C743.196 519.268 741.196 519.935 739 520C739.222 517.11 738.555 514.443 737 512C737.743 511.318 738.409 510.651 739 510Z" fill="#216135"/>
<path fill-rule="evenodd" clip-rule="evenodd" d="M869 505C868.747 507.327 869.414 509.327 871 511C869.764 511.857 868.431 512.523 867 513C864.644 510.289 863.977 507.289 865 504C865.781 505.229 866.281 506.562 866.5 508C866.736 506.381 867.569 505.381 869 505Z" fill="#3F3F40"/>
<path fill-rule="evenodd" clip-rule="evenodd" d="M960.5 520.5C962.811 521.961 962.811 523.794 960.5 526C957.51 526.847 956.176 525.68 956.5 522.5C958.38 522.771 959.713 522.104 960.5 520.5Z" fill="#7C7E80"/>
<path fill-rule="evenodd" clip-rule="evenodd" d="M718 522C717.649 519.631 717.482 517.297 717.5 515C718.837 513.735 720.337 513.235 722 513.5C723.933 518.183 725.1 523.016 725.5 528C724.259 529.921 722.759 530.254 721 529C720.442 526.373 719.442 524.04 718 522Z" fill="#7D3931"/>
<path fill-rule="evenodd" clip-rule="evenodd" d="M735 515C739.279 518.475 738.946 521.475 734 524C731.159 520.377 731.492 517.377 735 515Z" fill="#206135"/>
<path fill-rule="evenodd" clip-rule="evenodd" d="M728 519C729 519 730 519 731 519C733.141 522.916 732.141 525.583 728 527C725.494 524.224 725.494 521.558 728 519Z" fill="#206034"/>
<path fill-rule="evenodd" clip-rule="evenodd" d="M839 517C839.651 517.591 840.318 518.257 841 519C842.236 518.254 843.57 517.921 845 518C845.514 520.012 845.68 522.012 845.5 524C844.577 522.741 843.743 521.408 843 520C841.819 521.635 841.819 523.302 843 525C842.064 526.474 840.73 527.474 839 528C837.933 525.941 836.6 524.108 835 522.5C835.808 520.794 837.141 519.961 839 520C839 519 839 518 839 517Z" fill="#3A3A3B"/>
<path fill-rule="evenodd" clip-rule="evenodd" d="M831 524C833.761 523.415 835.427 524.415 836 527C833.461 536.095 831.461 536.095 830 527C830.185 525.916 830.518 524.916 831 524Z" fill="#444445"/>
<path fill-rule="evenodd" clip-rule="evenodd" d="M825 527C826.333 527 827.667 527 829 527C829.17 528.322 828.837 529.489 828 530.5C830.368 532.235 829.868 533.402 826.5 534C823.787 532.282 823.287 529.948 825 527Z" fill="#515253"/>
<path fill-rule="evenodd" clip-rule="evenodd" d="M818 528C823.16 529.18 824.327 532.18 821.5 537C820.5 537.667 819.5 538.333 818.5 539C815.832 535.275 815.666 531.608 818 528Z" fill="#565657"/>
<path fill-rule="evenodd" clip-rule="evenodd" d="M818 530C818.996 529.914 819.829 530.248 820.5 531C821.298 532.759 821.131 534.426 820 536C818.414 534.327 817.747 532.327 818 530Z" fill="#151515"/>
<path fill-rule="evenodd" clip-rule="evenodd" d="M675 546C675.801 547.542 676.134 549.208 676 551C675.73 554.706 673.897 556.039 670.5 555C669.604 549.978 668.104 545.145 666 540.5C667.186 538.069 669.186 536.903 672 537C672.028 540.416 673.028 543.416 675 546Z" fill="#205F34"/>
<path fill-rule="evenodd" clip-rule="evenodd" d="M708 536C708 536.333 708 536.667 708 537C701.801 540.599 695.468 543.933 689 547C689 546 689 545 689 544C692.886 542.458 696.552 540.458 700 538C700.586 538.209 701.086 538.543 701.5 539C703.493 537.586 705.66 536.586 708 536Z" fill="#1F5831"/>
<path fill-rule="evenodd" clip-rule="evenodd" d="M689 544C689 545 689 546 689 547C685.555 549.226 681.889 551.226 678 553C677.318 552.257 676.651 551.591 676 551C676.134 549.208 675.801 547.542 675 546C676.437 544.775 678.104 543.775 680 543C680.685 540.719 680.851 538.386 680.5 536C682.084 534.639 683.918 533.972 686 534C686.257 537.671 687.257 541.005 689 544Z" fill="#76372F"/>
<path fill-rule="evenodd" clip-rule="evenodd" d="M794 543C797.956 543.553 797.956 544.386 794 545.5C795.293 545.99 796.627 546.157 798 546C798.243 550.026 796.577 551.359 793 550C796.874 548.498 796.541 547.831 792 548C791.892 545.986 792.558 544.32 794 543Z" fill="#4B4B4C"/>
<path fill-rule="evenodd" clip-rule="evenodd" d="M787 547C788.333 547 789.667 547 791 547C791.363 549.411 790.363 550.911 788 551.5C789.249 553.324 790.415 553.157 791.5 551C792.038 552.973 791.204 553.973 789 554C786.008 552.367 785.341 550.033 787 547Z" fill="#515152"/>
<path fill-rule="evenodd" clip-rule="evenodd" d="M782 547C782.876 546.869 783.543 547.202 784 548C784.743 550.138 785.41 552.304 786 554.5C780.987 559.525 779.154 558.358 780.5 551C781.25 550.374 782.084 549.874 783 549.5C782.248 548.829 781.914 547.996 782 547Z" fill="#494949"/>
<path fill-rule="evenodd" clip-rule="evenodd" d="M775 553C776.175 552.781 777.175 553.114 778 554C781.375 558.788 780.041 561.122 774 561C774.262 559.522 773.929 558.189 773 557C772.454 564.32 771.12 564.653 769 558C770.784 555.983 772.784 554.316 775 553Z" fill="#444545"/>
<path fill-rule="evenodd" clip-rule="evenodd" d="M766 555C766.876 554.869 767.543 555.202 768 556C767.189 556.716 766.522 557.55 766 558.5C767.735 560.902 768.068 563.402 767 566C765.876 564.131 765.043 562.131 764.5 560C763.75 559.374 762.916 558.874 762 558.5C763.593 557.551 764.926 556.385 766 555Z" fill="#575858"/>
<path fill-rule="evenodd" clip-rule="evenodd" d="M733 575C736.643 575.882 737.81 578.216 736.5 582C734.478 583.491 732.812 583.158 731.5 581C731.703 585.137 729.87 586.637 726 585.5C723.744 580.239 725.244 578.406 730.5 580C730.866 578.048 731.699 576.382 733 575Z" fill="#ACADAE"/>
<path fill-rule="evenodd" clip-rule="evenodd" d="M737 571C738.29 571.558 739.123 572.558 739.5 574C739.808 573.192 740.308 572.525 741 572C741.634 574.067 742.634 575.9 744 577.5C742.951 577.992 741.951 577.826 741 577C740.249 577.876 739.749 578.876 739.5 580C737.951 577.188 737.118 574.188 737 571Z" fill="#C7C7C8"/>
<path fill-rule="evenodd" clip-rule="evenodd" d="M733 577C735.412 577.194 736.412 578.527 736 581C735 581 734 581 733 581C733 579.667 733 578.333 733 577Z" fill="#262727"/>
<path fill-rule="evenodd" clip-rule="evenodd" d="M727 581C728.086 581.12 728.753 581.787 729 583C728.667 583.667 728.333 584.333 728 585C727.071 583.811 726.738 582.478 727 581Z" fill="#1E1D1E"/>
<path fill-rule="evenodd" clip-rule="evenodd" d="M713 586C713.137 588.538 713.137 591.205 713 594C710.434 591.237 710.434 588.57 713 586Z" fill="#AFB0B1"/>
<path fill-rule="evenodd" clip-rule="evenodd" d="M717 581C719.079 581.981 721.246 582.981 723.5 584C724.816 587.628 723.649 589.961 720 591C718.593 587.779 717.593 584.445 717 581Z" fill="#B7B8B9"/>
<path fill-rule="evenodd" clip-rule="evenodd" d="M720 584C722.412 584.194 723.412 585.527 723 588C722 588 721 588 720 588C720 586.667 720 585.333 720 584Z" fill="#272627"/>
<path fill-rule="evenodd" clip-rule="evenodd" d="M701 590C702.883 592.263 704.216 594.93 705 598C701.34 602.343 699.006 601.676 698 596C699.876 594.452 700.876 592.452 701 590Z" fill="#AFB0B1"/>
<path fill-rule="evenodd" clip-rule="evenodd" d="M700 595C703.361 595.703 703.694 597.037 701 599C700.071 597.811 699.738 596.478 700 595Z" fill="#212121"/>
<path fill-rule="evenodd" clip-rule="evenodd" d="M706 590C707.333 590 708.667 590 710 590C709.939 592.092 708.939 593.592 707 594.5C708.585 594.585 709.918 594.751 711 595C709.534 597.157 707.7 597.49 705.5 596C704.822 593.902 704.989 591.902 706 590Z" fill="#B3B4B4"/>
<path fill-rule="evenodd" clip-rule="evenodd" d="M696 595C696.137 597.538 696.137 600.205 696 603C695.308 602.475 694.808 601.808 694.5 601C693.73 604.79 691.563 606.623 688 606.5C686.022 604.003 685.522 601.169 686.5 598C689.729 595.103 692.063 595.77 693.5 600C693.835 597.997 694.668 596.33 696 595Z" fill="#BBBCBD"/>
<path fill-rule="evenodd" clip-rule="evenodd" d="M688 598C691.444 598.545 692.611 600.545 691.5 604C689.913 605.227 688.579 604.894 687.5 603C686.86 601.235 687.027 599.568 688 598Z" fill="#2A2A2A"/>
<path fill-rule="evenodd" clip-rule="evenodd" d="M884 600C887.388 600.374 889.222 602.374 889.5 606C890.444 608.847 889.944 611.347 888 613.5C877.091 619.69 866.091 625.69 855 631.5C853.366 631.994 851.699 632.16 850 632C849.339 629.012 848.672 626.012 848 623C847.89 621.126 848.556 619.626 850 618.5C861.523 612.574 872.857 606.407 884 600Z" fill="#4C2822"/>
<path fill-rule="evenodd" clip-rule="evenodd" d="M889 712C885.154 713.655 881.654 715.988 878.5 719C878.01 720.293 877.843 721.627 878 723C876.2 717.483 874.533 711.816 873 706C874.699 706.16 876.366 705.994 878 705.5C889 699.333 900 693.167 911 687C913.525 682.73 913.192 678.563 910 674.5C908.333 673.833 906.667 673.833 905 674.5C893.37 680.984 881.703 687.484 870 694C867.766 689.978 866.099 685.644 865 681C866.238 681.912 867.572 682.079 869 681.5C879.787 675.032 890.787 669.032 902 663.5C905.21 660.219 905.877 656.386 904 652C903.421 650.039 902.087 649.039 900 649C887.59 654.706 875.59 661.206 864 668.5C863.094 670.199 862.761 672.033 863 674C860.888 668.568 859.221 662.902 858 657C862.701 655.816 867.034 653.816 871 651C870.747 653.327 871.414 655.327 873 657C908.04 637.466 943.206 618.133 978.5 599C978.95 601.019 979.783 602.852 981 604.5C967.833 611.667 954.667 618.833 941.5 626C941 627 940.5 628 940 629C941.134 631.57 941.968 634.236 942.5 637C943.019 638.016 943.853 638.682 945 639C958.21 631.81 971.377 624.477 984.5 617C985.845 619.33 986.012 621.663 985 624C967.764 633.783 950.43 643.283 933 652.5C931.926 653.239 931.259 654.239 931 655.5C932.871 662.986 935.205 670.32 938 677.5C921.721 687.646 905.055 697.313 888 706.5C886.52 708.735 886.853 710.568 889 712Z" fill="#231816"/>
<path fill-rule="evenodd" clip-rule="evenodd" d="M769 606C770 606 771 606 772 606C772.14 607.624 771.473 608.79 770 609.5C772.145 610.243 772.311 611.076 770.5 612C768.035 610.446 767.535 608.446 769 606Z" fill="#5A5A5B"/>
<path fill-rule="evenodd" clip-rule="evenodd" d="M726 600C727 600 728 600 729 600C729.262 601.478 728.929 602.811 728 604C722.391 606.973 716.724 609.64 711 612C710.797 610.11 711.463 608.61 713 607.5C717.723 605.478 722.057 602.978 726 600Z" fill="#2FAF58"/>
<path fill-rule="evenodd" clip-rule="evenodd" d="M752 612C753.322 611.83 754.489 612.163 755.5 613C758.503 619.517 756.337 622.851 749 623C746.864 618.295 747.864 614.629 752 612Z" fill="#E5614F"/>
<path fill-rule="evenodd" clip-rule="evenodd" d="M763 607C764.373 606.843 765.707 607.01 767 607.5C765.456 607.79 764.123 608.456 763 609.5C768.814 610.258 769.314 612.092 764.5 615C764 614.667 763.5 614.333 763 614C763.876 613.249 764.876 612.749 766 612.5C762.25 612.058 761.25 610.224 763 607Z" fill="#535354"/>
<path fill-rule="evenodd" clip-rule="evenodd" d="M839 624C840.699 623.84 842.366 624.006 844 624.5C844.586 626.78 845.42 628.947 846.5 631C847.246 634.289 846.08 636.789 843 638.5C831.948 643.861 820.948 649.527 810 655.5C808.388 656.22 806.888 656.054 805.5 655C804.869 652.107 804.036 649.274 803 646.5C803.601 644.895 804.601 643.562 806 642.5C817.153 636.412 828.153 630.246 839 624Z" fill="#1A3D25"/>
<path fill-rule="evenodd" clip-rule="evenodd" d="M871 651C867.034 653.816 862.701 655.816 858 657C856.708 653.956 855.708 650.79 855 647.5C854.939 645.789 855.606 644.456 857 643.5C869.128 637.269 881.128 630.769 893 624C897.444 627.443 898.611 631.776 896.5 637C888.085 641.792 879.585 646.458 871 651Z" fill="#4C2822"/>
<path fill-rule="evenodd" clip-rule="evenodd" d="M723 632C723.689 630.726 724.523 630.726 725.5 632C725.833 631 726.167 630 726.5 629C727.321 632.054 727.155 635.054 726 638C725.751 636.918 725.585 635.585 725.5 634C724.792 633.119 723.958 632.453 723 632Z" fill="#616162"/>
<path fill-rule="evenodd" clip-rule="evenodd" d="M723 632C723.315 633.726 723.481 635.393 723.5 637C720.449 637.593 717.783 638.927 715.5 641C710.718 636.891 711.218 634.225 717 633C717.442 637.347 718.275 637.68 719.5 634C719.749 635.124 720.249 636.124 721 637C721.67 635.209 722.337 633.542 723 632Z" fill="#515152"/>
<path fill-rule="evenodd" clip-rule="evenodd" d="M702 639C703.333 639 704.667 639 706 639C706.508 641.676 706.675 644.343 706.5 647C701.251 651.793 698.417 650.626 698 643.5C698.667 641.349 700 639.849 702 639Z" fill="#30B259"/>
<path fill-rule="evenodd" clip-rule="evenodd" d="M854 656C854.157 657.373 853.99 658.707 853.5 660C851.982 660.663 850.815 661.663 850 663C838.625 669.019 827.292 675.019 816 681C815.058 680.892 814.225 680.559 813.5 680C811.428 676.568 810.762 672.902 811.5 669C823.839 661.44 836.506 654.44 849.5 648C852.574 649.675 854.074 652.342 854 656Z" fill="#1A3D25"/>
<path fill-rule="evenodd" clip-rule="evenodd" d="M865 681C864.333 678.667 863.667 676.333 863 674C862.761 672.033 863.094 670.199 864 668.5C875.59 661.206 887.59 654.706 900 649C902.087 649.039 903.421 650.039 904 652C905.877 656.386 905.21 660.219 902 663.5C890.787 669.032 879.787 675.032 869 681.5C867.572 682.079 866.238 681.912 865 681Z" fill="#4C2822"/>
<path fill-rule="evenodd" clip-rule="evenodd" d="M854 656C855.834 661.513 857.501 667.18 859 673C857.301 672.84 855.634 673.006 854 673.5C842.794 680.017 831.461 686.351 820 692.5C818.516 697.11 819.183 701.443 822 705.5C823.333 706.167 824.667 706.167 826 705.5C837.078 698.766 848.411 692.433 860 686.5C860.566 685.505 861.233 684.672 862 684C864.089 688.001 865.422 692.335 866 697C861.759 698.454 857.759 700.454 854 703C853.462 701.383 853.129 699.716 853 698C833.667 708 814.333 718 795 728C792.98 719.923 790.647 711.923 788 704C809.172 691.913 830.506 680.08 852 668.5C853.68 665.689 853.013 663.856 850 663C850.815 661.663 851.982 660.663 853.5 660C853.99 658.707 854.157 657.373 854 656Z" fill="#141F17"/>
<path fill-rule="evenodd" clip-rule="evenodd" d="M859 673C860.29 676.582 861.29 680.249 862 684C861.233 684.672 860.566 685.505 860 686.5C848.411 692.433 837.078 698.766 826 705.5C824.667 706.167 823.333 706.167 822 705.5C819.183 701.443 818.516 697.11 820 692.5C831.461 686.351 842.794 680.017 854 673.5C855.634 673.006 857.301 672.84 859 673Z" fill="#1A3D25"/>
<path fill-rule="evenodd" clip-rule="evenodd" d="M873 706C872 701.999 871 697.999 870 694C881.703 687.484 893.37 680.984 905 674.5C906.667 673.833 908.333 673.833 910 674.5C913.192 678.563 913.525 682.73 911 687C900 693.167 889 699.333 878 705.5C876.366 705.994 874.699 706.16 873 706Z" fill="#4C2822"/>
<path fill-rule="evenodd" clip-rule="evenodd" d="M583 751C558.721 764.81 534.388 778.643 510 792.5C499.075 800.324 497.242 809.824 504.5 821C508.052 824.219 511.885 827.052 516 829.5C593.83 873.914 671.497 918.581 749 963.5C771.119 973.632 793.119 973.298 815 962.5C878.333 925.833 941.667 889.167 1005 852.5C1011.55 848.945 1016.39 843.779 1019.5 837C1020.59 831.944 1019.76 827.278 1017 823C1024.1 818.274 1031.44 813.774 1039 809.5C1061.08 789.763 1068.75 765.597 1062 737C1060.7 731.624 1059.53 726.291 1058.5 721C1096.76 743.546 1135.26 765.712 1174 787.5C1177.51 789.757 1180.85 792.257 1184 795C1192.32 802.289 1194.98 811.289 1192 822C1188.66 829.514 1183.33 835.347 1176 839.5C1059.83 907.086 943.497 974.419 827 1041.5C796.23 1052.25 766.564 1049.91 738 1034.5C624 968.5 510 902.5 396 836.5C392.796 833.464 389.796 830.297 387 827C383.426 821.209 382.093 814.876 383 808C386.279 799.546 391.945 793.046 400 788.5C461.085 752.874 522.251 717.374 583.5 682C584.322 705.073 584.155 728.073 583 751Z" fill="#FEFEFE"/>
<path fill-rule="evenodd" clip-rule="evenodd" d="M866 697C867.458 699.827 868.458 702.827 869 706C869.419 708.825 868.419 710.991 866 712.5C862.641 713.547 859.641 715.047 857 717C848.323 721.671 839.657 726.338 831 731C829.853 730.682 829.019 730.016 828.5 729C827.869 726.107 827.036 723.274 826 720.5C826.601 718.895 827.601 717.562 829 716.5C837.392 711.973 845.725 707.473 854 703C857.759 700.454 861.759 698.454 866 697Z" fill="#1A3D25"/>
<path fill-rule="evenodd" clip-rule="evenodd" d="M893 726C889.587 727.789 886.087 729.456 882.5 731C881.598 730.757 880.765 730.423 880 730C879.733 727.535 879.066 725.201 878 723C877.843 721.627 878.01 720.293 878.5 719C881.654 715.988 885.154 713.655 889 712C897.306 707.512 905.64 703.012 914 698.5C917.338 697.294 919.171 698.46 919.5 702C920.284 705.26 920.117 708.427 919 711.5C910.145 716.092 901.478 720.925 893 726Z" fill="#4C2822"/>
<path fill-rule="evenodd" clip-rule="evenodd" d="M869 706C870.973 711.581 872.973 717.248 875 723C873.363 722.282 871.697 722.116 870 722.5C858.464 729.433 846.797 736.1 835 742.5C833.616 746.824 834.116 750.991 836.5 755C837.549 756.017 838.716 756.184 840 755.5C851.397 749.138 862.73 742.805 874 736.5C876.107 735.236 877.107 733.403 877 731C879.037 736.116 880.703 741.449 882 747C880.301 746.84 878.634 747.006 877 747.5C875.109 748.942 873.109 750.109 871 751C871.117 749.016 870.45 747.35 869 746C835.118 764.859 801.284 783.859 767.5 803C765.801 801.112 765.301 799.112 766 797C775.915 791.46 785.748 785.793 795.5 780C796.887 775.91 796.387 771.91 794 768C793.333 767.667 792.667 767.333 792 767C781.628 772.27 771.462 777.936 761.5 784C759.806 781.817 759.639 779.484 761 777C794.194 758.572 827.194 739.906 860 721C859.685 719.017 858.685 717.684 857 717C859.641 715.047 862.641 713.547 866 712.5C868.419 710.991 869.419 708.825 869 706Z" fill="#141E17"/>
<path fill-rule="evenodd" clip-rule="evenodd" d="M901 763C898.932 763.875 896.932 765.041 895 766.5C893.677 767.316 893.011 768.483 893 770C891.164 765.159 889.497 760.159 888 755C889.238 755.912 890.572 756.079 892 755.5C903.536 748.567 915.203 741.9 927 735.5C929.796 723.844 925.963 720.677 915.5 726C905.918 731.31 896.418 736.81 887 742.5C886.094 744.199 885.761 746.033 886 748C883.831 742.159 881.831 736.159 880 730C880.765 730.423 881.598 730.757 882.5 731C886.087 729.456 889.587 727.789 893 726C892.883 727.984 893.55 729.65 895 731C905.173 725.079 915.506 719.413 926 714C928.464 722.057 931.13 730.057 934 738C923.163 744.586 912.163 750.919 901 757C900.269 758.901 900.269 760.901 901 763Z" fill="#231816"/>
<path fill-rule="evenodd" clip-rule="evenodd" d="M875 723C875.871 725.612 876.537 728.279 877 731C877.107 733.403 876.107 735.236 874 736.5C862.73 742.805 851.397 749.138 840 755.5C838.716 756.184 837.549 756.017 836.5 755C834.116 750.991 833.616 746.824 835 742.5C846.797 736.1 858.464 729.433 870 722.5C871.697 722.116 873.363 722.282 875 723Z" fill="#1A3E25"/>
<path fill-rule="evenodd" clip-rule="evenodd" d="M888 755C887.333 752.667 886.667 750.333 886 748C885.761 746.033 886.094 744.199 887 742.5C896.418 736.81 905.918 731.31 915.5 726C925.963 720.677 929.796 723.844 927 735.5C915.203 741.9 903.536 748.567 892 755.5C890.572 756.079 889.238 755.912 888 755Z" fill="#4C2822"/>
<path fill-rule="evenodd" clip-rule="evenodd" d="M584 575C584.667 592.667 585.333 610.333 586 628C585.833 672.001 586 716.001 586.5 760C588.733 768.62 593.567 775.453 601 780.5C605.06 782.189 608.727 784.356 612 787C594.059 781.417 584.393 769.417 583 751C584.155 728.073 584.322 705.073 583.5 682C522.251 717.374 461.085 752.874 400 788.5C391.945 793.046 386.279 799.546 383 808C383 807.333 382.667 807 382 807C385.267 798.891 390.6 792.391 398 787.5C459.796 751.866 521.463 716.033 583 680C584 645.006 584.333 610.006 584 575Z" fill="#202522"/>
<path fill-rule="evenodd" clip-rule="evenodd" d="M972.5 809.5C970.646 809.39 968.646 809.057 966.5 808.5C960.081 802.298 954.581 795.965 950 789.5C948.16 790.833 947.66 790.666 948.5 789C947.449 787.615 946.116 786.615 944.5 786C945.774 785.023 945.774 784.189 944.5 783.5C970.771 768.36 997.104 753.194 1023.5 738C1032.76 735.377 1039.26 738.544 1043 747.5C1045.2 757.892 1042.37 766.725 1034.5 774C1013.64 785.592 992.976 797.426 972.5 809.5Z" fill="#CA5747"/>
<path fill-rule="evenodd" clip-rule="evenodd" d="M583 751C584.393 769.417 594.059 781.417 612 787C635.797 799.065 659.464 811.399 683 824C682.914 824.996 683.248 825.829 684 826.5C688.667 828.833 693.333 831.167 698 833.5C707.458 860.948 715.958 888.781 723.5 917C728.757 937.259 741.757 948.592 762.5 951C773.678 949.935 784.844 948.768 796 947.5C801.999 946.001 807.666 943.668 813 940.5C880.892 901.057 948.892 861.89 1017 823C1019.76 827.278 1020.59 831.944 1019.5 837C1016.39 843.779 1011.55 848.945 1005 852.5C941.667 889.167 878.333 925.833 815 962.5C793.119 973.298 771.119 973.632 749 963.5C671.497 918.581 593.83 873.914 516 829.5C511.885 827.052 508.052 824.219 504.5 821C497.242 809.824 499.075 800.324 510 792.5C534.388 778.643 558.721 764.81 583 751Z" fill="#010101"/>
<path fill-rule="evenodd" clip-rule="evenodd" d="M384.941 811C385.608 811 385.941 811.333 385.941 812C385.034 818.876 386.367 825.209 389.941 831C389.274 831 388.941 831.333 388.941 832C388.04 831.21 387.373 830.21 386.941 829C386.881 828.457 386.548 828.124 385.941 828C384.61 870.831 384.61 913.498 385.941 956C374.189 963.489 365.189 973.489 358.941 986C353.492 984.11 348.492 981.443 343.941 978C333.421 971.661 322.754 965.495 311.941 959.5C291.374 942.093 292.041 925.426 313.941 909.5C336.438 896.752 358.772 883.752 380.941 870.5C381.889 870.017 382.889 869.851 383.941 870C383.62 850.257 383.954 830.591 384.941 811Z" fill="#121212"/>
<path fill-rule="evenodd" clip-rule="evenodd" d="M384 825C384.432 826.21 385.099 827.21 386 828C390.653 835.343 396.986 840.843 405 844.5C508.592 903.767 611.925 963.434 715 1023.5C728.233 1030.95 741.566 1038.11 755 1045C755 1100.67 755 1156.33 755 1212C634.074 1143.87 513.74 1074.7 394 1004.5C384.715 996.82 381.048 986.983 383 975C384 974.333 385 973.667 386 973C392.937 977.141 399.937 981.307 407 985.5C423.48 985.844 430.813 977.677 429 961C430.121 947.077 425.121 935.91 414 927.5C407.333 923.833 400.667 920.167 394 916.5C389.305 911.986 385.638 906.819 383 901C382.669 875.495 383.002 850.161 384 825Z" fill="#C1C7CE"/>
<path fill-rule="evenodd" clip-rule="evenodd" d="M1193 873C1193.17 911.001 1193 949.001 1192.5 987C1192.15 988.747 1191.65 990.41 1191 992C1189.28 995.89 1186.95 999.39 1184 1002.5C1175.77 1008.44 1167.11 1013.61 1158 1018C1155.62 1013.77 1152.62 1009.94 1149 1006.5C1145.46 1005 1141.79 1004.66 1138 1005.5C1059.33 1050.5 980.667 1095.5 902 1140.5C897.137 1143.73 893.304 1147.9 890.5 1153C887.359 1161.26 884.526 1169.59 882 1178C881.547 1178.96 880.881 1179.79 880 1180.5C862.496 1190.75 844.829 1200.75 827 1210.5C814.392 1215.04 801.392 1217.21 788 1217C788 1161.67 788 1106.33 788 1051C790.559 1051.3 792.893 1050.97 795 1050C810.642 1049.26 825.309 1045.09 839 1037.5C951.836 971.581 1064.84 905.914 1178 840.5C1183.88 836.29 1188.71 831.123 1192.5 825C1193 840.997 1193.17 856.997 1193 873Z" fill="#FEFEFE"/>
<path fill-rule="evenodd" clip-rule="evenodd" d="M397.5 835.5C396.502 860.661 396.169 885.995 396.5 911.5C396.5 913.167 396.5 914.833 396.5 916.5C396.171 931.676 396.504 946.676 397.5 961.5C397.5 962.167 397.167 962.5 396.5 962.5C395.169 919.998 395.169 877.331 396.5 834.5C397.107 834.624 397.44 834.957 397.5 835.5Z" fill="#414344"/>
<path fill-rule="evenodd" clip-rule="evenodd" d="M396.5 916.5C399.892 921.401 403.892 925.901 408.5 930C434.277 938.708 444.777 956.542 440 983.5C436.518 991.822 430.351 995.322 421.5 994C414.446 990.142 407.446 986.309 400.5 982.5C403.567 979.121 407.234 976.454 411.5 974.5C417.943 978.027 422.443 976.36 425 969.5C427.428 959.566 423.928 952.899 414.5 949.5C410.262 950.737 407.262 953.403 405.5 957.5C402.807 958.847 400.14 960.18 397.5 961.5C396.504 946.676 396.171 931.676 396.5 916.5Z" fill="#BFC5CC"/>
<path fill-rule="evenodd" clip-rule="evenodd" d="M590 462C636.13 615.559 681.964 769.226 727.5 923C737.087 944.044 753.254 952.21 776 947.5C774.973 946.987 773.973 946.487 773 946C773 945.333 773.333 945 774 945C787.061 948.491 799.394 946.657 811 939.5C886.333 895.833 961.667 852.167 1037 808.5C1058.09 790.343 1066.09 767.51 1061 740C1061.9 739.291 1062.24 738.291 1062 737C1068.75 765.597 1061.08 789.763 1039 809.5C1031.44 813.774 1024.1 818.274 1017 823C948.892 861.89 880.892 901.057 813 940.5C807.666 943.668 801.999 946.001 796 947.5C784.844 948.768 773.678 949.935 762.5 951C741.757 948.592 728.757 937.259 723.5 917C715.958 888.781 707.458 860.948 698 833.5C693.333 831.167 688.667 828.833 684 826.5C683.248 825.829 682.914 824.996 683 824C687.64 826.32 692.307 828.653 697 831C697.333 830.667 697.667 830.333 698 830C661.203 707.812 624.869 585.479 589 463C589 462.333 589.333 462 590 462Z" fill="#1F1F1F"/>
<path fill-rule="evenodd" clip-rule="evenodd" d="M964 824C967.987 825.541 967.987 827.375 964 829.5C932.836 847.248 901.836 865.248 871 883.5C869.475 884.509 867.808 885.009 866 885C865.474 881.692 866.807 879.526 870 878.5C901.592 860.545 932.925 842.379 964 824Z" fill="#CCCDCD"/>
<path fill-rule="evenodd" clip-rule="evenodd" d="M851 861C849.631 859.532 848.464 857.865 847.5 856C845.062 857.366 844.562 856.866 846 854.5C845.861 853.199 845.195 852.366 844 852C844.165 848.65 843.998 845.317 843.5 842C843.167 843.667 842.833 845.333 842.5 847C838.883 843.058 838.383 843.391 841 848C840.528 850.031 839.528 851.698 838 853C839.722 849.582 839.056 846.916 836 845C835.442 843.71 834.442 842.877 833 842.5C833.78 841.427 833.613 840.26 832.5 839C831.427 839.78 830.26 839.613 829 838.5C830.103 836.82 829.77 835.32 828 834C829.667 832.833 831.333 831.667 833 830.5C832.406 830.036 831.739 829.869 831 830C843.438 822.274 856.105 814.774 869 807.5C874.431 803.576 880.431 801.909 887 802.5C896.53 807.065 900.03 814.565 897.5 825C895.774 831.945 891.941 837.445 886 841.5C874.279 848.024 862.612 854.524 851 861Z" fill="#2EAA56"/>
<path fill-rule="evenodd" clip-rule="evenodd" d="M975.5 780.5C980.694 780.942 980.694 781.942 975.5 783.5C977.045 784.452 978.712 784.785 980.5 784.5C981.445 789.895 979.445 791.561 974.5 789.5C976.167 788.833 977.833 788.167 979.5 787.5C973.638 787.355 972.305 785.022 975.5 780.5Z" fill="#4D2924"/>
<path fill-rule="evenodd" clip-rule="evenodd" d="M931 773C932.274 773.689 932.274 774.523 931 775.5C932.616 776.115 933.949 777.115 935 778.5C934.16 780.166 934.66 780.333 936.5 779C941.081 785.465 946.581 791.798 953 798C955.146 798.557 957.146 798.89 959 799C948.351 805.661 937.351 811.828 926 817.5C916.789 818.139 910.956 813.972 908.5 805C907.226 795.919 909.726 788.086 916 781.5C920.73 778.136 925.73 775.303 931 773Z" fill="#D55A4A"/>
<path fill-rule="evenodd" clip-rule="evenodd" d="M884 772C886.104 771.701 888.104 772.034 890 773C891.59 776.536 892.09 780.203 891.5 784C879.88 791.226 868.046 798.059 856 804.5C854.667 805.167 853.333 805.167 852 804.5C849.598 800.447 849.098 796.28 850.5 792C862.309 786.188 873.476 779.522 884 772Z" fill="#193823"/>
<path fill-rule="evenodd" clip-rule="evenodd" d="M983.5 778.5C987.415 780.198 987.415 782.198 983.5 784.5C984.868 785.594 986.035 785.26 987 783.5C987.617 784.449 987.451 785.282 986.5 786C981.917 786.934 980.417 785.1 982 780.5C982.717 779.956 983.217 779.289 983.5 778.5Z" fill="#4C2A24"/>
<path fill-rule="evenodd" clip-rule="evenodd" d="M986.5 774.5C989.321 776.962 990.321 779.962 989.5 783.5C988.038 780.653 987.038 777.653 986.5 774.5Z" fill="#3A2421"/>
<path fill-rule="evenodd" clip-rule="evenodd" d="M989.5 772.5C992.343 775.192 993.509 778.526 993 782.5C991.224 779.403 990.057 776.07 989.5 772.5Z" fill="#482823"/>
<path fill-rule="evenodd" clip-rule="evenodd" d="M893 770C893.011 768.483 893.677 767.316 895 766.5C896.932 765.041 898.932 763.875 901 763C910.983 757.675 920.983 752.341 931 747C931.942 747.108 932.775 747.441 933.5 748C934.823 751.608 935.489 755.275 935.5 759C922.607 767.025 909.44 774.358 896 781C894.847 777.389 893.847 773.723 893 770Z" fill="#44241F"/>
<path fill-rule="evenodd" clip-rule="evenodd" d="M882 747C882.626 750.138 883.626 753.138 885 756C884.74 757.687 884.073 759.187 883 760.5C870.461 766.686 858.294 773.519 846.5 781C842.687 777.393 841.187 773.06 842 768C851.562 762.056 861.229 756.389 871 751C873.109 750.109 875.109 748.942 877 747.5C878.634 747.006 880.301 746.84 882 747Z" fill="#1A3D25"/>
<path fill-rule="evenodd" clip-rule="evenodd" d="M400.5 982.5C399.833 982.5 399.5 982.833 399.5 983.5C398.5 984.167 397.5 984.833 396.5 985.5C391.655 990.357 387.988 996.023 385.5 1002.5C380.335 1012.83 378.168 1023.83 379 1035.5C383.546 1038.24 384.546 1041.91 382 1046.5C374.944 1052.89 367.11 1054.06 358.5 1050C352.979 1044.92 353.479 1040.42 360 1036.5C360.173 1021.16 363.34 1006.49 369.5 992.5C375.748 979.989 384.748 969.989 396.5 962.5C397.167 962.5 397.5 962.167 397.5 961.5C400.14 960.18 402.807 958.847 405.5 957.5C407.262 953.403 410.262 950.737 414.5 949.5C423.928 952.899 427.428 959.566 425 969.5C422.443 976.36 417.943 978.027 411.5 974.5C407.234 976.454 403.567 979.121 400.5 982.5Z" fill="#040604"/>
<path fill-rule="evenodd" clip-rule="evenodd" d="M411.5 957.5C418.578 957.572 420.912 960.906 418.5 967.5C408.286 971.879 399.286 978.046 391.5 986C383.705 986.182 381.538 982.682 385 975.5C392.981 968.104 401.814 962.104 411.5 957.5Z" fill="#62D586"/>
<path fill-rule="evenodd" clip-rule="evenodd" d="M589 1048C584.11 1045.79 579.444 1043.12 575 1040C573.667 1042.67 573.667 1045.33 575 1048C579.694 1050.68 584.361 1053.35 589 1056C589.166 1063.34 589 1070.67 588.5 1078C585.869 1082.13 582.369 1082.96 578 1080.5C536 1055.5 494 1030.5 452 1005.5C447.779 1001.89 444.946 997.39 443.5 992C442.679 985.154 442.846 978.487 444 972C448.639 974.655 453.306 977.321 458 980C459.277 977.466 459.277 974.966 458 972.5C453.094 969.411 448.094 966.577 443 964C442.834 959.986 443.001 955.986 443.5 952C443.874 951.084 444.374 950.25 445 949.5C448.952 948.588 452.619 949.255 456 951.5C497.333 976.167 538.667 1000.83 580 1025.5C586.736 1031.48 589.736 1038.98 589 1048Z" fill="#141514"/>
<path fill-rule="evenodd" clip-rule="evenodd" d="M456.5 974.5C461.594 977.077 466.594 979.911 471.5 983C472.777 985.466 472.777 987.966 471.5 990.5C466.806 987.821 462.139 985.155 457.5 982.5C456.612 979.946 456.279 977.279 456.5 974.5Z" fill="#62D486"/>
<path fill-rule="evenodd" clip-rule="evenodd" d="M477.5 986.5C482.055 989.029 486.555 991.696 491 994.5C491.814 996.902 491.647 999.235 490.5 1001.5C486.5 999.167 482.5 996.833 478.5 994.5C477.52 991.914 477.187 989.247 477.5 986.5Z" fill="#5FCE82"/>
<path fill-rule="evenodd" clip-rule="evenodd" d="M396.5 911.5C399.138 917.319 402.805 922.486 407.5 927C414.167 930.667 420.833 934.333 427.5 938C438.621 946.41 443.621 957.577 442.5 971.5C444.313 988.177 436.98 996.344 420.5 996C413.437 991.807 406.437 987.641 399.5 983.5C399.5 982.833 399.833 982.5 400.5 982.5C407.446 986.309 414.446 990.142 421.5 994C430.351 995.322 436.518 991.822 440 983.5C444.777 956.542 434.277 938.708 408.5 930C403.892 925.901 399.892 921.401 396.5 916.5C396.5 914.833 396.5 913.167 396.5 911.5Z" fill="#7F848C"/>
<path fill-rule="evenodd" clip-rule="evenodd" d="M462.5 993.5C467.638 996.237 472.638 999.237 477.5 1002.5C478.652 1005.11 478.818 1007.77 478 1010.5C473.083 1007.63 468.249 1004.63 463.5 1001.5C462.52 998.914 462.187 996.247 462.5 993.5Z" fill="#62D486"/>
<path fill-rule="evenodd" clip-rule="evenodd" d="M1192 822C1193.28 830.672 1193.94 839.506 1194 848.5C1194 856.84 1193.67 865.007 1193 873C1193.17 856.997 1193 840.997 1192.5 825C1188.71 831.123 1183.88 836.29 1178 840.5C1064.84 905.914 951.836 971.581 839 1037.5C825.309 1045.09 810.642 1049.26 795 1050C786.309 1050.13 777.642 1049.8 769 1049C764.472 1047.55 759.806 1046.22 755 1045C741.566 1038.11 728.233 1030.95 715 1023.5C611.925 963.434 508.592 903.767 405 844.5C396.986 840.843 390.653 835.343 386 828C386 827.333 386.333 827 387 827C389.796 830.297 392.796 833.464 396 836.5C510 902.5 624 968.5 738 1034.5C766.564 1049.91 796.23 1052.25 827 1041.5C943.497 974.419 1059.83 907.086 1176 839.5C1183.33 835.347 1188.66 829.514 1192 822Z" fill="#242525"/>
<path fill-rule="evenodd" clip-rule="evenodd" d="M831 830C831.739 829.869 832.406 830.036 833 830.5C831.333 831.667 829.667 832.833 828 834C829.77 835.32 830.103 836.82 829 838.5C830.26 839.613 831.427 839.78 832.5 839C833.613 840.26 833.78 841.427 833 842.5C834.442 842.877 835.442 843.71 836 845C837.075 847.356 837.075 849.689 836 852C834.816 850.454 833.816 848.787 833 847C832.011 849.088 832.344 851.088 834 853C835.308 854.126 836.642 854.126 838 853C839.528 851.698 840.528 850.031 841 848C841.809 849.792 842.309 851.792 842.5 854C843.217 853.456 843.717 852.789 844 852C845.195 852.366 845.861 853.199 846 854.5C844.562 856.866 845.062 857.366 847.5 856C848.464 857.865 849.631 859.532 851 861C831.223 872.727 811.223 884.227 791 895.5C780.379 898.603 773.546 894.77 770.5 884C769.376 872.416 773.542 863.249 783 856.5C798.894 847.388 814.894 838.555 831 830Z" fill="#30B159"/>
<path fill-rule="evenodd" clip-rule="evenodd" d="M836 845C839.056 846.916 839.722 849.582 838 853C836.642 854.126 835.308 854.126 834 853C832.344 851.088 832.011 849.088 833 847C833.816 848.787 834.816 850.454 836 852C837.075 849.689 837.075 847.356 836 845Z" fill="#203B28"/>
<path fill-rule="evenodd" clip-rule="evenodd" d="M826 849C827.027 847.652 828.36 847.152 830 847.5C833.583 852.673 832.583 856.506 827 859C825.903 856.21 824.903 853.377 824 850.5C824.336 849.47 825.003 848.97 826 849Z" fill="#1F3826"/>
<path fill-rule="evenodd" clip-rule="evenodd" d="M828 853C829.855 852.772 830.688 853.439 830.5 855C827.692 856.36 826.859 855.693 828 853Z" fill="#2C9B4F"/>
<path fill-rule="evenodd" clip-rule="evenodd" d="M826 849C827 849 828 849 829 849C829 850 829 851 829 852C828 852 827 852 826 852C826 851 826 850 826 849Z" fill="#2B9A4F"/>
<path fill-rule="evenodd" clip-rule="evenodd" d="M844 852C843.717 852.789 843.217 853.456 842.5 854C842.309 851.792 841.809 849.792 841 848C838.383 843.391 838.883 843.058 842.5 847C842.833 845.333 843.167 843.667 843.5 842C843.998 845.317 844.165 848.65 844 852Z" fill="#1F3726"/>
<path fill-rule="evenodd" clip-rule="evenodd" d="M488 990C496.632 994.94 505.299 999.94 514 1005C515.333 1007.67 515.333 1010.33 514 1013C505.832 1007.75 497.499 1002.75 489 998C488.02 995.41 487.687 992.75 488 990Z" fill="#60D184"/>
<path fill-rule="evenodd" clip-rule="evenodd" d="M383 975C381.048 986.983 384.715 996.82 394 1004.5C513.74 1074.7 634.074 1143.87 755 1212C758.9 1213.31 762.9 1214.31 767 1215C773.762 1216.65 780.762 1217.32 788 1217C801.392 1217.21 814.392 1215.04 827 1210.5C844.829 1200.75 862.496 1190.75 880 1180.5C880.881 1179.79 881.547 1178.96 882 1178C883.291 1178.24 884.291 1177.9 885 1177C975.931 1124.72 1066.6 1072.06 1157 1019C1157.67 1019 1158 1018.67 1158 1018C1167.11 1013.61 1175.77 1008.44 1184 1002.5C1186.95 999.39 1189.28 995.89 1191 992C1191.67 992.33 1192.33 992.67 1193 993C1189.26 999.58 1184.26 1005.08 1178 1009.5C1068.84 1072.58 959.836 1135.91 851 1199.5C819.826 1220.19 786.493 1224.52 751 1212.5C675.476 1169.57 600.143 1126.41 525 1083C509.504 1073.75 493.838 1064.75 478 1056C464.334 1047.5 450.334 1039.5 436 1032C421.689 1023.37 407.356 1014.7 393 1006C392.21 1004.71 391.21 1003.54 390 1002.5C383.853 999.17 377.853 995.67 372 992C374.488 985.523 378.155 979.857 383 975Z" fill="#1D221F"/>
<path fill-rule="evenodd" clip-rule="evenodd" d="M1158 1018C1158 1018.67 1157.67 1019 1157 1019C1154.25 1014.74 1150.92 1010.91 1147 1007.5C1144.33 1006.83 1141.67 1006.83 1139 1007.5C1059.17 1052.91 979.504 1098.58 900 1144.5C891.645 1153.71 886.645 1164.54 885 1177C884.291 1177.9 883.291 1178.24 882 1178C884.526 1169.59 887.359 1161.26 890.5 1153C893.304 1147.9 897.137 1143.73 902 1140.5C980.667 1095.5 1059.33 1050.5 1138 1005.5C1141.79 1004.66 1145.46 1005 1149 1006.5C1152.62 1009.94 1155.62 1013.77 1158 1018Z" fill="#858B92"/>
<path fill-rule="evenodd" clip-rule="evenodd" d="M782.5 1059.5C791.142 1060.3 799.809 1060.63 808.5 1060.5C806.393 1061.47 804.059 1061.8 801.5 1061.5C801.5 1116.83 801.5 1172.17 801.5 1227.5C794.262 1227.82 787.262 1227.15 780.5 1225.5C782.496 1170.51 783.163 1115.18 782.5 1059.5Z" fill="#C2C8CF"/>
<path fill-rule="evenodd" clip-rule="evenodd" d="M768.5 1055.5C773.306 1056.72 777.972 1058.05 782.5 1059.5C783.163 1115.18 782.496 1170.51 780.5 1225.5C776.4 1224.81 772.4 1223.81 768.5 1222.5C768.5 1166.83 768.5 1111.17 768.5 1055.5Z" fill="#FDFDFD"/>
<path fill-rule="evenodd" clip-rule="evenodd" d="M565.5 1052.5C573.472 1057.16 581.472 1061.82 589.5 1066.5C590.652 1069.11 590.818 1071.77 590 1074.5C582.036 1070.03 574.203 1065.37 566.5 1060.5C565.52 1057.91 565.187 1055.25 565.5 1052.5Z" fill="#61D385"/>
<path fill-rule="evenodd" clip-rule="evenodd" d="M602.5 1058.5C602.5 1061.17 602.5 1063.83 602.5 1066.5C597.861 1063.85 593.194 1061.18 588.5 1058.5C587.167 1055.83 587.167 1053.17 588.5 1050.5C592.944 1053.62 597.61 1056.29 602.5 1058.5Z" fill="#61D183"/>
<path fill-rule="evenodd" clip-rule="evenodd" d="M509 1018C518.966 1023.61 528.966 1029.28 539 1035C540.333 1037.67 540.333 1040.33 539 1043C529.333 1037.17 519.667 1031.33 510 1025.5C509.065 1023.12 508.732 1020.62 509 1018Z" fill="#61D285"/>
<path fill-rule="evenodd" clip-rule="evenodd" d="M535 1017C543.306 1021.82 551.639 1026.65 560 1031.5C561.277 1033.97 561.277 1036.47 560 1039C551.306 1033.99 542.639 1028.99 534 1024C533.698 1021.44 534.032 1019.11 535 1017Z" fill="#60D083"/>
<path fill-rule="evenodd" clip-rule="evenodd" d="M535 1017C534.032 1019.11 533.698 1021.44 534 1024C532.7 1021.48 532.7 1018.81 534 1016C534.607 1016.12 534.94 1016.46 535 1017Z" fill="#346F4B"/>
<path fill-rule="evenodd" clip-rule="evenodd" d="M496 1010C502.248 1011.3 504.248 1014.96 502 1021C499.65 1019.64 497.316 1018.31 495 1017C494.698 1014.44 495.032 1012.11 496 1010Z" fill="#5ECA80"/>
<path fill-rule="evenodd" clip-rule="evenodd" d="M496 1010C495.032 1012.11 494.698 1014.44 495 1017C493.7 1014.48 493.7 1011.81 495 1009C495.607 1009.12 495.94 1009.46 496 1010Z" fill="#35724D"/>
<path fill-rule="evenodd" clip-rule="evenodd" d="M519 1008C522.107 1009.39 525.107 1011.06 528 1013C529.152 1015.61 529.318 1018.27 528.5 1021C525.584 1019.46 522.751 1017.79 520 1016C519.02 1013.41 518.687 1010.75 519 1008Z" fill="#5DC97F"/>
<path fill-rule="evenodd" clip-rule="evenodd" d="M1157 1019C1066.6 1072.06 975.931 1124.72 885 1177C886.645 1164.54 891.645 1153.71 900 1144.5C979.504 1098.58 1059.17 1052.91 1139 1007.5C1141.67 1006.83 1144.33 1006.83 1147 1007.5C1150.92 1010.91 1154.25 1014.74 1157 1019Z" fill="#FCFCFC"/>
<path fill-rule="evenodd" clip-rule="evenodd" d="M482.5 1005.5C486.855 1007.43 491.021 1009.76 495 1012.5C495.814 1014.9 495.647 1017.24 494.5 1019.5C490.535 1017.37 486.702 1015.03 483 1012.5C482.503 1010.19 482.337 1007.86 482.5 1005.5Z" fill="#60D184"/>
</svg>
