<svg width="144" height="108" viewBox="0 0 144 108" fill="none" xmlns="http://www.w3.org/2000/svg">
<path d="M119.146 45.3864L118.901 44.7535L112.047 45.6026L111.958 45.6135L111.886 45.6652C111.85 45.6909 111.797 45.7344 111.755 45.8005C111.708 45.8748 111.67 45.9898 111.709 46.1198C111.743 46.2357 111.821 46.3032 111.867 46.3355C111.915 46.3696 111.965 46.3907 112.002 46.4041C112.139 46.4534 112.341 46.4785 112.542 46.4963C112.836 46.5223 113.228 46.5392 113.648 46.5572C113.83 46.565 114.017 46.5731 114.204 46.5822C114.833 46.6129 115.462 46.6559 115.935 46.74C115.939 46.7407 115.943 46.7414 115.947 46.7421C115.963 46.755 115.98 46.7661 115.996 46.7756C116.076 46.8236 116.162 46.8446 116.227 46.8556C116.292 46.8667 116.364 46.8721 116.439 46.8737C116.446 46.8767 116.453 46.8798 116.46 46.8828C116.49 46.8969 116.51 46.9083 116.522 46.9165C116.542 47.0117 116.589 47.1024 116.667 47.1748C116.753 47.2544 116.853 47.2904 116.934 47.3073C117.088 47.3392 117.261 47.3195 117.409 47.2921C117.715 47.2356 118.106 47.1062 118.473 46.9849L118.481 46.9824C118.804 46.8755 119.114 46.7732 119.378 46.7073C119.386 46.762 119.391 46.8183 119.397 46.883C119.4 46.917 119.404 46.9534 119.408 46.9931C119.421 47.1125 119.44 47.2651 119.493 47.4055C119.548 47.5542 119.651 47.7161 119.844 47.8122L119.855 47.8175C120.024 47.8944 120.221 47.8997 120.394 47.8861C120.577 47.8717 120.782 47.8312 120.997 47.7753C121.028 47.7671 121.06 47.7586 121.092 47.7497C121.178 47.7986 121.265 47.8444 121.355 47.887L121.36 47.8896C122.028 48.194 123.086 48.1569 124.071 47.8523C125.068 47.5439 126.091 46.9312 126.659 45.9681L126.956 45.4649L126.372 45.4407L124.701 45.3712L124.581 45.3662L124.484 45.436C124.105 45.7063 123.134 46.2178 122.16 46.6249C121.824 46.7655 121.494 46.8907 121.195 46.9876C120.882 46.7704 120.607 46.4998 120.385 46.1871C120.247 45.9941 120.03 45.9486 119.882 45.9393C119.82 45.9354 119.755 45.9367 119.69 45.9419C119.671 45.9341 119.654 45.9279 119.639 45.923C119.567 45.8992 119.491 45.8881 119.422 45.8823C119.284 45.8708 119.118 45.8769 118.946 45.8904C118.621 45.9159 118.218 45.973 117.83 46.0281C117.804 46.0318 117.778 46.0355 117.752 46.0392C117.695 46.0473 117.638 46.0552 117.582 46.063C117.724 46.005 117.872 45.9454 118.016 45.8874C118.192 45.816 118.363 45.7471 118.51 45.6863C118.651 45.6281 118.779 45.5738 118.882 45.5267C118.976 45.4839 119.078 45.4347 119.146 45.3864ZM116.539 46.9304C116.539 46.9305 116.538 46.9294 116.536 46.9272C116.539 46.9293 116.54 46.9304 116.539 46.9304Z" fill="black" stroke="black" stroke-width="0.7"/>
<path d="M125.085 47.0393C125.82 46.5522 126.412 45.8781 126.801 45.0862C127.182 44.2724 127.227 43.3413 126.928 42.4941C126.628 41.6468 126.008 40.9514 125.2 40.558C124.859 40.3853 124.478 40.3077 124.096 40.3335C123.715 40.3593 123.348 40.4875 123.034 40.7045L123.764 41.7333C123.899 41.6486 124.054 41.6016 124.213 41.5971C124.373 41.5927 124.53 41.6309 124.669 41.708C124.993 41.8746 125.27 42.1197 125.475 42.4209C125.68 42.7221 125.807 43.0698 125.843 43.4323C125.932 44.3604 125.414 45.2519 124.349 46.0124L125.085 47.0393Z" fill="white"/>
<mask id="mask0_307_153" style="mask-type:luminance" maskUnits="userSpaceOnUse" x="123" y="41" width="3" height="5">
<path d="M124.85 45.3711C125.916 44.6113 125.931 44.356 125.842 43.4279C125.806 43.0654 125.68 42.7177 125.475 42.4165C125.27 42.1153 124.993 41.8702 124.669 41.7036C124.53 41.6265 124.372 41.5883 124.213 41.5927C124.054 41.5972 123.899 41.6442 123.764 41.7289" fill="black"/>
</mask>
<g mask="url(#mask0_307_153)">
<path d="M125.842 43.428L126.539 43.3613V43.3585L125.842 43.428ZM124.669 41.7037L124.33 42.3163L124.339 42.3214L124.349 42.3261L124.669 41.7037ZM125.256 45.9412C125.784 45.5649 126.203 45.2173 126.415 44.7545C126.633 44.2797 126.58 43.7882 126.539 43.3613L125.146 43.4947C125.194 43.996 125.177 44.0961 125.143 44.171C125.103 44.2577 124.982 44.4177 124.444 44.8011L125.256 45.9412ZM126.539 43.3585C126.491 42.8797 126.324 42.4206 126.054 42.0228L124.896 42.8105C125.035 43.0151 125.121 43.2512 125.146 43.4975L126.539 43.3585ZM126.054 42.0228C125.783 41.625 125.417 41.3014 124.989 41.0812L124.349 42.3261C124.569 42.4393 124.757 42.6058 124.896 42.8105L126.054 42.0228ZM125.007 41.091C124.759 40.9535 124.477 40.8851 124.193 40.8931L124.232 42.2925C124.267 42.2916 124.3 42.2998 124.33 42.3163L125.007 41.091ZM124.193 40.8931C123.909 40.901 123.632 40.985 123.391 41.1362L124.136 42.3218C124.165 42.3036 124.198 42.2935 124.232 42.2925L124.193 40.8931Z" fill="black"/>
</g>
<mask id="mask1_307_153" style="mask-type:luminance" maskUnits="userSpaceOnUse" x="119" y="38" width="11" height="11">
<path d="M129.353 38.3855H119.666V48.568H129.353V38.3855Z" fill="white"/>
<path d="M123.028 40.6985C123.342 40.4814 123.71 40.3532 124.091 40.3274C124.472 40.3017 124.853 40.3792 125.194 40.552C126.002 40.9454 126.623 41.6408 126.922 42.488C127.222 43.3353 127.176 44.2664 126.795 45.0802C126.409 45.8723 125.819 46.5474 125.086 47.0363" fill="black"/>
</mask>
<g mask="url(#mask1_307_153)">
<path d="M122.63 40.1225C122.312 40.3421 122.232 40.7781 122.452 41.0962C122.671 41.4144 123.107 41.4943 123.426 41.2746L122.63 40.1225ZM125.194 40.5521L124.877 41.1765L124.888 41.1815L125.194 40.5521ZM126.795 45.0803L127.424 45.387L127.429 45.3772L126.795 45.0803ZM124.697 46.454C124.376 46.6684 124.289 47.1031 124.503 47.4247C124.718 47.7464 125.152 47.8332 125.474 47.6188L124.697 46.454ZM123.426 41.2746C123.636 41.1291 123.882 41.0432 124.138 41.0259L124.044 39.6291C123.537 39.6634 123.048 39.8339 122.63 40.1225L123.426 41.2746ZM124.138 41.0259C124.394 41.0087 124.649 41.0607 124.877 41.1765L125.51 39.9277C125.057 39.698 124.55 39.5949 124.044 39.6291L124.138 41.0259ZM124.888 41.1815C125.53 41.4944 126.024 42.0475 126.262 42.7215L127.582 42.2548C127.221 41.2342 126.474 40.3965 125.5 39.9227L124.888 41.1815ZM126.262 42.7215C126.501 43.3954 126.464 44.136 126.161 44.7834L127.429 45.3772C127.888 44.3969 127.943 43.2754 127.582 42.2548L126.262 42.7215ZM126.166 44.7736C125.834 45.454 125.327 46.034 124.697 46.454L125.474 47.6188C126.311 47.061 126.984 46.2907 127.424 45.387L126.166 44.7736Z" fill="black"/>
</g>
<path d="M126.916 43.7438C126.813 43.816 126.726 43.9072 126.657 44.0124C126.586 44.1227 126.537 44.2462 126.514 44.3756C126.49 44.505 126.493 44.6378 126.522 44.7661C126.551 44.8944 126.605 45.0157 126.681 45.1228C126.758 45.2298 126.855 45.3206 126.967 45.3896C127.079 45.4587 127.203 45.5047 127.333 45.5249C127.463 45.5451 127.596 45.5391 127.723 45.5074C127.851 45.4756 127.971 45.4187 128.076 45.34L128.077 45.339L128.08 45.337L128.088 45.3306C128.095 45.3252 128.105 45.3176 128.117 45.3078C128.142 45.2882 128.177 45.26 128.22 45.2237C128.306 45.1511 128.425 45.0457 128.561 44.9114C128.83 44.6444 129.172 44.2564 129.448 43.7805C129.602 43.5141 129.743 43.228 129.879 42.9492C129.889 42.9291 129.899 42.909 129.909 42.8889C130.036 42.6275 130.161 42.3729 130.295 42.1297C130.586 41.6023 130.898 41.1769 131.309 40.9225C131.695 40.6835 132.044 40.5426 132.314 40.4595C132.537 40.3909 132.801 40.2682 132.998 40.0859C133.199 39.8993 133.38 39.5916 133.244 39.2183C133.122 38.8812 132.838 38.715 132.574 38.6443C132.313 38.5746 132.03 38.5829 131.796 38.6204C131.337 38.6942 130.695 38.8724 130.115 39.3055C129.643 39.6574 129.217 40.2805 128.838 40.9048C128.665 41.1903 128.503 41.4728 128.347 41.7462C128.141 42.1055 127.944 42.4492 127.742 42.7639C127.528 43.0964 127.315 43.3466 127.157 43.5123C127.079 43.595 127.014 43.6564 126.97 43.696C126.948 43.7159 126.932 43.7303 126.921 43.7392L126.916 43.7438ZM126.908 43.7499C126.908 43.75 126.908 43.75 126.908 43.7499Z" fill="white" stroke="black" stroke-width="0.7" stroke-miterlimit="10"/>
<path d="M123.764 41.7295C123.469 41.9388 123.464 42.3485 123.485 42.574C123.536 42.9696 123.683 43.3467 123.914 43.672C124.145 43.9972 124.452 44.2605 124.809 44.4387C125.502 44.7548 126.303 44.6119 127.124 44.0263L127.855 45.055C126.664 45.9121 125.383 46.0918 124.279 45.5886C123.718 45.3207 123.234 44.9141 122.873 44.4073C122.513 43.9006 122.287 43.3103 122.218 42.6922C122.134 41.8542 122.431 41.1198 123.024 40.6962L123.764 41.7295Z" fill="white"/>
<mask id="mask2_307_153" style="mask-type:luminance" maskUnits="userSpaceOnUse" x="119" y="39" width="12" height="10">
<path d="M130.524 39.2074H119.846V48.3994H130.524V39.2074Z" fill="white"/>
<path d="M127.86 45.057C126.669 45.914 125.388 46.0937 124.284 45.5905C123.722 45.3226 123.239 44.9161 122.878 44.4093C122.518 43.9025 122.292 43.3122 122.223 42.6941C122.139 41.8562 122.436 41.1217 123.029 40.6982" fill="black"/>
</mask>
<g mask="url(#mask2_307_153)">
<path d="M124.284 45.5904L123.982 46.2223L123.993 46.2274L124.284 45.5904ZM122.223 42.694L121.526 42.7638L121.527 42.7718L122.223 42.694ZM127.451 44.4888C126.421 45.2303 125.405 45.3321 124.574 44.9535L123.993 46.2274C125.371 46.8552 126.918 46.5975 128.269 45.6249L127.451 44.4888ZM124.585 44.9587C124.131 44.742 123.74 44.4132 123.448 44.0034L122.308 44.815C122.737 45.4187 123.314 45.9031 123.982 46.2223L124.585 44.9587ZM123.448 44.0034C123.157 43.5935 122.975 43.1161 122.919 42.6162L121.527 42.7718C121.61 43.5081 121.878 44.2113 122.308 44.815L123.448 44.0034ZM122.919 42.6243C122.856 41.9897 123.082 41.5202 123.436 41.2677L122.622 40.1285C121.79 40.723 121.422 41.7225 121.526 42.7638L122.919 42.6243Z" fill="black"/>
</g>
<mask id="mask3_307_153" style="mask-type:luminance" maskUnits="userSpaceOnUse" x="123" y="41" width="5" height="4">
<path d="M123.765 41.7294C123.469 41.9387 123.465 42.3484 123.486 42.5739C123.536 42.9695 123.683 43.3466 123.914 43.6719C124.145 43.9971 124.452 44.2604 124.809 44.4386C125.503 44.7547 126.3 44.6062 127.121 44.0206" fill="black"/>
</mask>
<g mask="url(#mask3_307_153)">
<path d="M124.169 42.3005C124.485 42.077 124.559 41.64 124.336 41.3246C124.112 41.0092 123.675 40.9347 123.36 41.1583L124.169 42.3005ZM123.486 42.5739L122.789 42.6393L122.79 42.6509L122.791 42.6624L123.486 42.5739ZM124.809 44.4386L124.496 45.0649L124.508 45.0704L124.519 45.0755L124.809 44.4386ZM127.527 44.5904C127.842 44.3658 127.915 43.9287 127.691 43.614C127.466 43.2993 127.029 43.2262 126.714 43.4508L127.527 44.5904ZM123.36 41.1583C123.026 41.3948 122.883 41.7291 122.824 41.9911C122.765 42.2494 122.775 42.4907 122.789 42.6393L124.183 42.5085C124.179 42.4735 124.177 42.4348 124.179 42.3961C124.18 42.3568 124.184 42.3245 124.189 42.3C124.201 42.2485 124.208 42.2733 124.169 42.3005L123.36 41.1583ZM122.791 42.6624C122.856 43.1721 123.046 43.658 123.343 44.077L124.485 43.2667C124.321 43.0353 124.216 42.767 124.18 42.4855L122.791 42.6624ZM123.343 44.077C123.641 44.4961 124.037 44.8353 124.496 45.0649L125.122 43.8123C124.868 43.6855 124.649 43.4981 124.485 43.2667L123.343 44.077ZM124.519 45.0755C125.516 45.5302 126.582 45.2649 127.527 44.5904L126.714 43.4508C126.018 43.9476 125.489 43.9792 125.099 43.8016L124.519 45.0755Z" fill="black"/>
</g>
<path d="M127 44.3985L127.501 43.999L128 44.9985L127.5 45.2985L127 44.3985Z" fill="white"/>
<path d="M65.4002 93.0232C66.3889 94.3309 68.2504 94.5896 69.5581 93.6009C70.8658 92.6123 71.1245 90.7507 70.1358 89.443C69.1472 88.1353 67.2856 87.8767 65.9779 88.8653C64.6702 89.854 64.4116 91.7155 65.4002 93.0232Z" fill="black"/>
<path fill-rule="evenodd" clip-rule="evenodd" d="M75.826 91.9265C75.8332 91.9223 75.8401 91.9177 75.8468 91.9126C76.3109 91.5617 75.2543 89.3819 73.4867 87.0439C71.7191 84.7059 69.9099 83.095 69.4457 83.446C69.4391 83.451 69.4328 83.4564 69.4267 83.4622L69.4259 83.4611L65.1789 87.6977L65.1837 87.7042C64.4784 88.4119 65.0087 90.4135 66.4222 92.2831C67.8357 94.1527 69.6169 95.2086 70.4901 94.7229L70.495 94.7294L75.8269 91.9277L75.826 91.9265Z" fill="white"/>
<mask id="mask4_307_153" style="mask-type:luminance" maskUnits="userSpaceOnUse" x="64" y="83" width="12" height="12">
<path fill-rule="evenodd" clip-rule="evenodd" d="M75.826 91.9265C75.8332 91.9223 75.8401 91.9177 75.8468 91.9126C76.3109 91.5617 75.2543 89.3819 73.4867 87.0439C71.7191 84.7059 69.9099 83.095 69.4457 83.446C69.4391 83.451 69.4328 83.4564 69.4267 83.4622L69.4259 83.4611L65.1789 87.6977L65.1837 87.7042C64.4784 88.4119 65.0087 90.4135 66.4222 92.2831C67.8357 94.1527 69.6169 95.2086 70.4901 94.7229L70.495 94.7294L75.8269 91.9277L75.826 91.9265Z" fill="black"/>
</mask>
<g mask="url(#mask4_307_153)">
<path d="M75.8258 91.9264L75.4714 91.3228L74.793 91.721L75.2674 92.3486L75.8258 91.9264ZM69.4265 83.4621L68.8681 83.8842L69.3426 84.5117L69.9107 83.9676L69.4265 83.4621ZM69.4257 83.461L69.9841 83.0388L69.4998 82.3983L68.9313 82.9654L69.4257 83.461ZM65.1787 87.6976L64.6843 87.202L64.2523 87.633L64.6203 88.1198L65.1787 87.6976ZM65.1835 87.7041L65.6794 88.1982L66.1089 87.7673L65.7419 87.2819L65.1835 87.7041ZM70.4899 94.7228L71.0483 94.3007L70.6813 93.8153L70.1496 94.1111L70.4899 94.7228ZM70.4948 94.7293L69.9364 95.1514L70.2946 95.6252L70.8204 95.3489L70.4948 94.7293ZM75.8267 91.9276L76.1523 92.5473L76.8826 92.1636L76.3851 91.5055L75.8267 91.9276ZM76.1802 92.5301C76.2107 92.5122 76.2402 92.4925 76.2687 92.4709L75.4244 91.3541C75.4396 91.3427 75.4553 91.3322 75.4714 91.3228L76.1802 92.5301ZM76.2687 92.4709C76.5314 92.2724 76.6201 91.9908 76.6457 91.7843C76.671 91.5791 76.6459 91.3712 76.607 91.1876C76.5285 90.8166 76.357 90.3794 76.1334 89.918C75.6809 88.9846 74.9477 87.8157 74.0449 86.6216L72.9281 87.4659C73.793 88.6098 74.4718 89.6999 74.8736 90.5286C75.077 90.9483 75.1931 91.268 75.2374 91.4774C75.2599 91.5841 75.255 91.6223 75.2562 91.6126C75.2576 91.6017 75.2778 91.465 75.4244 91.3541L76.2687 92.4709ZM74.0449 86.6216C73.1421 85.4275 72.2174 84.4034 71.4427 83.7137C71.0598 83.3727 70.6859 83.0885 70.3503 82.9118C70.1843 82.8244 69.9911 82.7435 69.7868 82.712C69.5812 82.6803 69.286 82.6889 69.0234 82.8875L69.8677 84.0042C69.7211 84.1151 69.5841 84.0973 69.5731 84.0956C69.5635 84.0941 69.6016 84.0998 69.6981 84.1506C69.8875 84.2503 70.1634 84.4491 70.5118 84.7593C71.1996 85.3717 72.0633 86.322 72.9281 87.4659L74.0449 86.6216ZM69.0234 82.8875C68.9949 82.909 68.9679 82.9321 68.9423 82.9565L69.9107 83.9676C69.8972 83.9805 69.8829 83.9928 69.8677 84.0042L69.0234 82.8875ZM68.8673 83.8831L68.8681 83.8842L69.9849 83.0399L69.9841 83.0388L68.8673 83.8831ZM65.673 88.1932L69.9201 83.9565L68.9313 82.9654L64.6843 87.202L65.673 88.1932ZM65.7419 87.2819L65.737 87.2755L64.6203 88.1198L64.6252 88.1262L65.7419 87.2819ZM64.6877 87.2099C64.3592 87.5396 64.2197 87.9742 64.1833 88.3948C64.1468 88.8166 64.2078 89.2767 64.3322 89.7396C64.5814 90.6666 65.1147 91.7146 65.8636 92.7052L66.9804 91.8609C66.3158 90.9818 65.8772 90.0942 65.6842 89.3761C65.5875 89.0164 65.5598 88.7266 65.5781 88.5156C65.5965 88.3034 65.6552 88.2224 65.6794 88.1982L64.6877 87.2099ZM65.8636 92.7052C66.6125 93.6957 67.4754 94.4945 68.2994 94.987C68.7108 95.2329 69.1369 95.417 69.5526 95.4969C69.9672 95.5765 70.4234 95.5608 70.8302 95.3345L70.1496 94.1111C70.1198 94.1277 70.0258 94.1622 69.8167 94.122C69.6087 94.082 69.3374 93.9764 69.0177 93.7853C68.3794 93.4038 67.645 92.7399 66.9804 91.8609L65.8636 92.7052ZM71.0532 94.3071L71.0483 94.3007L69.9315 95.145L69.9364 95.1514L71.0532 94.3071ZM75.5011 91.308L70.1692 94.1096L70.8204 95.3489L76.1523 92.5473L75.5011 91.308ZM75.2674 92.3486L75.2683 92.3498L76.3851 91.5055L76.3842 91.5043L75.2674 92.3486Z" fill="black"/>
</g>
<path fill-rule="evenodd" clip-rule="evenodd" d="M75.5467 91.1933C75.5536 91.1893 75.5602 91.1849 75.5665 91.1801C75.9877 90.8617 75.0288 88.8835 73.4247 86.7617C71.8206 84.64 70.1787 83.1781 69.7575 83.4966C69.7512 83.5013 69.7452 83.5065 69.7395 83.512L69.7386 83.5108L65.8844 87.3556L65.8888 87.3615C65.2495 88.0043 65.7309 89.8201 67.0133 91.5163C68.2956 93.2125 69.9115 94.1707 70.7042 93.7308L70.7088 93.7369L75.5476 91.1944L75.5467 91.1933Z" fill="#EBE9E9"/>
<path d="M126.659 88.8634C127.964 87.8422 128.195 85.9557 127.174 84.6497C126.153 83.3438 124.266 83.113 122.96 84.1343C121.654 85.1555 121.424 87.0421 122.445 88.348C123.466 89.6539 125.353 89.8847 126.659 88.8634Z" fill="black"/>
<path fill-rule="evenodd" clip-rule="evenodd" d="M124.849 77.8407C124.844 77.8332 124.839 77.826 124.834 77.8191C124.471 77.3556 122.285 78.4599 119.95 80.2858C117.615 82.1116 116.016 83.9676 116.379 84.4311C116.384 84.438 116.39 84.4446 116.396 84.4508L116.395 84.4517L121.146 89.0504L121.153 89.0454C121.881 89.7455 123.895 89.1761 125.761 87.7166C127.627 86.2572 128.665 84.4397 128.161 83.5643L128.168 83.5591L124.85 77.8397L124.849 77.8407Z" fill="white"/>
<mask id="mask5_307_153" style="mask-type:luminance" maskUnits="userSpaceOnUse" x="116" y="77" width="13" height="13">
<path fill-rule="evenodd" clip-rule="evenodd" d="M124.849 77.8407C124.844 77.8332 124.839 77.826 124.834 77.8191C124.471 77.3556 122.285 78.4599 119.95 80.2858C117.615 82.1116 116.016 83.9676 116.379 84.4311C116.384 84.438 116.39 84.4446 116.396 84.4508L116.395 84.4517L121.146 89.0504L121.153 89.0454C121.881 89.7455 123.895 89.1761 125.761 87.7166C127.627 86.2572 128.665 84.4397 128.161 83.5643L128.168 83.5591L124.85 77.8397L124.849 77.8407Z" fill="black"/>
</mask>
<g mask="url(#mask5_307_153)">
<path d="M124.848 77.8407L124.248 78.2022L124.657 78.879L125.279 78.3921L124.848 77.8407ZM116.395 84.4508L116.826 85.0022L117.449 84.5154L116.89 83.9561L116.395 84.4508ZM116.394 84.4517L115.963 83.9003L115.33 84.3955L115.907 84.9546L116.394 84.4517ZM121.145 89.0504L120.658 89.5534L121.096 89.9773L121.576 89.6018L121.145 89.0504ZM121.152 89.0454L121.637 88.5408L121.199 88.1197L120.72 88.4939L121.152 89.0454ZM128.16 83.5643L127.729 83.0129L127.251 83.3871L127.554 83.9136L128.16 83.5643ZM128.167 83.5591L128.598 84.1105L129.078 83.7351L128.773 83.2078L128.167 83.5591ZM124.849 77.8397L125.455 77.4884L125.051 76.793L124.418 77.2882L124.849 77.8397ZM125.447 77.4792C125.428 77.4477 125.407 77.4172 125.384 77.3879L124.282 78.2503C124.269 78.2348 124.258 78.2187 124.248 78.2022L125.447 77.4792ZM125.384 77.3879C125.181 77.1279 124.897 77.0433 124.689 77.0211C124.483 76.999 124.274 77.0276 124.089 77.0698C123.716 77.1551 123.278 77.3354 122.815 77.5691C121.879 78.0417 120.71 78.8021 119.518 79.7344L120.38 80.8372C121.523 79.9437 122.614 79.2389 123.446 78.8187C123.867 78.606 124.189 78.483 124.401 78.4346C124.509 78.4099 124.549 78.4141 124.54 78.4131C124.53 78.4121 124.394 78.3944 124.282 78.2503L125.384 77.3879ZM119.518 79.7344C118.326 80.6667 117.306 81.6182 116.622 82.4124C116.283 82.8051 116.003 83.1873 115.83 83.5287C115.744 83.6976 115.666 83.8934 115.638 84.0993C115.609 84.3065 115.623 84.6023 115.826 84.8623L116.929 83.9999C117.042 84.144 117.026 84.2804 117.025 84.2903C117.024 84.2988 117.029 84.2594 117.079 84.1605C117.177 83.9665 117.374 83.6837 117.682 83.3262C118.291 82.6201 119.238 81.7307 120.38 80.8372L119.518 79.7344ZM115.826 84.8623C115.849 84.8916 115.874 84.9194 115.9 84.9454L116.89 83.9561C116.904 83.9698 116.917 83.9844 116.929 83.9999L115.826 84.8623ZM116.825 85.0031L116.826 85.0022L115.964 83.8994L115.963 83.9003L116.825 85.0031ZM121.632 88.5475L116.881 83.9487L115.907 84.9546L120.658 89.5534L121.632 88.5475ZM120.72 88.4939L120.714 88.499L121.576 89.6018L121.583 89.5968L120.72 88.4939ZM120.666 89.5499C121.004 89.8742 121.443 90.0072 121.868 90.0367C122.293 90.0663 122.757 89.9971 123.222 89.8637C124.154 89.5967 125.203 89.0408 126.191 88.268L125.329 87.1652C124.451 87.8519 123.56 88.3105 122.836 88.5179C122.473 88.6219 122.18 88.655 121.965 88.64C121.749 88.625 121.663 88.5666 121.637 88.5408L120.666 89.5499ZM126.191 88.268C127.179 87.4953 127.972 86.6108 128.456 85.7708C128.697 85.3515 128.876 84.9187 128.95 84.4984C129.024 84.0792 129.001 83.6205 128.767 83.215L127.554 83.9136C127.572 83.9458 127.609 84.0425 127.571 84.256C127.534 84.4682 127.431 84.7452 127.242 85.0721C126.867 85.7246 126.207 86.4785 125.329 87.1652L126.191 88.268ZM127.736 83.0077L127.729 83.0129L128.592 84.1157L128.598 84.1105L127.736 83.0077ZM124.244 78.1909L127.562 83.9103L128.773 83.2078L125.455 77.4884L124.244 78.1909ZM125.279 78.3921L125.28 78.3911L124.418 77.2882L124.417 77.2893L125.279 78.3921Z" fill="black"/>
</g>
<path d="M119.328 85.5206L117.369 83.3295L123.398 77.5537C124.549 79.2967 126.625 83.1746 127.092 84.2438C127.558 85.313 125.691 86.6896 124.699 87.2443C124.629 87.1407 124.121 86.7191 122.647 85.8616C121.173 85.004 119.727 85.3754 119.328 85.5206Z" fill="#EBE9E9"/>
<path fill-rule="evenodd" clip-rule="evenodd" d="M96.0011 40.5764L77.5382 47.2964C64.8012 51.9846 58.2448 66.096 62.8908 78.8606C67.5471 91.6538 81.6928 98.25 94.486 93.5937C94.5188 93.5818 94.5515 93.5698 94.5842 93.5577L112.863 86.9047L112.862 86.9013C113.005 86.8521 113.148 86.8015 113.291 86.7496C126.084 82.0932 132.68 67.9476 128.024 55.1544C123.367 42.3612 109.222 35.7649 96.4287 40.4213C96.2859 40.4733 96.1439 40.5264 96.0027 40.5807L96.0011 40.5764Z" fill="white"/>
<mask id="mask6_307_153" style="mask-type:luminance" maskUnits="userSpaceOnUse" x="61" y="38" width="69" height="58">
<path fill-rule="evenodd" clip-rule="evenodd" d="M96.0011 40.5764L77.5382 47.2964C64.8012 51.9846 58.2448 66.096 62.8908 78.8606C67.5471 91.6538 81.6928 98.25 94.486 93.5937C94.5188 93.5818 94.5515 93.5698 94.5842 93.5577L112.863 86.9047L112.862 86.9013C113.005 86.8521 113.148 86.8015 113.291 86.7496C126.084 82.0932 132.68 67.9476 128.024 55.1544C123.367 42.3612 109.222 35.7649 96.4287 40.4213C96.2859 40.4733 96.1439 40.5264 96.0027 40.5807L96.0011 40.5764Z" fill="black"/>
</mask>
<g mask="url(#mask6_307_153)">
<path d="M77.5382 47.2964L77.2988 46.6386L76.641 46.878L76.8804 47.5358L77.5382 47.2964ZM96.0011 40.5764L96.6589 40.337L96.4195 39.6792L95.7617 39.9186L96.0011 40.5764ZM77.5382 47.2964L77.7801 47.9537L78.4347 47.7127L78.1961 47.0573L77.5382 47.2964ZM94.5842 93.5577L94.3448 92.8999L94.3421 92.9009L94.5842 93.5577ZM112.863 86.9047L113.102 87.5625L113.76 87.3231L113.521 86.6653L112.863 86.9047ZM112.862 86.9013L112.634 86.2393L111.96 86.4709L112.204 87.1407L112.862 86.9013ZM96.0027 40.5807L95.3449 40.8201L95.5887 41.4899L96.254 41.2341L96.0027 40.5807ZM77.7776 47.9542L96.2405 41.2342L95.7617 39.9186L77.2988 46.6386L77.7776 47.9542ZM63.5486 78.6212C59.0345 66.219 65.4048 52.5087 77.7801 47.9537L77.2965 46.6398C64.1977 51.4611 57.4551 65.9729 62.233 79.1L63.5486 78.6212ZM94.2466 92.9359C81.8166 97.46 68.0727 91.0511 63.5486 78.6212L62.233 79.1C67.0216 92.2565 81.5689 99.0401 94.7254 94.2515L94.2466 92.9359ZM94.3421 92.9009C94.3103 92.9126 94.2784 92.9243 94.2466 92.9359L94.7254 94.2515C94.7591 94.2392 94.7928 94.2269 94.8264 94.2145L94.3421 92.9009ZM112.624 86.2469L94.3448 92.8999L94.8236 94.2155L113.102 87.5625L112.624 86.2469ZM112.204 87.1407L112.205 87.1441L113.521 86.6653L113.519 86.6619L112.204 87.1407ZM113.051 86.0918C112.912 86.1423 112.773 86.1915 112.634 86.2393L113.089 87.5633C113.236 87.5127 113.383 87.4608 113.53 87.4073L113.051 86.0918ZM127.366 55.3938C131.89 67.8237 125.481 81.5676 113.051 86.0918L113.53 87.4073C126.686 82.6188 133.47 68.0714 128.681 54.915L127.366 55.3938ZM96.6681 41.0791C109.098 36.555 122.842 42.9639 127.366 55.3938L128.681 54.915C123.893 41.7585 109.345 34.9749 96.1893 39.7635L96.6681 41.0791ZM96.254 41.2341C96.3913 41.1813 96.5293 41.1296 96.6681 41.0791L96.1893 39.7635C96.0426 39.8169 95.8966 39.8715 95.7514 39.9274L96.254 41.2341ZM95.3433 40.8158L95.3449 40.8201L96.6605 40.3413L96.6589 40.337L95.3433 40.8158Z" fill="black"/>
</g>
<path d="M68.416 52.5533L68.7271 53.408L72.4998 50.9995L76.4998 48.9995L74.82 48.2864L74.461 48.4171L68.416 52.5533Z" fill="white"/>
<path d="M96.8299 59.3452C96.5811 58.6614 95.7106 58.3975 95.3064 58.351L94.9199 65.2676C95.5649 65.0006 96.9884 64.3018 97.5229 63.6426C98.191 62.8187 97.1411 60.2 96.8299 59.3452Z" fill="#EBE9E9"/>
<path d="M113.747 81.3568C126.335 76.1556 128.334 63.7217 127.76 58.155C129.146 68.8791 126.614 74.1567 121.308 80.0568C116.002 85.9568 100.235 90.2435 97.1269 91.2781C94.0186 92.3126 98.2692 90.9591 90.0166 93.2852C83.4145 95.1461 76.6469 92.2788 73.9366 90.329L72.5068 90.6558L74.4803 89.1631L77.1452 86.6444C77.355 86.6003 78.1601 86.5073 79.7019 86.4882C81.6292 86.4643 82.1506 88.6946 89.3469 88.7857C96.5433 88.8769 98.0118 87.8584 113.747 81.3568Z" fill="#EBE9E9"/>
<path d="M91.9571 60.0531C90.8685 58.1261 88.7515 56.1217 87.8291 55.3604C88.8678 55.1114 91.1473 54.6366 91.9555 54.7296C92.9658 54.8459 94.7228 57.0136 95.1895 58.2958C95.5628 59.3215 95.1288 63.4483 94.8652 65.3834C94.3494 64.4095 93.0456 61.9801 91.9571 60.0531Z" stroke="black" stroke-width="0.7"/>
<path d="M97.5008 64.9086C97.9152 64.6287 98.716 63.8855 98.6038 63.152C98.4637 62.235 97.81 59.3753 97.4446 58.6371C97.0791 57.8989 95.6562 55.3192 93.8608 54.9079C92.4246 54.5788 90.8636 54.7404 90.2627 54.8623" stroke="black" stroke-width="0.7"/>
<path d="M67.5596 48.6058C67.4602 49.1841 68.1395 52.2431 68.4999 53.4994C69.1448 52.8775 69.9542 51.9935 71.0886 51.387C71.9962 50.9018 73.5182 50.4382 74.1658 50.267C72.7122 49.3763 69.7415 47.5794 69.4865 47.5173C69.1679 47.4396 67.6837 47.8831 67.5596 48.6058Z" stroke="black" stroke-width="0.7"/>
<path d="M76.2791 48.6265C75.2636 48.3185 73.0009 47.6513 72.0744 47.4465C70.9164 47.1903 69.614 47.3352 68.8447 47.6152" stroke="black" stroke-width="0.7"/>
<path d="M92.0193 102.648C93.6448 102.322 94.6981 100.74 94.3721 99.115C94.0461 97.4895 92.4641 96.4361 90.8386 96.7622C89.2132 97.0882 88.1598 98.6702 88.4859 100.296C88.8119 101.921 90.3939 102.974 92.0193 102.648Z" fill="black"/>
<path fill-rule="evenodd" clip-rule="evenodd" d="M95.6021 92.6704C95.6014 92.6617 95.6002 92.6531 95.5985 92.6446C95.4828 92.0677 93.0331 92.0725 90.127 92.6554C87.2209 93.2384 84.9588 94.1786 85.0746 94.7556C85.0763 94.7641 85.0785 94.7725 85.0812 94.7807L85.0795 94.7811L87.0728 100.511L87.081 100.509C87.4167 101.462 89.4723 101.858 91.7954 101.392C94.1186 100.926 95.8625 99.7677 95.8048 98.7592L95.813 98.7575L95.6034 92.6701L95.6021 92.6704Z" fill="white"/>
<mask id="mask7_307_153" style="mask-type:luminance" maskUnits="userSpaceOnUse" x="85" y="92" width="11" height="10">
<path fill-rule="evenodd" clip-rule="evenodd" d="M95.6021 92.6704C95.6014 92.6617 95.6002 92.6531 95.5985 92.6446C95.4828 92.0677 93.0331 92.0725 90.127 92.6554C87.2209 93.2384 84.9588 94.1786 85.0746 94.7556C85.0763 94.7641 85.0785 94.7725 85.0812 94.7807L85.0795 94.7811L87.0728 100.511L87.081 100.509C87.4167 101.462 89.4723 101.858 91.7954 101.392C94.1186 100.926 95.8625 99.7677 95.8048 98.7592L95.813 98.7575L95.6034 92.6701L95.6021 92.6704Z" fill="black"/>
</mask>
<g mask="url(#mask7_307_153)">
<path d="M95.6018 92.6705L94.9039 92.7251L94.9655 93.5121L95.7394 93.3568L95.6018 92.6705ZM85.0809 94.7808L85.2186 95.4672L85.9926 95.3119L85.7458 94.5621L85.0809 94.7808ZM85.0792 94.7812L84.9416 94.0948L84.1543 94.2528L84.4181 95.0112L85.0792 94.7812ZM87.0725 100.511L86.4113 100.741L86.6118 101.317L87.2101 101.197L87.0725 100.511ZM87.0807 100.509L87.7409 100.276L87.5389 99.7033L86.943 99.8228L87.0807 100.509ZM95.8045 98.7593L95.6669 98.0729L95.071 98.1925L95.1057 98.7992L95.8045 98.7593ZM95.8127 98.7576L95.9503 99.444L96.5327 99.3271L96.5122 98.7336L95.8127 98.7576ZM95.6031 92.6702L96.3027 92.6461L96.2744 91.8216L95.4655 91.9839L95.6031 92.6702ZM96.2996 92.6159C96.2968 92.5796 96.2918 92.5432 96.2845 92.5071L94.9119 92.7824C94.908 92.7632 94.9054 92.7441 94.9039 92.7251L96.2996 92.6159ZM96.2845 92.5071C96.2196 92.1835 96.004 91.9805 95.8282 91.8672C95.6534 91.7546 95.4539 91.6864 95.2701 91.6413C94.8986 91.55 94.4257 91.5142 93.9074 91.5152C92.8592 91.5173 91.4729 91.6716 89.989 91.9692L90.2644 93.3419C91.6865 93.0566 92.9782 92.917 93.9102 92.9152C94.3821 92.9142 94.725 92.949 94.9361 93.0008C95.0437 93.0273 95.0772 93.0488 95.0699 93.0441C95.0616 93.0387 94.9478 92.9618 94.9119 92.7824L96.2845 92.5071ZM89.989 91.9692C88.5051 92.2669 87.1666 92.6591 86.1986 93.0615C85.7201 93.2604 85.2976 93.4758 84.99 93.7033C84.8378 93.8158 84.68 93.9557 84.5622 94.127C84.4437 94.2993 84.323 94.5697 84.3879 94.8933L85.7606 94.618C85.7966 94.7974 85.7213 94.9122 85.7157 94.9204C85.7108 94.9275 85.7334 94.8947 85.8225 94.8289C85.9973 94.6996 86.3002 94.5354 86.736 94.3542C87.5966 93.9965 88.8422 93.6271 90.2644 93.3419L89.989 91.9692ZM84.3879 94.8933C84.3952 94.9295 84.4046 94.965 84.416 94.9996L85.7458 94.5621C85.7518 94.5802 85.7568 94.5989 85.7606 94.618L84.3879 94.8933ZM85.2169 95.4675L85.2186 95.4672L84.9432 94.0945L84.9416 94.0948L85.2169 95.4675ZM87.7336 100.281L85.7404 94.5512L84.4181 95.0112L86.4113 100.741L87.7336 100.281ZM86.943 99.8228L86.9348 99.8245L87.2101 101.197L87.2183 101.195L86.943 99.8228ZM86.4205 100.742C86.576 101.183 86.9091 101.499 87.2752 101.717C87.6423 101.934 88.0872 102.08 88.5627 102.17C89.5153 102.35 90.7027 102.325 91.9328 102.078L91.6575 100.705C90.5644 100.925 89.5625 100.934 88.8225 100.795C88.4518 100.725 88.1746 100.622 87.9893 100.512C87.8029 100.402 87.7532 100.311 87.7409 100.276L86.4205 100.742ZM91.9328 102.078C93.1629 101.831 94.2682 101.397 95.0777 100.863C95.4819 100.597 95.836 100.291 96.0907 99.9483C96.3448 99.6068 96.5301 99.1865 96.5034 98.7193L95.1057 98.7992C95.1078 98.8363 95.0968 98.9389 94.9675 99.1127C94.8388 99.2856 94.6226 99.4868 94.3075 99.6944C93.6787 100.109 92.7505 100.486 91.6575 100.705L91.9328 102.078ZM95.675 98.0713L95.6669 98.0729L95.9422 99.4456L95.9503 99.444L95.675 98.0713ZM94.9036 92.6943L95.1131 98.7817L96.5122 98.7336L96.3027 92.6461L94.9036 92.6943ZM95.7394 93.3568L95.7408 93.3566L95.4655 91.9839L95.4641 91.9842L95.7394 93.3568Z" fill="black"/>
</g>
<path d="M90.8033 94.6448C90.3493 94.0356 87.9276 93.6587 86.0625 93.8535L96.8325 89.9335L97.7498 90.8581C96.7811 91.2107 95.5493 91.8333 94.9527 92.7474C94.2069 93.8899 95.4205 98.2884 94.7524 99.1123C94.218 99.7715 93.0482 99.9262 92.5301 99.9212C92.2732 98.24 91.2573 95.254 90.8033 94.6448Z" fill="#EBE9E9"/>
<mask id="mask8_307_153" style="mask-type:luminance" maskUnits="userSpaceOnUse" x="85" y="92" width="11" height="10">
<path fill-rule="evenodd" clip-rule="evenodd" d="M95.6021 92.6704C95.6014 92.6617 95.6002 92.6531 95.5985 92.6446C95.4828 92.0677 93.0331 92.0725 90.127 92.6554C87.2209 93.2384 84.9588 94.1786 85.0746 94.7556C85.0763 94.7641 85.0785 94.7725 85.0812 94.7807L85.0795 94.7811L87.0728 100.511L87.081 100.509C87.4167 101.462 89.4723 101.858 91.7954 101.392C94.1186 100.926 95.8625 99.7677 95.8048 98.7592L95.813 98.7575L95.6034 92.6701L95.6021 92.6704Z" fill="black"/>
</mask>
<g mask="url(#mask8_307_153)">
<path d="M95.6018 92.6705L94.9039 92.7251L94.9655 93.5121L95.7394 93.3568L95.6018 92.6705ZM85.0809 94.7808L85.2186 95.4672L85.9926 95.3119L85.7458 94.5621L85.0809 94.7808ZM85.0792 94.7812L84.9416 94.0948L84.1543 94.2528L84.4181 95.0112L85.0792 94.7812ZM87.0725 100.511L86.4113 100.741L86.6118 101.317L87.2101 101.197L87.0725 100.511ZM87.0807 100.509L87.7409 100.276L87.5389 99.7033L86.943 99.8228L87.0807 100.509ZM95.8045 98.7593L95.6669 98.0729L95.071 98.1925L95.1057 98.7992L95.8045 98.7593ZM95.8127 98.7576L95.9503 99.444L96.5327 99.3271L96.5122 98.7336L95.8127 98.7576ZM95.6031 92.6702L96.3027 92.6461L96.2744 91.8216L95.4655 91.9839L95.6031 92.6702ZM96.2996 92.6159C96.2968 92.5796 96.2918 92.5432 96.2845 92.5071L94.9119 92.7824C94.908 92.7632 94.9054 92.7441 94.9039 92.7251L96.2996 92.6159ZM96.2845 92.5071C96.2196 92.1835 96.004 91.9805 95.8282 91.8672C95.6534 91.7546 95.4539 91.6864 95.2701 91.6413C94.8986 91.55 94.4257 91.5142 93.9074 91.5152C92.8592 91.5173 91.4729 91.6716 89.989 91.9692L90.2644 93.3419C91.6865 93.0566 92.9782 92.917 93.9102 92.9152C94.3821 92.9142 94.725 92.949 94.9361 93.0008C95.0437 93.0273 95.0772 93.0488 95.0699 93.0441C95.0616 93.0387 94.9478 92.9618 94.9119 92.7824L96.2845 92.5071ZM89.989 91.9692C88.5051 92.2669 87.1666 92.6591 86.1986 93.0615C85.7201 93.2604 85.2976 93.4758 84.99 93.7033C84.8378 93.8158 84.68 93.9557 84.5622 94.127C84.4437 94.2993 84.323 94.5697 84.3879 94.8933L85.7606 94.618C85.7966 94.7974 85.7213 94.9122 85.7157 94.9204C85.7108 94.9275 85.7334 94.8947 85.8225 94.8289C85.9973 94.6996 86.3002 94.5354 86.736 94.3542C87.5966 93.9965 88.8422 93.6271 90.2644 93.3419L89.989 91.9692ZM84.3879 94.8933C84.3952 94.9295 84.4046 94.965 84.416 94.9996L85.7458 94.5621C85.7518 94.5802 85.7568 94.5989 85.7606 94.618L84.3879 94.8933ZM85.2169 95.4675L85.2186 95.4672L84.9432 94.0945L84.9416 94.0948L85.2169 95.4675ZM87.7336 100.281L85.7404 94.5512L84.4181 95.0112L86.4113 100.741L87.7336 100.281ZM86.943 99.8228L86.9348 99.8245L87.2101 101.197L87.2183 101.195L86.943 99.8228ZM86.4205 100.742C86.576 101.183 86.9091 101.499 87.2752 101.717C87.6423 101.934 88.0872 102.08 88.5627 102.17C89.5153 102.35 90.7027 102.325 91.9328 102.078L91.6575 100.705C90.5644 100.925 89.5625 100.934 88.8225 100.795C88.4518 100.725 88.1746 100.622 87.9893 100.512C87.8029 100.402 87.7532 100.311 87.7409 100.276L86.4205 100.742ZM91.9328 102.078C93.1629 101.831 94.2682 101.397 95.0777 100.863C95.4819 100.597 95.836 100.291 96.0907 99.9483C96.3448 99.6068 96.5301 99.1865 96.5034 98.7193L95.1057 98.7992C95.1078 98.8363 95.0968 98.9389 94.9675 99.1127C94.8388 99.2856 94.6226 99.4868 94.3075 99.6944C93.6787 100.109 92.7505 100.486 91.6575 100.705L91.9328 102.078ZM95.675 98.0713L95.6669 98.0729L95.9422 99.4456L95.9503 99.444L95.675 98.0713ZM94.9036 92.6943L95.1131 98.7817L96.5122 98.7336L96.3027 92.6461L94.9036 92.6943ZM95.7394 93.3568L95.7408 93.3566L95.4655 91.9839L95.4641 91.9842L95.7394 93.3568Z" fill="black"/>
</g>
<path d="M71.4814 74.4859L69.9481 73.8664C67.8113 73.0034 65.8259 73.218 64.4438 74.2565L61.918 76.1518C63.3012 75.1139 65.2855 74.8988 67.4223 75.7617L68.9556 76.3812C72.7657 77.9204 75.6172 82.3066 75.3237 86.1773C75.1947 87.8777 73.1315 89.9132 72.0482 90.7264L76.3688 89.8314C76.3688 89.8314 79.8287 89.2497 79.8966 88.3538C79.9992 87.0007 77.6692 81.5124 77.0966 80.1769C76.0312 77.6921 73.9585 75.4865 71.4803 74.4854L71.4814 74.4859Z" fill="white" stroke="black" stroke-width="0.7" stroke-miterlimit="10" stroke-linejoin="bevel"/>
<mask id="mask9_307_153" style="mask-type:alpha" maskUnits="userSpaceOnUse" x="61" y="72" width="20" height="20">
<path d="M71.4815 74.4859L69.9482 73.8664C67.8114 73.0034 65.8259 73.218 64.4439 74.2565L61.918 76.1518C63.3013 75.1139 65.2855 74.8988 67.4223 75.7617L68.9556 76.3812C72.7658 77.9204 75.6172 82.3066 75.3237 86.1773C75.1947 87.8777 73.1315 89.9132 72.0482 90.7264L76.3689 89.8314C76.3689 89.8314 79.8287 89.2497 79.8967 88.3538C79.9993 87.0007 77.6693 81.5124 77.0967 80.1769C76.0312 77.6921 73.9586 75.4865 71.4803 74.4854L71.4815 74.4859Z" fill="white" stroke="black" stroke-width="0.7" stroke-miterlimit="10" stroke-linejoin="bevel"/>
</mask>
<g mask="url(#mask9_307_153)">
<path d="M79 79L73.5 81.5L72.5 91.5L81.5 90.5L79 79Z" fill="#EBE9E9"/>
<path d="M71.4815 74.4859L69.9482 73.8664C67.8114 73.0034 65.8259 73.218 64.4439 74.2565L61.918 76.1518C63.3013 75.1139 65.2855 74.8988 67.4223 75.7617L68.9556 76.3812C72.7658 77.9204 75.6172 82.3066 75.3237 86.1773C75.1947 87.8777 73.1315 89.9132 72.0482 90.7264L76.3689 89.8314C76.3689 89.8314 79.8287 89.2497 79.8967 88.3538C79.9993 87.0007 77.6693 81.5124 77.0967 80.1769C76.0312 77.6921 73.9586 75.4865 71.4803 74.4854L71.4815 74.4859Z" stroke="black" stroke-width="0.7" stroke-miterlimit="10" stroke-linejoin="bevel"/>
</g>
<path d="M68.9559 76.3815C72.7661 77.9207 75.6175 82.3069 75.324 86.1776C75.0305 90.0483 71.704 91.9385 67.8938 90.3993L66.3605 89.7798C62.5506 88.2415 59.6992 83.8552 59.9924 79.9836C60.2859 76.1129 63.6133 74.2225 67.4226 75.762L68.9559 76.3815Z" fill="#7284DA" stroke="black" stroke-width="0.7" stroke-miterlimit="10"/>
<path d="M76.6226 66.7594C76.8429 65.9364 77.6648 65.4363 78.5017 65.5959C79.4661 65.7799 80.0613 66.7568 79.8129 67.7067C79.6384 68.3735 79.4557 69.1228 79.3353 69.7538C79.2077 70.4229 79.0898 71.2758 78.997 72.0291C78.8774 72.9994 77.967 73.6813 77.0067 73.4981C76.1646 73.3375 75.5832 72.5625 75.6843 71.7112C75.7816 70.8911 75.9144 69.8909 76.0597 69.129C76.1999 68.3939 76.4249 67.4981 76.6226 66.7594Z" fill="black"/>
<path d="M64.959 63.6335C65.1604 62.8811 65.9117 62.424 66.6768 62.57C67.5584 62.7381 68.1025 63.6312 67.8754 64.4995C67.7159 65.109 67.5488 65.7942 67.4388 66.371C67.3221 66.9827 67.2143 67.7622 67.1295 68.4508C67.0203 69.3378 66.188 69.9614 65.3101 69.7939C64.5403 69.6471 64.0088 68.9385 64.1012 68.1603C64.1902 67.4107 64.3116 66.4962 64.4444 65.7997C64.5726 65.1277 64.7782 64.3088 64.959 63.6335Z" fill="black"/>
<path d="M79.8894 48.9729C79.7346 49.0292 79.6401 49.1859 79.6624 49.3491C79.6847 49.5124 79.8178 49.6379 79.982 49.6507L84.3652 49.9914C84.415 49.9952 84.4651 49.9884 84.512 49.9713L105.027 42.5047C105.182 42.4483 105.276 42.2917 105.254 42.1284C105.232 41.9652 105.099 41.8396 104.934 41.8268L100.551 41.4862C100.501 41.4823 100.451 41.4892 100.404 41.5062L79.8894 48.9729Z" fill="black" stroke="black" stroke-width="0.7" stroke-linejoin="round"/>
<path d="M70.8715 84.1845C70.9768 85.2234 70.4041 85.9741 69.7824 86.0371C69.1608 86.1002 68.449 85.4797 68.3437 84.4408C68.2383 83.4018 68.811 82.6511 69.4326 82.5881C70.0543 82.525 70.7662 83.1455 70.8715 84.1845Z" fill="#EBE9E9" stroke="black" stroke-width="0.7"/>
<mask id="mask10_307_153" style="mask-type:alpha" maskUnits="userSpaceOnUse" x="67" y="82" width="5" height="5">
<path d="M69.8176 86.3854C70.708 86.2951 71.3356 85.2939 71.2196 84.1491C71.1035 83.0044 70.2876 82.1496 69.3973 82.2399C68.5069 82.3301 67.8792 83.3313 67.9953 84.4761C68.1114 85.6208 68.9272 86.4756 69.8176 86.3854Z" fill="black"/>
</mask>
<g mask="url(#mask10_307_153)">
<path d="M70.4387 85.9654C71.3291 85.8751 71.9567 84.874 71.8407 83.7292C71.7246 82.5845 70.9087 81.7297 70.0184 81.8199C69.128 81.9102 68.5003 82.9114 68.6164 84.0561C68.7325 85.2009 69.5483 86.0557 70.4387 85.9654Z" fill="black"/>
</g>
<path d="M64.906 81.7255C65.0045 82.6965 64.4689 83.3879 63.9001 83.4455C63.3312 83.5032 62.6678 82.9334 62.5694 81.9624C62.4709 80.9913 63.0064 80.3 63.5753 80.2423C64.1442 80.1846 64.8075 80.7544 64.906 81.7255Z" fill="#EBE9E9" stroke="black" stroke-width="0.7"/>
<mask id="mask11_307_153" style="mask-type:alpha" maskUnits="userSpaceOnUse" x="62" y="79" width="4" height="5">
<path d="M63.9354 83.7938C64.7729 83.7088 65.3634 82.767 65.2542 81.6902C65.145 80.6133 64.3775 79.8092 63.54 79.8941C62.7024 79.979 62.1119 80.9208 62.2211 81.9977C62.3303 83.0745 63.0978 83.8787 63.9354 83.7938Z" fill="black"/>
</mask>
<g mask="url(#mask11_307_153)">
<path d="M64.5203 83.3982C65.3579 83.3133 65.9483 82.3715 65.8392 81.2947C65.73 80.2178 64.9625 79.4137 64.1249 79.4986C63.2874 79.5835 62.6969 80.5253 62.8061 81.6022C62.9153 82.679 63.6828 83.4832 64.5203 83.3982Z" fill="black"/>
</g>
</svg>
