<svg width="144" height="108" viewBox="0 0 144 108" fill="none" xmlns="http://www.w3.org/2000/svg">
<path d="M108.386 36.8219L104.911 35.551L100.549 47.4783L104.024 48.7492L108.386 36.8219Z" fill="white" stroke="black" stroke-width="0.7"/>
<path d="M107.5 39.6501C110.62 39.6501 113.15 37.1205 113.15 34.0001C113.15 30.8797 110.62 28.3501 107.5 28.3501C104.379 28.3501 101.85 30.8797 101.85 34.0001C101.85 37.1205 104.379 39.6501 107.5 39.6501Z" fill="#7284DA" stroke="black" stroke-width="0.7"/>
<path d="M94.9996 98.6501C110.823 98.6501 123.65 85.8231 123.65 70.0001C123.65 54.1771 110.823 41.3501 94.9996 41.3501C79.1767 41.3501 66.3496 54.1771 66.3496 70.0001C66.3496 85.8231 79.1767 98.6501 94.9996 98.6501Z" fill="#EBE9E9" stroke="black" stroke-width="0.7"/>
<mask id="mask0_307_130" style="mask-type:alpha" maskUnits="userSpaceOnUse" x="66" y="41" width="58" height="58">
<path d="M94.9996 98.6501C110.823 98.6501 123.65 85.8231 123.65 70.0001C123.65 54.1771 110.823 41.3501 94.9996 41.3501C79.1767 41.3501 66.3496 54.1771 66.3496 70.0001C66.3496 85.8231 79.1767 98.6501 94.9996 98.6501Z" fill="white" stroke="black" stroke-width="0.7"/>
</mask>
<g mask="url(#mask0_307_130)">
<path d="M91 93C107.016 93 120 80.0163 120 64C120 47.9837 107.016 35 91 35C74.9837 35 62 47.9837 62 64C62 80.0163 74.9837 93 91 93Z" fill="white"/>
<path d="M94.9996 98.6501C110.823 98.6501 123.65 85.8231 123.65 70.0001C123.65 54.1771 110.823 41.3501 94.9996 41.3501C79.1767 41.3501 66.3496 54.1771 66.3496 70.0001C66.3496 85.8231 79.1767 98.6501 94.9996 98.6501Z" stroke="black" stroke-width="0.7"/>
</g>
<path d="M100.778 55.0245L82.3426 50.428C75.5637 48.7378 68.6982 52.863 67.008 59.6419C65.3179 66.4208 69.4431 73.2863 76.222 74.9765L94.6576 79.573C101.436 81.2632 108.302 77.1379 109.992 70.3591C111.682 63.5802 107.557 56.7147 100.778 55.0245Z" fill="white" stroke="black" stroke-width="0.7"/>
<path d="M100.053 57.9355L81.6173 53.3389C76.446 52.0496 71.2087 55.1965 69.9194 60.3677C68.63 65.539 71.7769 70.7763 76.9482 72.0656L95.3838 76.6622C100.555 77.9515 105.792 74.8046 107.082 69.6334C108.371 64.4621 105.224 59.2248 100.053 57.9355Z" fill="black" stroke="black" stroke-width="0.7"/>
<path d="M98.7117 66.0009C98.999 64.8488 98.2978 63.6819 97.1457 63.3946C95.9936 63.1074 94.8267 63.8085 94.5394 64.9606L93.8137 67.8715C93.5264 69.0237 94.2275 70.1905 95.3797 70.4778C96.5318 70.7651 97.6987 70.0639 97.9859 68.9118L98.7117 66.0009Z" fill="white" stroke="black" stroke-width="0.7"/>
<path d="M83.1863 62.1298C83.4736 60.9777 82.7725 59.8108 81.6203 59.5236C80.4682 59.2363 79.3013 59.9374 79.014 61.0896L78.2883 64.0004C78.001 65.1526 78.7021 66.3194 79.8543 66.6067C81.0064 66.894 82.1733 66.1928 82.4606 65.0407L83.1863 62.1298Z" fill="white" stroke="black" stroke-width="0.7"/>
<path d="M129.183 73.9737C128.723 76.9193 127.549 79.4511 126.041 81.1653C124.529 82.8832 122.721 83.7438 120.97 83.4705C119.22 83.1972 117.759 81.8264 116.843 79.7295C115.929 77.6371 115.583 74.8679 116.042 71.9222C116.502 68.9766 117.676 66.4448 119.185 64.7306C120.696 63.0127 122.505 62.1521 124.255 62.4254C126.006 62.6987 127.466 64.0695 128.382 66.1664C129.296 68.2588 129.643 71.0281 129.183 73.9737Z" fill="#7284DA" stroke="black" stroke-width="0.7"/>
<path d="M127.436 73.8053C127.057 76.2295 126.193 78.3252 125.119 79.7545C124.034 81.1975 122.8 81.8879 121.674 81.7122C120.549 81.5364 119.583 80.5026 118.991 78.7978C118.403 77.1091 118.219 74.8497 118.597 72.4255C118.976 70.0013 119.84 67.9056 120.914 66.4763C121.998 65.0333 123.233 64.3429 124.358 64.5186C125.484 64.6944 126.449 65.7282 127.042 67.433C127.63 69.1217 127.814 71.3811 127.436 73.8053Z" fill="white" stroke="black" stroke-width="0.7"/>
<path d="M129.343 73.5982C128.884 76.5438 127.709 79.0756 126.201 80.7898C124.69 82.5077 122.881 83.3683 121.13 83.095C119.38 82.8217 117.92 81.4509 117.004 79.354C116.089 77.2616 115.743 74.4924 116.203 71.5467C116.662 68.6011 117.837 66.0693 119.345 64.3551C120.857 62.6372 122.665 61.7766 124.416 62.0499C126.166 62.3232 127.627 63.694 128.543 65.7909C129.457 67.8833 129.803 70.6526 129.343 73.5982Z" stroke="black" stroke-width="0.7"/>
</svg>
