<svg width="144" height="108" viewBox="0 0 144 108" fill="none" xmlns="http://www.w3.org/2000/svg">
<path d="M99.2936 94.0239C111.955 94.0239 122.219 92.7734 122.219 91.2307C122.219 89.6881 111.955 88.4375 99.2936 88.4375C86.6323 88.4375 76.3682 89.6881 76.3682 91.2307C76.3682 92.7734 86.6323 94.0239 99.2936 94.0239Z" fill="white" stroke="black" stroke-width="0.7" stroke-miterlimit="10"/>
<path d="M99.2937 94.0254C86.6329 94.0254 76.3682 92.7746 76.3682 91.2305V98.2065C76.3682 99.7489 86.6329 101 99.2937 101C111.954 101 122.219 99.7489 122.219 98.2065V91.2305C122.219 92.7729 111.954 94.0237 99.2937 94.0237V94.0254Z" fill="#EBE9E9" stroke="black" stroke-width="0.7" stroke-miterlimit="10"/>
<mask id="mask0_307_51" style="mask-type:alpha" maskUnits="userSpaceOnUse" x="76" y="91" width="47" height="11">
<path d="M99.2937 94.0254C86.6329 94.0254 76.3682 92.7746 76.3682 91.2305V98.2065C76.3682 99.7489 86.6329 101 99.2937 101C111.954 101 122.219 99.7489 122.219 98.2065V91.2305C122.219 92.7729 111.954 94.0237 99.2937 94.0237V94.0254Z" fill="#EBE9E9" stroke="black" stroke-width="0.7" stroke-miterlimit="10"/>
</mask>
<g mask="url(#mask0_307_51)">
<path d="M132.852 88.4375H109.84V103.081H132.852V88.4375Z" fill="black"/>
<path d="M129.364 88.7876H107.052V102.731H129.364V88.7876Z" stroke="black" stroke-width="0.7"/>
<path d="M99.2937 94.0254C86.6329 94.0254 76.3682 92.7746 76.3682 91.2305V98.2065C76.3682 99.7489 86.6329 101 99.2937 101C111.954 101 122.219 99.7489 122.219 98.2065V91.2305C122.219 92.7729 111.954 94.0237 99.2937 94.0237V94.0254Z" stroke="black" stroke-width="0.7" stroke-miterlimit="10"/>
</g>
<path d="M93.1039 76.9322L80.5519 49.7363L68 76.9322" stroke="black" stroke-width="0.7"/>
<mask id="mask1_307_51" style="mask-type:alpha" maskUnits="userSpaceOnUse" x="71" y="64" width="18" height="19">
<path d="M86.383 80.3653L86.3981 80.3515L86.3995 80.3502L86.4021 80.3477C86.4267 80.3249 86.4512 80.3018 86.4754 80.2784L86.478 80.2759L87.0034 79.7787L86.9769 79.7801L87.309 79.2191C87.9885 78.0713 88.2949 76.5636 88.0755 74.8051C87.7828 72.4578 86.6109 70.1368 84.9409 68.2881C83.2703 66.4389 81.123 65.0861 78.9052 64.645C77.2988 64.3255 75.8886 64.5296 74.7744 65.1197L74.2198 65.4134L74.166 65.4635L74.1774 65.4764L73.9039 65.7078C72.5093 66.888 71.7532 68.8856 72.0663 71.3958C72.3591 73.7431 73.5309 76.0641 75.201 77.9128C76.8716 79.762 79.0189 81.1148 81.2367 81.5559C83.3749 81.9812 85.1671 81.4802 86.383 80.3653Z" fill="#D9D9D9" stroke="black" stroke-width="0.7"/>
</mask>
<g mask="url(#mask1_307_51)">
<path d="M86.383 80.3653L86.3981 80.3515L86.3995 80.3502L86.4021 80.3477C86.4267 80.3249 86.4512 80.3018 86.4754 80.2784L86.478 80.2759L87.0034 79.7787L86.9769 79.7801L87.309 79.2191C87.9885 78.0713 88.2949 76.5636 88.0755 74.8051C87.7828 72.4578 86.6109 70.1368 84.9409 68.2881C83.2703 66.4389 81.123 65.0861 78.9052 64.645C77.2988 64.3255 75.8886 64.5296 74.7744 65.1197L74.2198 65.4134L74.166 65.4635L74.1774 65.4764L73.9039 65.7078C72.5093 66.888 71.7532 68.8856 72.0663 71.3958C72.3591 73.7431 73.5309 76.0641 75.201 77.9128C76.8716 79.762 79.0189 81.1148 81.2367 81.5559C83.3749 81.9812 85.1671 81.4802 86.383 80.3653Z" fill="#EBE9E9" stroke="black" stroke-width="0.7"/>
<path d="M79.1732 77.8643L76.4688 80.4535L84.8119 83.3945L88.9534 78.4726L79.1732 77.8643Z" fill="black"/>
<path d="M77.6869 77.4039L75.7414 79.3837L74.7725 78.5177L76.7972 76.3564L77.6869 77.4039Z" fill="black"/>
<path d="M86.383 80.3653L86.3981 80.3515L86.3995 80.3502L86.4021 80.3477C86.4267 80.3249 86.4512 80.3018 86.4754 80.2784L86.478 80.2759L87.0034 79.7787L86.9769 79.7801L87.309 79.2191C87.9885 78.0713 88.2949 76.5636 88.0755 74.8051C87.7828 72.4578 86.6109 70.1368 84.9409 68.2881C83.2703 66.4389 81.123 65.0861 78.9052 64.645C77.2988 64.3255 75.8886 64.5296 74.7744 65.1197L74.2198 65.4134L74.166 65.4635L74.1774 65.4764L73.9039 65.7078C72.5093 66.888 71.7532 68.8856 72.0663 71.3958C72.3591 73.7431 73.5309 76.0641 75.201 77.9128C76.8716 79.762 79.0189 81.1148 81.2367 81.5559C83.3749 81.9812 85.1671 81.4802 86.383 80.3653Z" fill="black" stroke="black" stroke-width="0.7"/>
</g>
<path d="M73.5535 70.1089C74.1374 74.7898 78.2063 79.2761 82.6164 80.1533C87.0265 81.0305 90.1547 77.9759 89.5708 73.2949C88.9869 68.6139 84.9181 64.1277 80.508 63.2505C76.0979 62.3732 72.9697 65.4279 73.5535 70.1089Z" fill="white" stroke="black" stroke-width="0.7"/>
<mask id="mask2_307_51" style="mask-type:alpha" maskUnits="userSpaceOnUse" x="75" y="65" width="13" height="14">
<path d="M75.7589 70.5488C76.1827 73.9466 79.1345 77.1963 82.3266 77.8313C85.5188 78.4663 87.7894 76.2554 87.3656 72.8575C86.9417 69.4596 83.99 66.2099 80.7978 65.575C77.6057 64.94 75.335 67.1509 75.7589 70.5488Z" fill="#66DD8C" stroke="black" stroke-width="0.7"/>
</mask>
<g mask="url(#mask2_307_51)">
<path d="M75.7589 70.5488C76.1827 73.9466 79.1345 77.1963 82.3266 77.8313C85.5188 78.4663 87.7894 76.2554 87.3656 72.8575C86.9417 69.4596 83.99 66.2099 80.7978 65.575C77.6057 64.94 75.335 67.1509 75.7589 70.5488Z" fill="#7284DA" stroke="black" stroke-width="0.7"/>
<path d="M75.3465 72.0541C75.752 75.305 78.5759 78.4131 81.6285 79.0203C84.6812 79.6275 86.8536 77.5132 86.4481 74.2623C86.0426 71.0114 83.2188 67.9033 80.1661 67.2961C77.1135 66.6889 74.941 68.8032 75.3465 72.0541Z" stroke="white" stroke-width="0.7"/>
<path d="M75.7589 70.5488C76.1827 73.9466 79.1345 77.1963 82.3266 77.8313C85.5188 78.4663 87.7894 76.2554 87.3656 72.8575C86.9417 69.4596 83.99 66.2099 80.7978 65.575C77.6057 64.94 75.335 67.1509 75.7589 70.5488Z" stroke="black" stroke-width="0.7"/>
</g>
<path d="M68 76.9326H93.1039C93.1039 80.3987 90.294 83.2086 86.8279 83.2086H74.276C70.8098 83.2086 68 80.3987 68 76.9326Z" fill="#EBE9E9" stroke="black" stroke-width="0.7"/>
<mask id="mask3_307_51" style="mask-type:alpha" maskUnits="userSpaceOnUse" x="67" y="76" width="27" height="8">
<path d="M68 76.9326H93.1039C93.1039 80.3987 90.294 83.2086 86.8279 83.2086H74.276C70.8098 83.2086 68 80.3987 68 76.9326Z" fill="#D9D9D9" stroke="black" stroke-width="0.7"/>
</mask>
<g mask="url(#mask3_307_51)">
<path d="M70.7195 84.2551C79.0382 84.2551 85.7818 81.4452 85.7818 77.9791C85.7818 74.513 79.0382 71.7031 70.7195 71.7031C62.4008 71.7031 55.6572 74.513 55.6572 77.9791C55.6572 81.4452 62.4008 84.2551 70.7195 84.2551Z" fill="white"/>
<path d="M68 76.9326H93.1039C93.1039 80.3987 90.294 83.2086 86.8279 83.2086H74.276C70.8098 83.2086 68 80.3987 68 76.9326Z" stroke="black" stroke-width="0.7"/>
</g>
<path d="M129.714 71.7017L117.162 44.5059L104.61 71.7017" stroke="black" stroke-width="0.7"/>
<mask id="mask4_307_51" style="mask-type:alpha" maskUnits="userSpaceOnUse" x="109" y="58" width="18" height="19">
<path d="M111.839 75.1348L111.824 75.1211L111.823 75.1197L111.82 75.1172C111.795 75.0944 111.771 75.0713 111.747 75.0479L111.744 75.0454L111.219 74.5483L111.245 74.5496L110.913 73.9886C110.233 72.8408 109.927 71.3331 110.146 69.5746C110.439 67.2274 111.611 64.9064 113.281 63.0577C114.952 61.2084 117.099 59.8557 119.317 59.4145C120.923 59.095 122.333 59.2992 123.448 59.8892L124.002 60.1829L124.056 60.233L124.045 60.2459L124.318 60.4773C125.713 61.6575 126.469 63.6551 126.156 66.1654C125.863 68.5126 124.691 70.8336 123.021 72.6823C121.35 74.5315 119.203 75.8843 116.985 76.3254C114.847 76.7508 113.055 76.2498 111.839 75.1348Z" fill="#D9D9D9" stroke="black" stroke-width="0.7"/>
</mask>
<g mask="url(#mask4_307_51)">
<path d="M111.839 75.1348L111.824 75.1211L111.823 75.1197L111.82 75.1172C111.795 75.0944 111.771 75.0713 111.747 75.0479L111.744 75.0454L111.219 74.5483L111.245 74.5496L110.913 73.9886C110.233 72.8408 109.927 71.3331 110.146 69.5746C110.439 67.2274 111.611 64.9064 113.281 63.0577C114.952 61.2084 117.099 59.8557 119.317 59.4145C120.923 59.095 122.333 59.2992 123.448 59.8892L124.002 60.1829L124.056 60.233L124.045 60.2459L124.318 60.4773C125.713 61.6575 126.469 63.6551 126.156 66.1654C125.863 68.5126 124.691 70.8336 123.021 72.6823C121.35 74.5315 119.203 75.8843 116.985 76.3254C114.847 76.7508 113.055 76.2498 111.839 75.1348Z" fill="#EBE9E9" stroke="black" stroke-width="0.7"/>
<path d="M119.049 72.634L121.754 75.2231L113.411 78.1641L109.269 73.2423L119.049 72.634Z" fill="black"/>
<path d="M120.535 72.1737L122.481 74.1534L123.449 73.2874L121.425 71.1262L120.535 72.1737Z" fill="black"/>
<path d="M111.839 75.1348L111.824 75.1211L111.823 75.1197L111.82 75.1172C111.795 75.0944 111.771 75.0713 111.747 75.0479L111.744 75.0454L111.219 74.5483L111.245 74.5496L110.913 73.9886C110.233 72.8408 109.927 71.3331 110.146 69.5746C110.439 67.2274 111.611 64.9064 113.281 63.0577C114.952 61.2084 117.099 59.8557 119.317 59.4145C120.923 59.095 122.333 59.2992 123.448 59.8892L124.002 60.1829L124.056 60.233L124.045 60.2459L124.318 60.4773C125.713 61.6575 126.469 63.6551 126.156 66.1654C125.863 68.5126 124.691 70.8336 123.021 72.6823C121.35 74.5315 119.203 75.8843 116.985 76.3254C114.847 76.7508 113.055 76.2498 111.839 75.1348Z" fill="black" stroke="black" stroke-width="0.7"/>
</g>
<path d="M124.669 64.8784C124.085 69.5594 120.016 74.0456 115.606 74.9229C111.196 75.8001 108.068 72.7454 108.651 68.0644C109.235 63.3835 113.304 58.8972 117.714 58.02C122.124 57.1428 125.253 60.1974 124.669 64.8784Z" fill="white" stroke="black" stroke-width="0.7"/>
<mask id="mask5_307_51" style="mask-type:alpha" maskUnits="userSpaceOnUse" x="110" y="59" width="13" height="15">
<path d="M122.464 65.3181C122.04 68.716 119.088 71.9657 115.896 72.6006C112.704 73.2356 110.433 71.0247 110.857 67.6268C111.281 64.229 114.233 60.9793 117.425 60.3443C120.617 59.7093 122.888 61.9202 122.464 65.3181Z" fill="#66DD8C" stroke="black" stroke-width="0.7"/>
</mask>
<g mask="url(#mask5_307_51)">
<path d="M122.464 65.3181C122.04 68.716 119.088 71.9657 115.896 72.6006C112.704 73.2356 110.433 71.0247 110.857 67.6268C111.281 64.229 114.233 60.9793 117.425 60.3443C120.617 59.7093 122.888 61.9202 122.464 65.3181Z" fill="#7284DA" stroke="black" stroke-width="0.7"/>
<path d="M122.875 66.8233C122.469 70.0742 119.645 73.1824 116.593 73.7896C113.54 74.3968 111.368 72.2825 111.773 69.0316C112.179 65.7806 115.003 62.6725 118.055 62.0653C121.108 61.4581 123.28 63.5724 122.875 66.8233Z" fill="#7284DA" stroke="white" stroke-width="0.7"/>
<path d="M122.464 65.3181C122.04 68.716 119.088 71.9657 115.896 72.6006C112.704 73.2356 110.433 71.0247 110.857 67.6268C111.281 64.229 114.233 60.9793 117.425 60.3443C120.617 59.7093 122.888 61.9202 122.464 65.3181Z" fill="#7284DA" stroke="black" stroke-width="0.7"/>
</g>
<path d="M104.61 71.7021H129.714C129.714 75.1683 126.904 77.9781 123.438 77.9781H110.886C107.42 77.9781 104.61 75.1683 104.61 71.7021Z" fill="#EBE9E9" stroke="black" stroke-width="0.7"/>
<mask id="mask6_307_51" style="mask-type:alpha" maskUnits="userSpaceOnUse" x="104" y="71" width="27" height="8">
<path d="M104.61 71.7021H129.714C129.714 75.1683 126.904 77.9781 123.438 77.9781H110.886C107.42 77.9781 104.61 75.1683 104.61 71.7021Z" fill="#D9D9D9" stroke="black" stroke-width="0.7"/>
</mask>
<g mask="url(#mask6_307_51)">
<path d="M107.329 79.0246C115.648 79.0246 122.391 76.2147 122.391 72.7486C122.391 69.2825 115.648 66.4727 107.329 66.4727C99.0102 66.4727 92.2666 69.2825 92.2666 72.7486C92.2666 76.2147 99.0102 79.0246 107.329 79.0246Z" fill="white"/>
<path d="M104.61 71.7021H129.714C129.714 75.1683 126.904 77.9781 123.438 77.9781H110.886C107.42 77.9781 104.61 75.1683 104.61 71.7021Z" stroke="black" stroke-width="0.7"/>
</g>
<path d="M119.855 39.4164L77.3152 46.154C76.4152 46.2965 75.8011 47.1417 75.9437 48.0418L75.9724 48.2235C76.115 49.1236 76.9602 49.7376 77.8602 49.5951L120.4 42.8575C121.3 42.7149 121.914 41.8697 121.771 40.9697L121.743 40.788C121.6 39.8879 120.755 39.2738 119.855 39.4164Z" fill="white" stroke="black" stroke-width="0.7"/>
<mask id="mask7_307_51" style="mask-type:alpha" maskUnits="userSpaceOnUse" x="75" y="39" width="48" height="11">
<path d="M119.855 39.4164L77.3152 46.154C76.4152 46.2965 75.8011 47.1417 75.9437 48.0418L75.9724 48.2235C76.115 49.1236 76.9602 49.7376 77.8602 49.5951L120.4 42.8575C121.3 42.7149 121.914 41.8697 121.771 40.9697L121.743 40.788C121.6 39.8879 120.755 39.2738 119.855 39.4164Z" fill="white" stroke="black" stroke-width="0.7"/>
</mask>
<g mask="url(#mask7_307_51)">
<path d="M122.103 40.8242L75.6123 48.1875L76.2668 52.32L122.757 44.9566L122.103 40.8242Z" fill="#D9D9D9"/>
<path d="M119.855 39.4164L77.3152 46.154C76.4152 46.2965 75.8011 47.1417 75.9437 48.0418L75.9724 48.2235C76.115 49.1236 76.9602 49.7376 77.8602 49.5951L120.4 42.8575C121.3 42.7149 121.914 41.8697 121.771 40.9697L121.743 40.788C121.6 39.8879 120.755 39.2738 119.855 39.4164Z" stroke="black" stroke-width="0.7"/>
</g>
<path d="M96.5918 35.6151C96.5918 34.3642 97.6059 33.3501 98.8568 33.3501C100.108 33.3501 101.122 34.3642 101.122 35.6151V91.2258H96.5918V35.6151Z" fill="white" stroke="black" stroke-width="0.7"/>
<mask id="mask8_307_51" style="mask-type:alpha" maskUnits="userSpaceOnUse" x="96" y="33" width="6" height="59">
<path d="M96.5918 35.6151C96.5918 34.3642 97.6059 33.3501 98.8568 33.3501C100.108 33.3501 101.122 34.3642 101.122 35.6151V91.2258H96.5918V35.6151Z" fill="white" stroke="black" stroke-width="0.7"/>
</mask>
<g mask="url(#mask8_307_51)">
<path d="M98.8574 33H104.087V91.5757H98.8574V33Z" fill="#EBE9E9"/>
<path d="M96.5918 35.6151C96.5918 34.3642 97.6059 33.3501 98.8568 33.3501C100.108 33.3501 101.122 34.3642 101.122 35.6151V91.2258H96.5918V35.6151Z" stroke="black" stroke-width="0.7"/>
</g>
<path d="M98.857 48.3402C101.263 48.3402 103.214 46.3895 103.214 43.9832C103.214 41.5769 101.263 39.6262 98.857 39.6262C96.4507 39.6262 94.5 41.5769 94.5 43.9832C94.5 46.3895 96.4507 48.3402 98.857 48.3402Z" fill="#EBE9E9" stroke="black" stroke-width="0.7"/>
<mask id="mask9_307_51" style="mask-type:alpha" maskUnits="userSpaceOnUse" x="94" y="39" width="10" height="10">
<path d="M98.857 48.3402C101.263 48.3402 103.214 46.3895 103.214 43.9832C103.214 41.5769 101.263 39.6262 98.857 39.6262C96.4507 39.6262 94.5 41.5769 94.5 43.9832C94.5 46.3895 96.4507 48.3402 98.857 48.3402Z" fill="white" stroke="black" stroke-width="0.7"/>
</mask>
<g mask="url(#mask9_307_51)">
<path d="M96.7646 46.5983C99.3642 46.5983 101.472 44.4909 101.472 41.8913C101.472 39.2917 99.3642 37.1843 96.7646 37.1843C94.165 37.1843 92.0576 39.2917 92.0576 41.8913C92.0576 44.4909 94.165 46.5983 96.7646 46.5983Z" fill="white"/>
<path d="M98.857 48.3402C101.263 48.3402 103.214 46.3895 103.214 43.9832C103.214 41.5769 101.263 39.6262 98.857 39.6262C96.4507 39.6262 94.5 41.5769 94.5 43.9832C94.5 46.3895 96.4507 48.3402 98.857 48.3402Z" stroke="black" stroke-width="0.7"/>
</g>
</svg>
