<svg width="144" height="108" viewBox="0 0 144 108" fill="none" xmlns="http://www.w3.org/2000/svg">
<path d="M84.592 38.2265L78.4165 41.0634L78.9402 42.2088C71.4337 49.8245 69.7752 63.6922 75.667 76.5232C81.5588 89.3542 93.1678 97.1228 103.839 96.3809L104.363 97.5263L110.538 94.6894C122.627 89.1358 126.62 71.9841 119.452 56.3927C112.284 40.8013 96.6701 32.6621 84.581 38.2265H84.592Z" fill="#EBE9E9" stroke="black" stroke-width="0.7" stroke-miterlimit="10"/>
<path d="M84.2873 88.5576C90.0809 93.9475 97.1401 96.8393 103.839 96.381L104.363 97.5264L110.538 94.6895C118.678 90.9472 123.118 81.9567 122.987 71.7334L84.2764 88.5688L84.2873 88.5576Z" fill="black" stroke="black" stroke-width="0.7" stroke-miterlimit="10"/>
<path d="M122.54 67.5282L115.741 70.0278L114.65 66.2867L121.934 64.103L122.54 67.5282Z" fill="black"/>
<path d="M104.003 97.7339C116.093 92.1784 120.085 75.0335 112.919 59.4396C105.753 43.8457 90.1435 35.7081 78.0538 41.2636C65.9642 46.8191 61.9727 63.964 69.1385 79.5578C76.3043 95.1517 91.9138 103.29 104.003 97.7339Z" fill="#7284DA"/>
<path d="M78.417 41.0629C69.012 45.3836 64.5168 56.7089 66.3389 68.8634L114.542 86.7131C117.87 78.9993 117.695 68.8306 113.277 59.2291C106.108 43.6378 90.4951 35.4985 78.4061 41.0629H78.417Z" fill="white"/>
<path d="M104.221 62.4482L95.9943 67.129C94.1177 68.1982 92.8412 66.9872 93.1467 64.445L94.4996 53.294L92.6884 52.4976L91.3354 63.6485C91.0299 66.1907 89.6007 66.2011 88.1605 63.6698L81.854 52.5849L80.403 53.4139L86.7093 64.4993C88.1495 67.0197 87.4076 68.2414 85.0618 67.2158L74.7839 62.688L74.5439 64.6522L84.8218 69.1801C87.1676 70.2166 87.5494 71.9296 85.6728 72.9988L77.4461 77.6795L78.5591 79.6326L86.7857 74.9519C88.6623 73.8826 89.9389 75.0937 89.6334 77.6358L88.2805 88.7756L90.0916 89.5721L91.4446 78.4323C91.7501 75.8901 93.1794 75.8792 94.6196 78.4105L100.926 89.4959L102.377 88.6664L96.0707 77.581C94.6305 75.0606 95.3724 73.8389 97.7182 74.8645L107.996 79.3923L108.236 77.4286L97.9582 72.9008C95.6124 71.8643 95.2306 70.1513 97.1072 69.082L105.334 64.4013L104.221 62.4482Z" fill="black"/>
<path d="M104.003 97.7339C116.093 92.1784 120.085 75.0335 112.919 59.4396C105.753 43.8457 90.1435 35.7081 78.0538 41.2636C65.9642 46.8191 61.9727 63.964 69.1385 79.5578C76.3043 95.1517 91.9138 103.29 104.003 97.7339Z" stroke="black" stroke-width="0.7" stroke-miterlimit="10"/>
</svg>
