<svg width="144" height="108" viewBox="0 0 144 108" fill="none" xmlns="http://www.w3.org/2000/svg">
<path d="M129.153 71.7794C132.367 69.9292 132.367 66.9012 129.153 65.051L103.031 50.0166C99.8171 48.1664 94.553 48.1664 91.339 50.0166L41.391 77.0985C38.177 78.9487 38.177 81.9767 41.391 83.8269L67.5131 98.8613C70.7271 100.711 75.9912 100.711 79.2052 98.8613L129.153 71.7794Z" fill="white" stroke="#121212" stroke-width="0.7" stroke-linecap="round" stroke-linejoin="round"/>
<path d="M121.155 48.7012V68.4834C121.155 69.7488 119.378 70.7761 117.183 70.7761C114.987 70.7761 113.21 69.7488 113.21 68.4834V48.7012H121.155Z" fill="#C2C8CF"/>
<path d="M121.155 48.7012V68.4834C121.155 69.7488 119.378 70.7761 117.183 70.7761C114.987 70.7761 113.21 69.7488 113.21 68.4834V48.7012H121.155Z" fill="#C2C8CF" stroke="#121212" stroke-width="0.7" stroke-linecap="round" stroke-linejoin="round"/>
<path d="M117.183 50.9933C119.376 50.9933 121.155 49.9668 121.155 48.7006C121.155 47.4345 119.376 46.4082 117.183 46.4082C114.989 46.4082 113.21 47.4345 113.21 48.7006C113.21 49.9668 114.989 50.9933 117.183 50.9933Z" fill="#C2C8CF" stroke="#121212" stroke-width="0.7" stroke-linecap="round" stroke-linejoin="round"/>
<path d="M114.008 35.3076V55.0899C114.008 56.3552 112.231 57.3825 110.036 57.3825C107.84 57.3825 106.064 56.3552 106.064 55.0899V35.3076H114.008Z" fill="#C2C8CF"/>
<path d="M114.008 35.3076V55.0899C114.008 56.3552 112.231 57.3825 110.036 57.3825C107.84 57.3825 106.064 56.3552 106.064 55.0899V35.3076H114.008Z" fill="#C2C8CF" stroke="#121212" stroke-width="0.7" stroke-linecap="round" stroke-linejoin="round"/>
<path d="M110.04 37.6007C112.234 37.6007 114.013 36.5742 114.013 35.3081C114.013 34.0419 112.234 33.0156 110.04 33.0156C107.846 33.0156 106.068 34.0419 106.068 35.3081C106.068 36.5742 107.846 37.6007 110.04 37.6007Z" fill="#C2C8CF" stroke="#121212" stroke-width="0.7" stroke-linecap="round" stroke-linejoin="round"/>
<path d="M106.777 60.6006V75.8987C106.777 77.514 104.984 78.8256 102.768 78.8256C100.552 78.8256 98.7588 77.514 98.7588 75.8987V60.6006H106.777Z" fill="#00C27C"/>
<path d="M106.866 60.375V76.7319C106.866 77.9973 105.089 79.0246 102.894 79.0246C100.698 79.0246 98.9209 77.9973 98.9209 76.7319V60.375H106.866Z" fill="#7284DA" stroke="#121212" stroke-width="0.7" stroke-linecap="round" stroke-linejoin="round"/>
<path d="M102.894 62.6671C105.087 62.6671 106.866 61.6408 106.866 60.3747C106.866 59.1085 105.087 58.082 102.894 58.082C100.7 58.082 98.9209 59.1085 98.9209 60.3747C98.9209 61.6408 100.7 62.6671 102.894 62.6671Z" fill="#7284DA" stroke="#121212" stroke-width="0.7" stroke-linecap="round" stroke-linejoin="round"/>
<path d="M99.7191 75.7012V80.8595C99.7191 82.1249 97.9423 83.152 95.7468 83.152C93.5512 83.152 91.7744 82.1249 91.7744 80.8595V75.7012H99.7191Z" fill="#C2C8CF"/>
<path d="M99.7191 75.7012V80.8595C99.7191 82.1249 97.9423 83.152 95.7468 83.152C93.5512 83.152 91.7744 82.1249 91.7744 80.8595V75.7012H99.7191Z" fill="#C2C8CF" stroke="#121212" stroke-width="0.7" stroke-linecap="round" stroke-linejoin="round"/>
<path d="M95.7467 77.9935C97.9406 77.9935 99.719 76.967 99.719 75.7009C99.719 74.4347 97.9406 73.4082 95.7467 73.4082C93.5529 73.4082 91.7744 74.4347 91.7744 75.7009C91.7744 76.967 93.5529 77.9935 95.7467 77.9935Z" fill="#C2C8CF" stroke="#121212" stroke-width="0.7" stroke-linecap="round" stroke-linejoin="round"/>
<path d="M61.3582 88.151C68.8236 88.151 74.8755 84.6574 74.8755 80.3476C74.8755 76.0378 68.8236 72.5439 61.3582 72.5439C53.8928 72.5439 47.8408 76.0378 47.8408 80.3476C47.8408 84.6574 53.8928 88.151 61.3582 88.151Z" fill="#121212"/>
<path d="M60.6265 79.6906C62.1387 79.1086 63.598 78.7163 64.9779 79.5143C66.2785 80.2682 65.9964 81.2734 64.6781 82.1111L65.5026 82.5916L64.9162 82.9311L64.083 82.4461C62.3944 83.3058 60.7191 83.3764 59.37 82.6357L60.697 81.8685C61.4641 82.2124 62.174 82.2081 63.0072 81.8158L61.1643 80.7443L61.107 80.7663C59.6433 81.2954 58.2193 81.7452 56.8349 80.9428C55.5828 80.2154 55.8914 79.2631 57.192 78.4342L56.6189 78.0991L57.2052 77.7596L57.7872 78.0991C59.2112 77.4113 60.7587 77.3496 62.0681 78.0065L60.772 78.7561C60.1591 78.4783 59.4802 78.5047 58.885 78.7339L60.5648 79.7082L60.6309 79.6818L60.6265 79.6906ZM63.5936 81.4806C64.1006 81.1191 64.3078 80.7092 63.7744 80.4005C63.2806 80.114 62.703 80.2197 61.8962 80.4974L63.5936 81.4851M59.8461 79.9861L58.2678 79.0691C57.7079 79.4571 57.6197 79.8361 58.0473 80.083C58.475 80.3299 58.9996 80.2727 59.8461 79.9861Z" fill="white"/>
</svg>
