<svg width="144" height="108" viewBox="0 0 144 108" fill="none" xmlns="http://www.w3.org/2000/svg">
<path d="M127.019 57.9961C126.925 58.3827 126.638 58.7422 126.149 59.0231C124.805 59.7994 122.458 59.7027 120.908 58.8056L120.778 58.7301L119.477 59.4822L119.607 59.5577C121.159 60.4518 121.325 61.808 119.984 62.5843C118.64 63.3606 116.293 63.2639 114.743 62.3668L74.909 39.4923C72.9457 38.3566 71.961 36.9007 72.0033 35.5264V74.3915V74.5335H72.0093C72.0244 75.8716 73 77.2822 74.912 78.3847L114.74 101.259C116.293 102.153 118.64 102.253 119.981 101.477C120.606 101.117 120.899 100.631 120.884 100.126V97.6859L120.905 97.698C122.458 98.5951 124.805 98.6917 126.146 97.9154C126.632 97.6345 126.919 97.2781 127.013 96.8945L127.052 58.0082L127.019 57.9961Z" fill="white"/>
<mask id="mask0_307_2" style="mask-type:alpha" maskUnits="userSpaceOnUse" x="72" y="35" width="56" height="67">
<path d="M127.019 57.9961C126.925 58.3827 126.638 58.7422 126.149 59.0231C124.805 59.7994 122.458 59.7027 120.908 58.8056L120.778 58.7301L119.477 59.4822L119.607 59.5577C121.159 60.4518 121.325 61.808 119.984 62.5843C118.64 63.3606 116.293 63.2639 114.743 62.3668L74.909 39.4923C72.9457 38.3566 71.961 36.9007 72.0033 35.5264V74.3915V74.5335H72.0093C72.0244 75.8716 73 77.2822 74.912 78.3847L114.74 101.259C116.293 102.153 118.64 102.253 119.981 101.477C120.606 101.117 120.899 100.631 120.884 100.126V97.6859L120.905 97.698C122.458 98.5951 124.805 98.6917 126.146 97.9154C126.632 97.6345 126.919 97.2781 127.013 96.8945L127.052 58.0082L127.019 57.9961Z" fill="white"/>
</mask>
<g mask="url(#mask0_307_2)">
<path d="M126.484 97.8891V59.0088" stroke="#EBE9E9" stroke-width="0.7" stroke-miterlimit="10"/>
<path d="M119.765 102.37V63.4893" stroke="#EBE9E9" stroke-width="0.7" stroke-miterlimit="10"/>
<path d="M123.125 97.89V59.0098" stroke="black" stroke-width="0.7" stroke-miterlimit="10"/>
</g>
<path d="M127.019 57.9961C126.925 58.3827 126.638 58.7422 126.149 59.0231C124.805 59.7994 122.458 59.7027 120.908 58.8056L120.778 58.7301L119.477 59.4822L119.607 59.5577C121.159 60.4518 121.325 61.808 119.984 62.5843C118.64 63.3606 116.293 63.2639 114.743 62.3668L74.909 39.4923C72.9457 38.3566 71.961 36.9007 72.0033 35.5264V74.3915V74.5335H72.0093C72.0244 75.8716 73 77.2822 74.912 78.3847L114.74 101.259C116.293 102.153 118.64 102.253 119.981 101.477C120.606 101.117 120.899 100.631 120.884 100.126V97.6859L120.905 97.698C122.458 98.5951 124.805 98.6917 126.146 97.9154C126.632 97.6345 126.919 97.2781 127.013 96.8945L127.052 58.0082L127.019 57.9961Z" stroke="black" stroke-width="0.7" stroke-miterlimit="10"/>
<path d="M120.906 58.8066L120.887 61.2503C120.887 61.2503 120.893 60.3169 119.607 59.5588L120.906 58.8066Z" fill="white"/>
<path d="M120.906 58.8066L120.887 61.2503C120.887 61.2503 120.893 60.3169 119.607 59.5588L120.906 58.8066Z" stroke="black" stroke-width="0.7" stroke-miterlimit="10"/>
<g opacity="0.5">
<path d="M82.6074 37.7773L112.602 42.7189L112.028 54.6742L82.6074 37.7773Z" fill="black"/>
<path d="M82.6074 37.7773L112.602 42.7189L112.028 54.6742L82.6074 37.7773Z" stroke="black" stroke-width="0.7" stroke-miterlimit="10"/>
</g>
<path d="M118.991 59.7627L78.3828 36.4412L80.7297 35.085L121.338 58.4095L118.991 59.7627Z" fill="white"/>
<path d="M118.991 59.7627L78.3828 36.4412L80.7297 35.085L121.338 58.4095L118.991 59.7627Z" stroke="black" stroke-width="0.7" stroke-miterlimit="10"/>
<path d="M81.4908 36.1702L120.906 58.8061C122.458 59.7032 124.802 59.7998 126.146 59.0236C127.49 58.2473 127.321 56.8941 125.769 55.997L85.943 33.1225C82.4241 31.0927 77.1019 30.8722 74.0572 32.6302C71.0095 34.3881 71.3931 37.46 74.909 39.4928L114.738 62.3673C116.29 63.2614 118.637 63.361 119.978 62.5848C121.323 61.8085 121.153 60.4553 119.601 59.5582L80.1496 36.8982C79.6935 36.6354 79.6845 36.2246 80.1678 36.0313C80.5484 35.8833 81.1162 35.9558 81.4908 36.1702Z" fill="white"/>
<path d="M81.4908 36.1702L120.906 58.8061C122.458 59.7032 124.802 59.7998 126.146 59.0236C127.49 58.2473 127.321 56.8941 125.769 55.997L85.943 33.1225C82.4241 31.0927 77.1019 30.8722 74.0572 32.6302C71.0095 34.3881 71.3931 37.46 74.909 39.4928L114.738 62.3673C116.29 63.2614 118.637 63.361 119.978 62.5848C121.323 61.8085 121.153 60.4553 119.601 59.5582L80.1496 36.8982C79.6935 36.6354 79.6845 36.2246 80.1678 36.0313C80.5484 35.8833 81.1162 35.9558 81.4908 36.1702Z" fill="#EBE9E9" stroke="black" stroke-width="0.7" stroke-miterlimit="10"/>
<path d="M120.884 100.13V61.25" stroke="black" stroke-width="0.7" stroke-miterlimit="10"/>
<path d="M106.719 80.3645C106.719 81.9325 107.556 83.3812 108.915 84.1635L111.371 85.577C115.572 88.0025 121.93 88.2653 125.567 86.166C127.162 85.2447 127.969 84.0245 128.02 82.7377V73.2381C128.02 73.1868 127.95 73.1807 127.938 73.2291C127.694 74.2893 126.908 75.277 125.567 76.0502C121.927 78.1525 115.572 77.8867 111.371 75.4612C109.302 74.2701 106.719 75.7636 106.719 78.1512V80.3645Z" fill="white" stroke="black" stroke-width="0.7"/>
<mask id="mask1_307_2" style="mask-type:alpha" maskUnits="userSpaceOnUse" x="106" y="72" width="23" height="16">
<path d="M106.719 80.3645C106.719 81.9325 107.556 83.3812 108.915 84.1635L111.371 85.577C115.572 88.0025 121.93 88.2653 125.567 86.166C127.162 85.2447 127.969 84.0245 128.02 82.7377V73.2381C128.02 73.1868 127.95 73.1807 127.938 73.2291C127.694 74.2893 126.908 75.277 125.567 76.0502C121.927 78.1525 115.572 77.8867 111.371 75.4612C109.302 74.2701 106.719 75.7636 106.719 78.1512V80.3645Z" fill="white" stroke="black" stroke-width="0.7"/>
</mask>
<g mask="url(#mask1_307_2)">
<path d="M127.662 69.5215H117.582V90.8006H127.662V69.5215Z" fill="#EBE9E9"/>
<path d="M115.678 70.6416H114.558V91.9207H115.678V70.6416Z" fill="#EBE9E9"/>
<path d="M106.719 80.3645C106.719 81.9325 107.556 83.3812 108.915 84.1635L111.371 85.577C115.572 88.0025 121.93 88.2653 125.567 86.166C127.162 85.2447 127.969 84.0245 128.02 82.7377V73.2381C128.02 73.1868 127.95 73.1807 127.938 73.2291C127.694 74.2893 126.908 75.277 125.567 76.0502C121.927 78.1525 115.572 77.8867 111.371 75.4612C109.302 74.2701 106.719 75.7636 106.719 78.1512V80.3645Z" stroke="black" stroke-width="0.7"/>
</g>
<path d="M105.044 75.8303C105.044 77.6456 103.764 78.3766 102.181 77.4614C100.601 76.5492 99.3174 74.3381 99.3174 72.5228C99.3174 70.7075 100.598 69.9765 102.181 70.8917C103.764 71.8069 105.044 74.0149 105.044 75.8303Z" fill="white"/>
<path d="M104.238 76.4006C104.238 78.2159 102.957 78.9469 101.374 78.0317C99.7944 77.1195 98.5107 74.9084 98.5107 73.0931C98.5107 71.2778 99.7914 70.5468 101.374 71.462C102.957 72.3742 104.238 74.5853 104.238 76.4006Z" fill="white"/>
<path d="M82.6074 37.7773L112.668 41.3386L112.028 54.6742L82.6074 37.7773Z" fill="white"/>
<path d="M82.6074 37.7773L112.668 41.3386L112.028 54.6742L82.6074 37.7773Z" fill="#D9D9D9" stroke="black" stroke-width="0.7" stroke-miterlimit="10"/>
<path d="M117.553 57.8448V44.4518L80.7653 36.4987C80.6565 36.4746 80.5991 36.6226 80.6958 36.68L117.553 57.8448Z" fill="white"/>
<path d="M117.553 57.8448V44.4518L80.7653 36.4987C80.6565 36.4746 80.5991 36.6226 80.6958 36.68L117.553 57.8448Z" fill="#7284DA" stroke="black" stroke-width="0.7" stroke-miterlimit="10"/>
<path d="M85.2403 66.5428C85.0983 66.6364 85.0186 66.8117 85.0186 67.0303C85.0186 67.2489 85.0983 67.4928 85.2403 67.7083L86.7499 69.9998C86.8919 70.2153 87.0845 70.3849 87.2853 70.4712C87.4861 70.5574 87.6787 70.5534 87.8207 70.4598L89.3301 69.4654C89.4721 69.3719 89.5518 69.1965 89.5518 68.9779C89.5518 68.7594 89.4721 68.5155 89.3301 68.2999L87.8207 66.0086C87.6787 65.7931 87.4861 65.6235 87.2853 65.5372C87.0845 65.4509 86.8919 65.455 86.7499 65.5485L85.2403 66.5428Z" fill="#7284DA"/>
<path fill-rule="evenodd" clip-rule="evenodd" d="M92.9952 61.756C93.2977 62.399 93.5563 63.0522 93.7679 63.7075C89.6678 56.9027 82.6914 52.7241 77.3197 54.1637C76.4713 54.391 76.2244 55.5133 76.7682 56.6702C77.312 57.8272 78.4406 58.5808 79.2889 58.3534C79.7603 58.2268 80.2583 58.1592 80.7769 58.1517C76.1431 60.6234 75.0578 67.7503 78.501 75.076C79.0448 76.233 80.1733 76.9865 81.0216 76.7592C81.8699 76.5317 82.1168 75.4095 81.5731 74.2526C81.2707 73.6096 81.012 72.9564 80.8004 72.3011C84.8934 79.0942 91.8529 83.2702 97.2207 81.8523C97.7423 81.7262 98.0896 81.2473 98.0885 80.5308C98.087 79.4334 97.2688 78.1943 96.2612 77.763C95.9046 77.6099 95.5559 77.5743 95.2585 77.6607C94.7933 77.7838 94.3023 77.8495 93.7914 77.8569C98.4252 75.3853 99.5106 68.2585 96.0674 60.9326C95.5236 59.7757 94.3951 59.0221 93.5467 59.2496C92.6984 59.477 92.4515 60.5991 92.9952 61.756ZM84.325 61.7211C81.7841 62.4064 81.0457 65.7709 82.676 69.2395C84.3073 72.7103 87.693 74.9711 90.2381 74.2889C92.7831 73.6068 93.5238 70.2401 91.8923 66.7692L91.8918 66.7679C90.2601 63.2977 86.875 61.0376 84.3303 61.7198L84.325 61.7211Z" fill="#7284DA"/>
</svg>
