<?xml version="1.0" encoding="UTF-8"?>
<!DOCTYPE svg PUBLIC "-//W3C//DTD SVG 1.1//EN" "http://www.w3.org/Graphics/SVG/1.1/DTD/svg11.dtd">
<svg xmlns="http://www.w3.org/2000/svg" version="1.1" width="250px" height="80px" style="shape-rendering:geometricPrecision; text-rendering:geometricPrecision; image-rendering:optimizeQuality; fill-rule:evenodd; clip-rule:evenodd" xmlns:xlink="http://www.w3.org/1999/xlink">
<g><path style="opacity:0.93" fill="#5d70b3" d="M 158.5,54.5 C 158.737,55.791 158.404,56.791 157.5,57.5C 153.38,51.4303 149.38,45.2636 145.5,39C 149.326,31.6812 153.659,24.6812 158.5,18C 154.129,17.1725 149.795,17.3391 145.5,18.5C 142.918,23.3331 140.085,27.9998 137,32.5C 133.326,27.1564 130.16,21.4897 127.5,15.5C 128.167,14.1667 128.833,14.1667 129.5,15.5C 131.808,18.9748 134.308,22.3081 137,25.5C 138.787,21.4234 140.954,17.59 143.5,14C 150.856,13.1687 158.189,13.3354 165.5,14.5C 160.036,22.5979 154.703,30.7646 149.5,39C 152.126,44.4238 155.126,49.5904 158.5,54.5 Z"/></g>
<g><path style="opacity:0.878" fill="#4f5f98" d="M 100.5,-0.5 C 100.833,-0.5 101.167,-0.5 101.5,-0.5C 107.251,7.24579 112.585,15.2458 117.5,23.5C 116.662,23.8417 116.328,24.5084 116.5,25.5C 110.668,17.1759 105.335,8.50923 100.5,-0.5 Z"/></g>
<g><path style="opacity:0.942" fill="#5f73b7" d="M 117.5,23.5 C 121.519,28.3534 125.186,33.52 128.5,39C 124.273,45.9658 119.94,52.7991 115.5,59.5C 114.957,59.56 114.624,59.8933 114.5,60.5C 118.984,61.8111 123.317,61.8111 127.5,60.5C 130.656,55.5282 133.823,50.5282 137,45.5C 139.705,49.5765 141.872,53.9099 143.5,58.5C 143.5,59.1667 143.167,59.5 142.5,59.5C 140.53,57.3533 138.697,55.02 137,52.5C 134.707,56.2522 132.54,60.0856 130.5,64C 122.833,64.6667 115.167,64.6667 107.5,64C 113.182,55.6562 118.848,47.3229 124.5,39C 121.703,34.571 119.036,30.071 116.5,25.5C 116.328,24.5084 116.662,23.8417 117.5,23.5 Z"/></g>
<g><path style="opacity:0.873" fill="#596aaa" d="M 87.5,28.5 C 88.8333,28.5 90.1667,28.5 91.5,28.5C 90.9517,32.9612 89.285,33.4612 86.5,30C 87.056,29.6174 87.3893,29.1174 87.5,28.5 Z"/></g>
<g><path style="opacity:0.894" fill="#6579c1" d="M 72.5,29.5 C 76.8333,29.5 81.1667,29.5 85.5,29.5C 83.9148,34.2732 81.2481,38.4398 77.5,42C 80.146,42.4974 82.8127,42.6641 85.5,42.5C 85.5,43.5 85.5,44.5 85.5,45.5C 80.8333,45.5 76.1667,45.5 71.5,45.5C 71.3505,44.448 71.5172,43.448 72,42.5C 74.6205,39.4242 77.1205,36.2576 79.5,33C 77.1902,32.5034 74.8568,32.3367 72.5,32.5C 72.5,31.5 72.5,30.5 72.5,29.5 Z"/></g>
<g><path style="opacity:0.909" fill="#657ac2" d="M 93.5,29.5 C 94.5,29.5 95.5,29.5 96.5,29.5C 96.2322,31.099 96.5655,32.4324 97.5,33.5C 100.051,32.0515 102.385,32.3848 104.5,34.5C 105.426,38.0938 105.759,41.7604 105.5,45.5C 104.167,45.5 102.833,45.5 101.5,45.5C 101.5,42.5 101.5,39.5 101.5,36.5C 100.178,36.33 99.0113,36.6634 98,37.5C 97.5026,40.146 97.3359,42.8127 97.5,45.5C 96.1667,45.5 94.8333,45.5 93.5,45.5C 93.5,40.1667 93.5,34.8333 93.5,29.5 Z"/></g>
<g><path style="opacity:0.075" fill="#364169" d="M 93.5,29.5 C 94.5676,28.5655 95.901,28.2322 97.5,28.5C 97.5,30.1667 97.5,31.8333 97.5,33.5C 96.5655,32.4324 96.2322,31.099 96.5,29.5C 95.5,29.5 94.5,29.5 93.5,29.5 Z"/></g>
<g><path style="opacity:0.907" fill="#667ac3" d="M 87.5,33.5 C 88.8333,33.5 90.1667,33.5 91.5,33.5C 91.5,37.5 91.5,41.5 91.5,45.5C 90.1667,45.5 88.8333,45.5 87.5,45.5C 87.5,41.5 87.5,37.5 87.5,33.5 Z"/></g>
<g><path style="opacity:0.902" fill="#6478bf" d="M 107.5,33.5 C 108.833,33.5 110.167,33.5 111.5,33.5C 111.336,36.1873 111.503,38.854 112,41.5C 113.714,42.9255 115.047,42.5922 116,40.5C 116.497,38.1902 116.663,35.8568 116.5,33.5C 117.5,33.5 118.5,33.5 119.5,33.5C 119.665,37.1817 119.499,40.8484 119,44.5C 115.667,47.1667 112.333,47.1667 109,44.5C 107.663,40.9743 107.163,37.3076 107.5,33.5 Z"/></g>
<g><path style="opacity:0.366" fill="#39446d" d="M 115.5,59.5 C 119.298,60.4834 123.298,60.8168 127.5,60.5C 123.317,61.8111 118.984,61.8111 114.5,60.5C 114.624,59.8933 114.957,59.56 115.5,59.5 Z"/></g>
<g><path style="opacity:0.547" fill="#404c7a" d="M 143.5,58.5 C 145.099,59.7985 145.599,61.4652 145,63.5C 143.519,62.5291 142.685,61.1958 142.5,59.5C 143.167,59.5 143.5,59.1667 143.5,58.5 Z"/></g>
<g><path style="opacity:0.655" fill="#4f5f97" d="M 158.5,54.5 C 163.89,62.5663 168.89,70.8996 173.5,79.5C 173.167,79.5 172.833,79.5 172.5,79.5C 167.5,72.1667 162.5,64.8333 157.5,57.5C 158.404,56.791 158.737,55.791 158.5,54.5 Z"/></g>
</svg>
